<?xml version="1.0" standalone="no"?>
<!DOCTYPE svg PUBLIC "-//W3C//DTD SVG 1.1//EN" "http://www.w3.org/Graphics/SVG/1.1/DTD/svg11.dtd" >
<svg>
<metadata>
Created by FontForge 20090622 at Thu Apr 19 06:28:16 2018
 By deploy user
SIL Open Font License
</metadata>
<defs>
<font id="x-wing-ships" horiz-adv-x="805" >
  <font-face 
    font-family="x-wing-ships"
    font-weight="400"
    font-stretch="normal"
    units-per-em="1024"
    panose-1="0 0 0 0 0 0 0 0 0 0"
    ascent="768"
    descent="-256"
    x-height="408"
    cap-height="472"
    bbox="0 -91 814 631"
    underline-thickness="1"
    underline-position="-2"
    unicode-range="U+000D-U+007A"
  />
<missing-glyph horiz-adv-x="543" 
d="M51 102h307v478h-307v-120v-358zM0 631h410v-580h-410v580z" />
    <glyph glyph-name=".notdef" horiz-adv-x="543" 
d="M51 102h307v478h-307v-120v-358zM0 631h410v-580h-410v580z" />
    <glyph glyph-name=".null" horiz-adv-x="0" 
 />
    <glyph glyph-name="nonmarkingreturn" unicode="&#xd;" horiz-adv-x="0" 
 />
    <glyph glyph-name="space" unicode=" " horiz-adv-x="293" 
 />
    <glyph glyph-name="dollar" unicode="$" horiz-adv-x="724" 
d="M286 492q2 -1 7 -5t8 -6l12 -9q0 -1 4 -3q14 -5 15 -4q0 1 5 -2l9 -4l7 -6l9 -8l20 -17q31 -25 33 -28q2 -2 10 -9l7 -5q1 -1 8 -7q16 -14 18 -16q2 -1 10 -8l36 -30q7 -7 8 -7l6 -6t8 -7l7 -5l7 -7q17 -14 21 -17q4 -4 8 -7q10 -9 11 -9l4 -3l7 -7t7 -6q24 -20 25 -21
q0 -1 4 -3q10 -8 10 -9t4 -4l22 -19l6 -6l9 -9t5 -4l7 -7l7 -6l7 -6l5 -7h-10q0 1 -7 6q-19 14 -20 15q0 1 -10 8q-6 5 -9 8l-6 4l-7 5q0 1 -7 7l-10 7q0 1 -20 17q-7 6 -8 7t-21 17q-11 10 -13 11q-1 1 -30 25q-4 4 -8 7q-4 4 -7 6l-8 5l-11 3q2 -8 4 -10q1 -3 5 -6l6 -5
l14 -13q-1 -1 -1 -2v-4q-3 2 -11 6q-7 3 -11 7q-4 6 -5 6q-1 1 0 2q-6 0 -12 1q-7 0 -7 -1l14 -12l6 -6q8 -6 9 -7t20 -18q3 -2 7 -6q5 -4 7 -6q9 -9 10 -9t4 -4l10 -9q1 0 4 -3l27 -25q14 -11 16 -13l21 -18l7 -7q4 -4 12 -10t17 -15q12 -11 17 -15q4 -3 4 -4q1 -4 1 -7
q1 -2 0 0l-23 19t-14 8q-21 9 -22 10q-1 0 -14 6q-3 2 -5 2q-1 1 -32 15l-24 12q-11 5 -12 5q-12 6 -13 6q-1 1 -5 3q-22 10 -23 10t-14 7l-10 4l-8 4q-12 6 -13 6t-5 3q-20 10 -28 13l-9 4q-3 1 -12 5t-10 5q-3 -4 -5 -5q-2 -2 -6 -5q-5 -4 -7 -5q-2 -2 -9 -6
q-11 -5 -12 -6q-2 -2 -4 -1q-10 2 -11 2q0 1 -10 3l-9 3q-1 1 -20 3v-3v-3q26 -43 27 -46t6 -12l16 -27q1 -1 13 -24q5 -7 5 -8q1 -1 5 -9q5 -7 5 -8q1 -1 5 -8q4 -8 5 -9q0 -1 5 -8q1 -3 4 -8q3 -6 6 -9q12 -11 17 -17q6 -6 9 -10l7 -7l5 -6l-8 -4l-1 -2q-17 17 -22 21
t-12 11q-4 3 -10 9q-6 5 -17 17q-6 6 -13 14q-6 7 -13 14q-9 9 -10 9q0 1 -3 5q-19 20 -23 23l-3 4q-12 12 -17 18t-9 10q-17 17 -19 20l-7 7l-5 5l-14 15v0q-1 0 -3 1q4 -15 4 -16t6 -8q12 -16 18 -23q5 -6 6 -7q5 -5 12 -14l12 -15q11 -13 12 -14t25 -29q7 -8 7 -9
q1 -1 17 -20q8 -9 8 -10l16 -19q30 -36 36 -42q5 -7 17 -21v-4v-4l-13 11q-1 1 -6 7q-9 10 -16 17q-8 7 -11 10q-4 5 -9 10q-4 6 -16 18l-7 6q-1 1 -6 7l-20 21q-9 8 -20 20l-18 18q-11 10 -22 22l-18 18q-11 10 -22 22l-18 18q-11 10 -22 22q-6 5 -16 15q-9 10 -11 11
q0 1 -7 9l-19 19l-17 17q-8 8 -9 10q-7 13 -7 14q1 0 -2 3l-6 6l-8 8q-5 6 -6 7l-6 7q-8 7 -14 14q-7 6 -13 13q-9 10 -10 10l-2 3q-6 10 -5 10q0 1 -1 11q-2 16 -1 18q0 2 -1 7l-1 13v7q26 -3 36 -4t18 -2q21 -1 28 -2q6 -1 21 -2q18 -2 20 -2q1 1 4 -1q13 -6 14 -7
q2 -1 16 -16q5 -6 9 -9l4 -4l7 -7q0 -1 8 -9q1 0 5 3q4 2 8 6l9 9t5 4l9 4q1 0 12 1q3 0 7 1q4 0 27 3q-1 1 -1 2q-1 1 1 1q-4 10 -6 18q-3 8 -4 12q-4 16 -5 16t-1 5q0 9 -1 10v16v7v30q0 -3 2 -2t10 -6z" />
    <glyph glyph-name="percent" unicode="%" horiz-adv-x="663" 
d="M284 479q5 0 8 -1q3 0 11 -3l9 -5l20 -12q19 -11 22 -12q3 -2 7 -5q8 -5 9 -6l4 -4q5 -3 8 -5l6 -4l5 -5t5 -8q6 -9 6 -11q1 -1 1 -4q1 -3 1 -11q1 -8 1 -11v-21q1 -1 9 -16q5 -9 6 -11q0 -3 3 -3q14 -4 14 -3t4 -2q13 -7 19 -12q7 -5 23 -15q5 -3 6 -3q1 -1 9 -5l14 -9
q7 -4 14 -9q2 -13 0 -13t-1 -5v-7q0 -1 2 -7q13 -6 14 -6q0 1 4 -1q11 -6 17 -11t10 -9q7 -8 7 -9q-1 -2 1 -5q7 -9 8 -9q1 -1 3 -4q7 -8 9 -9q2 0 2 -3q1 -9 -1 -11q-1 -3 0 -5q8 -14 9 -16q1 -3 6 -15q2 -6 3 -8t3 -9q0 -3 3 -14q1 -4 1 -10q0 -7 -2 -16q-1 -4 -3 -14
q-3 -11 -11 -18q-10 -11 -13 -11q-2 0 -17 -5q-14 -5 -16 -4v0h-26h-16h-30h-37h-9h-9q-8 -1 -25 12l-6 4q-1 1 -7 6q-8 6 -9 7q-2 1 -4 3q-12 9 -15 11l-15 5q-24 9 -26 10q-3 1 -7 3l-6 3t-8 6l-12 10q-5 5 -13 12l-6 6q-5 4 -6 5l-6 6q-1 0 -4 2q2 15 4 17q1 2 3 3l15 10
q2 3 11 10q14 12 17 15q3 2 7 7l13 13q2 2 8 12q9 13 11 15q1 2 8 12q7 11 7 12t2 2l6 5l8 4q8 3 16 7q9 3 16 6q2 1 5 2q3 2 17 7l-2 2q-1 1 -1 0q-10 9 -12 10q-2 2 -6 7q-7 9 -10 12q-2 3 -7 17q-1 2 -2 6q-2 4 -3 12l-2 9v22h-1v4l-13 -4h-3q-1 -14 -1 -21q-1 -6 -1 -9
q-1 -21 -1 -22q-1 -2 -5 -18q-1 -4 -3 -13q-3 -8 -9 -21l-7 -14q-1 -1 -12 -13q-21 -23 -26 -29l-7 -7l-6 -8l-5 -4q-17 -18 -19 -20t-4 -3q-34 -28 -36 -29l-2 -2q-1 -1 -5 -4q-3 -2 -4 -9q0 -8 -2 -8h-6q-4 1 -6 1q-1 0 -10 8q-14 12 -16 14q-1 3 -8 8l-5 5q-3 2 -7 6
q-5 5 -5 6l-7 5q-8 8 -8 9t-3 2q-10 5 -11 3q-2 -2 -6 -1q-9 3 -9 4l-5 4l-7 6l-5 5q-8 8 -9 8l-3 3l-9 9q0 1 -3 3q-7 5 -7 6q-1 0 -5 5q-8 7 -9 8l-3 3q-6 6 -7 6q0 1 -17 16q0 3 1 9q1 5 3 10q0 2 2 7t22 15l22 11q3 2 8 5q2 1 7 3l8 4l12 6q1 0 3 2q4 3 6 4q2 2 9 27
q3 9 3 13q1 3 0 5q0 2 -2 7t-1 11q1 7 1 12q1 4 2 12q13 3 20 6q8 2 30 9q77 24 80 25q3 0 5 1q1 0 7 1q3 1 6 1q2 0 5 -1z" />
    <glyph glyph-name="ampersand" unicode="&#x26;" 
d="M418 527q8 -3 17 -8q8 -4 18 -7q1 -4 1 -8q1 -4 7 -43q2 -11 4 -24q2 -14 5 -23q4 -10 5 -13t2 -7q3 -9 4 -10l2 -9q4 1 8 3q4 1 11 7q11 7 12 7t5 3q11 7 12 8t4 3l12 8q1 0 5 3q9 6 11 7l24 16l7 -4l8 -5q2 -2 8 -6t8 -6q6 -4 7 -4q0 -1 14 -8v-6q-1 -6 -3 -13
q-11 -26 -16 -41q-6 -15 -7 -18q-6 -13 -6 -14t-2 -6q-1 -2 -1 -3q-1 -1 -9 -21q8 -2 13 -3q4 0 28 -3q9 -2 24 -4l24 -3q20 -2 21 -2l3 -1l6 -4q4 -2 10 -8q5 -3 6 -4q2 -2 10 -8q7 -5 7 -6q1 0 8 -8q-7 -4 -7 -5q-1 0 -12 -2q-33 -4 -34 -4l-15 -2q-15 -3 -17 -3
q-1 0 -7 -1q-13 -1 -13 -2l-16 -5q4 -6 9 -10q6 -3 15 -12q5 -3 6 -5q2 -1 9 -7q7 -5 8 -5q0 -1 3 -5l-11 -8l-2 -1q-15 14 -16 14l-4 4q-7 6 -8 6l-15 5q-2 -4 -2 -5l-2 -3q13 -14 13 -15l4 -4l6 -7q0 -1 2 -9q-2 -5 -4 -9q-1 -4 -10 -7q-7 -3 -9 -4q-3 -1 -27 -14
q-4 1 -11 2t-12 5q-7 5 -14 11t-16 13q-1 0 -12 9t-19 15q-5 3 -6 4t-12 8q-2 -5 -4 -11l-2 -6q-3 -7 -4 -9t-10 -5l-16 -5l-5 -2q-8 -4 -9 -4l-8 -2q-3 3 -8 7t-10 7l-7 6l-13 8l-3 -5q0 -1 -9 -12l-1 -5l-1 -1q9 -8 14 -14q6 -5 7 -6q2 -1 6 -5q5 -4 8 -8q6 -6 7 -6l7 -7
q5 -4 7 -6q2 -1 13 -12q-1 -1 -1 -2q-1 0 -4 -4q-8 -5 -10 -6q-1 -1 0 -3l-11 11t-9 10q-10 8 -11 10q-1 3 -4 2q-2 0 -9 1q-6 0 -11 4q-3 2 -5 3q-2 2 -16 13h-3h-2q-29 -17 -34 -19q-5 -3 -9 -5q-47 -26 -49 -27l-4 -2q-9 -6 -11 -7q-3 -1 -6 -3q-8 -5 -10 -6t-25 -14
q-20 -11 -23 -13t-13 -6q-11 -6 -12 -7t-5 -3q-11 -7 -18 -10t-18 -10q-5 -3 -9 -6q-5 -2 -15 -8l-2 1l-2 -1q-13 12 -15 14t-20 18l-5 5q-1 0 -12 10q0 1 2 6q2 4 7 8q8 7 10 9q2 1 5 4q9 9 10 9l4 4q10 9 11 9t4 4q8 7 14 13q7 6 15 12q13 12 17 15q3 3 12 11l15 11
q8 7 16 13q4 4 6 5q1 2 9 8q5 4 7 6t23 18q6 5 8 7q2 1 22 18q9 7 12 8q3 2 4 4q3 10 3 11l2 24h-1l1 1q-15 6 -26 11t-20 12q-9 8 -10 9l-4 4l-7 6l-13 11q1 3 0 3q0 1 -1 2q9 -2 20 -4q10 -3 12 -3q3 -1 9 -2t12 1l15 6l5 2l15 7q0 1 4 1q9 2 10 2q2 0 11 -3q10 -4 13 -5
q3 0 8 -2q4 14 4 15q1 1 2 6q2 7 3 9q1 3 8 8q7 3 11 6q5 3 30 15v9q1 1 3 36q1 14 1 17t1 8q1 14 1 16t1 10q1 17 1 18q1 1 1 7q1 15 1 17q0 3 1 9q1 10 1 11v10l5 -1z" />
    <glyph glyph-name="one" unicode="1" horiz-adv-x="786" 
d="M162 381l5 10q-3 1 -7 3q-8 4 -7 10q1 8 11 8h1q11 0 15 -2q5 -1 10 -5q6 -4 5 -8q-1 -5 -8 -6q-6 -2 -11 -1q0 -4 -1 -11q10 -2 40 -7q1 -1 2 -3q1 0 5 2q27 -4 50 -9l41 -8q20 -5 30 -9l14 -1t35 -4q23 -2 50 -7q28 -4 57 -11q28 -8 52 -14q23 -6 44 -13q21 -6 41 -16
t42 -23q5 -1 18 -9q14 -7 28 -20q15 -11 28 -25q13 -15 17 -29h-9q-4 0 -7 -1t-5 -2q-1 1 -3 2q-1 0 -7 -1q-1 -1 -4 -5l-14 -4l-12 -4q-7 -2 -11 -5q-1 0 -3 2l-2 2q0 -2 -1 -4q-3 -3 -14 -1v1t-1 2q-2 -1 -5 -1q-1 -2 -2 -8q-1 0 -4 -1q-1 1 -1 3q-1 1 -5 3q0 -1 -3 -3
q0 1 -2 2v4q-1 -1 -5 -2q0 -2 -1 -6q5 -1 20 -7q1 0 1 -1q0 -2 -2 -3t-14 -5q-11 -4 -33 -6h-13q-19 0 -45 2q-35 3 -85 17h-4q-5 0 -3 -5l9 -3v-1t-1 -1q-1 -1 -4 0l-6 3q-4 1 -9 3q-4 2 -13 4h-1v3q-3 1 -14 5v1q-1 1 0 2q0 1 -15 6l-38 12t-46 16q-25 9 -41 17h-19
q1 -1 4 -3l2 -2q-8 1 -13 3t-9 4t-5 4h2h3q-2 3 -5 7q-5 7 -12 12l-28 11l-8 8l-23 8q-4 5 -15 21q-1 -2 -3 -5q-6 1 -22 5q-2 -3 -4 -4q-5 -2 -9 0q-4 1 -8 8q-2 3 -2 5q-6 -1 -19 -2q-2 0 -10 3q0 -1 -1 -2q-3 0 -10 3q-1 -1 -3 -1t-3 -1q-1 0 -3 1q-1 0 -2 -2
q-1 -1 -11 3t-9 13q1 8 3 10q0 3 1 6q2 8 6 10q-4 0 -18 3q-14 4 -19 12v2q0 2 3 3q5 1 10 3l3 6q2 3 3 7q2 3 4 7l9 18q1 2 4 5q2 2 6 4q4 1 9 0t11 -2q7 -1 13 -2q7 -2 15 -3q1 -1 4 -2l3 1q11 -2 46 -9z" />
    <glyph glyph-name="two" unicode="2" horiz-adv-x="721" 
d="M295 496l23 -20q4 0 14 1q8 -7 33 -27l45 -67v-4v-5q1 -2 1 -5q-1 -4 -1 -7t-1 -5q-1 -3 -2 -5q-1 -4 -5 -8q-6 -9 -17 -15v-8h3q1 -2 3 -3l4 -2q5 1 12 1q5 -1 11 -3t11 -8q5 -7 7 -14q1 -6 1 -12q0 -8 -2 -14l9 -18l34 -31q5 -1 19 -4q4 1 18 5q3 -1 12 -3q1 0 1 -1
q0 -2 -2 -2h-4q2 -3 5 -10q1 -1 1 -4l2 -2l2 -2q4 0 11 1l12 -4h1q1 -1 1 -2t-4 -1q-2 0 -3 1q1 -1 3 -5q4 -1 17 -7q1 0 2 -1l2 -2q-1 -1 -3 -1h-2q-3 1 -13 4q0 -1 -1 -4q5 -4 22 -16q0 -1 1 -2t1 -3q0 -1 1 -4q1 -4 2 -11q2 -7 0 -12q0 -1 3 -6l7 -9q4 -7 11 -14
q1 -2 3 -4q4 -4 12 -4h52q5 1 9 -3q4 -3 8 -10q4 -6 6 -20l3 -3v-12l-3 -1q0 -3 -1 -6q-2 -7 -10 -10q-5 -3 -12 -6t-16 -6q-9 -4 -18 -7q-1 -1 -2 -3q-9 -2 -35 -7l-1 2q-13 0 -52 1q-3 -1 -7 0q-9 2 -11 9q-5 10 -6 13q-1 4 -2 5l-10 7q-2 0 -3 1q-3 1 -4 5q-1 2 2 5
q1 1 2 1q0 3 1 9q-2 1 -7 3q-2 0 -4 2q-3 3 -3 13q-2 -1 -6 -1l-25 20h-4q-6 3 -24 13l-4 -4q-4 -4 -9 0q-5 2 -5 6v4q-1 0 -3 3q-1 -1 -3 -1q-4 0 -8 3q-3 2 -3 5q0 1 1 3q-1 1 -3 2q-1 -1 -3 -1q-3 0 -6 3q-3 2 -3 6v3q-1 0 -3 1h-3q-4 0 -7 3q-3 2 -3 5q0 1 1 3
q-1 2 -2 6q-3 2 -13 10v8l-101 51l-24 -4q-9 5 -36 22l-5 -5h-5q-1 0 -6 -2q-1 1 -3 2q-4 0 -18 -2l-23 4h-13q-1 0 -2 3q-4 -1 -7 0q-8 2 -8 8h-4q-9 8 -38 32q-1 0 -5 2l-1 1q1 2 2 9q-5 5 -22 19q-3 4 -4 9q-1 2 -1 4q0 4 1 8q2 6 8 14q11 12 25 10q6 -1 11 -4l23 -20
q0 3 -1 11q-1 1 -5 3q1 3 2 11l-19 15q-2 3 -8 14q-2 1 -8 5l4 8q-6 4 -21 17q-4 5 -6 10t-1 12q1 6 7 15q6 8 13 10q6 3 13 2q6 -1 13 -6q7 -7 22 -20q-1 6 0 12q1 5 4 10q2 6 9 11q6 5 12 5q5 0 10 -1q5 -2 12 -4l27 -24q-2 7 -2 13q0 5 3 12q2 7 10 13q8 7 14 7
q7 1 11 -2q5 -1 8 -3l2 -3l23 -18q-2 5 -1 11q1 5 3 11q3 6 11 11t14 5t11 -2t9 -6z" />
    <glyph glyph-name="three" unicode="3" horiz-adv-x="698" 
d="M418 329q5 -2 19 -6l239 -332q-2 -5 -6 -21h-6q-2 -2 -7 -8h-24l-128 96l-47 36l-41 30l-28 22l-11 9q0 -1 -4 1q-2 1 -4 1l-157 100l-3 3q-4 4 -6 7q-4 4 -9 12v7q4 -1 19 -4v2l-23 16q-1 0 -4 -1q-11 8 -44 34l-58 28h-13l-10 7q-1 -1 -4 -1l21 -12q6 -5 23 -22
q1 0 3 -1l4 -4q0 -1 1 -1q12 -12 23 -21l17 -15q8 -6 9 -6v-2q1 -1 1 -2t1 -2q-3 0 -7 1l-110 69q-1 1 -1 2l-1 2q-3 3 -8 9h-5q-2 3 -5 10q-2 8 -6 35l32 48q4 2 17 9l18 -13q19 11 75 46q-2 2 -7 10l3 2v3q3 2 12 6q0 -1 1 -1l2 -1l12 2q5 1 12 2h12q1 1 2 3q3 -1 12 -3
q7 -7 29 -27q1 -1 3 -1q0 -1 1 -2q3 -1 10 -4h3q1 0 3 -1l69 -25q3 -3 10 -13h4t7 -4q1 0 2 -1q-4 5 -16 18q0 1 -1 3l-3 3q0 1 -2 3l-21 21q0 2 -1 8q4 -3 16 -10l20 -12q13 -8 30 -20q0 -1 1 -2v-1t1 -2l15 -15l24 -54l-3 -3q-4 3 -16 11q4 -13 19 -54z" />
    <glyph glyph-name="four" unicode="4" horiz-adv-x="779" 
d="M667 190l11 -13q5 -5 9 -11q4 -5 7 -8q2 -4 6 -14q5 -10 9 -20q4 -12 8 -27q-2 0 -4 -2q-1 -1 0 -3q0 -2 4 -6q3 -2 4 -4q1 -1 2 -6q0 -2 1 -8l2 -12q1 -7 3 -15v-5q1 -3 1 -6q0 -6 -1 -7q1 -1 2 -3q0 -2 1 -10q-4 -1 -15 -4v-22q0 -2 -1 -3q-1 -4 -5 -5q-5 -2 -18 -6
q-9 -3 -18 -3h-5q-12 1 -35 11q-24 10 -56 33q-17 13 -37 30q-21 17 -40 34q-20 17 -34 30l-18 18q-19 -4 -55 -10q-2 0 -7 2l-64 -12l-12 12q1 1 3 7l-40 43q-2 0 -11 2q-3 3 -11 14q0 2 1 7q-3 4 -13 16h-11q-3 4 -15 17l-174 94q0 1 -1 3q2 2 10 6v3q-2 1 -10 6v3
q2 2 10 8q9 2 35 7q0 10 4 19q3 7 10 13q6 7 19 9q11 2 22 0q12 -2 20 -7q10 -5 17 -13q21 4 63 13q-10 15 -37 60q-2 5 -3 9t-1 8q1 5 5 10q-4 5 -11 13v17q0 4 2 15q4 1 18 3q11 -5 21 -9q9 -3 15 -6q7 -3 8 -3t3 2v13h1v3q-2 0 -3 1q-2 2 -2 5q-2 2 -7 6v2q0 2 1 3
q0 1 1 1q2 0 5 -3q-1 1 1 3q1 1 2 1q2 0 3 -1q2 -3 6 -8h1q1 0 3 -2q1 0 2 -2q2 0 6 -1l2 -2q1 -1 5 -1q0 -6 1 -17q1 -1 4 -2q2 -1 4 -3q2 -1 4 -3l10 -7v-6l-2 -2q-1 -1 -1 -7q1 0 2 -1q2 1 5 5h4q6 0 8 -1q0 -1 2 -4q2 -4 2 -6q0 -3 -1 -3l1 -4q3 -1 7 -4q8 -6 16 -11
q11 -6 24 -14q8 9 19 13t26 0q15 -3 36 -20q13 1 41 2q2 -5 10 -21q-1 -2 -2 -5q1 -3 6 -15q1 0 5 -2q4 -8 18 -34q-1 -2 -2 -8q2 -4 8 -17q1 -1 6 -1q7 -6 30 -24v-5h11q1 -3 4 -13q2 -2 10 -7h7q0 -1 5 -4q6 -4 12 -9q5 -4 16 -12v-7q2 -2 9 -6h8l17 -13v-6q-4 -1 -17 -4
v-6q4 -3 16 -10v-4q-2 -1 -9 -4z" />
    <glyph glyph-name="five" unicode="5" horiz-adv-x="761" 
d="M79 340l-25 26q-4 13 -4 23q0 18 13 27q18 12 45 3q10 -10 31 -29q2 0 7 -1q15 -8 19 -13q3 -5 13 -28l3 -9q7 1 28 5q-6 10 -13 26q-3 7 -3 9q1 4 4 13q-6 5 -21 21q-1 3 6 10q13 10 20 12q10 -9 19 -1q1 6 2 19q0 2 -4 6l-28 34q-8 35 33 45q6 1 12 1q17 0 28 -14
q44 -48 0 -69l-6 -3q0 -19 6 -27q5 -1 15 -2q3 -1 12 -8q1 0 5 -5q11 -11 14 -12q11 -5 18 -4l-14 34q17 42 57 24l21 -17q7 -4 7 -7q5 -1 16 -3q27 -11 40 -40q7 -15 -6 -37q-8 -12 -26 -7l51 -41q2 -1 8 -5q4 1 16 3q4 -3 15 -10q0 -4 1 -14q4 1 15 5q4 -3 16 -11
q0 -1 2 -7q2 0 9 -2l19 -11q1 -3 2 -11q2 0 9 2q10 -1 14 -6q3 -3 11 -21q3 -7 2 -9q2 -3 4 -8q-3 -2 -14 -6l120 -154q7 -17 7 -28q0 -23 -28 -25q-36 11 -86 11q-2 0 -42 18q-61 27 -68 31q-5 4 -81 59q-15 12 -15 13q-6 0 -18 1l-99 -8q-3 2 -11 9l-87 80q1 2 5 9
q-1 5 -4 19v13q1 11 2 11l26 6q3 0 12 1q4 4 17 14q-4 7 -16 26q-19 0 -76 -1q1 -2 5 -6q20 -45 16 -53q-12 -33 -57 -17q-32 12 -31 34l-32 25q-19 30 5 55q4 2 12 7z" />
    <glyph glyph-name="at" unicode="@" horiz-adv-x="751" 
d="M272 530q7 -10 25 -38q4 -12 17 -48q1 -3 28 -7q26 -4 42 -10q37 -4 59 -2q2 1 -2 8q-3 2 -7 12l-17 33q-4 12 0 14q29 0 37 1q7 2 12 5q22 -2 56 -11q39 -10 57 -18q25 -12 50 -32q-2 1 -4 -6q0 -3 1 -5q3 -3 14 -15q10 -15 12 -25q1 -4 1 -7q0 -11 -5 -16
q-21 -23 -42 -26q-5 -1 -44 12q-18 11 -24 13q-8 1 -13 -2q-11 -7 -21 -18q-25 -26 -33 -41q-5 -8 1 -16q2 -5 16 -9q13 -4 14 -9t-1 -14q2 -6 12 -19q4 -2 19 -22q49 -61 66 -87q20 -30 28 -50q6 -11 12 -17q13 -22 14 -26q0 -8 -11 -18q-11 -2 -14 -5q-3 -4 -1 -10
q-2 -14 -3 -15q-25 -11 -77 -23h-6q-7 0 -21 1q-16 2 -19 3q-2 1 -18 12q-11 11 -16 11q-4 1 -10 1q-17 12 -52 46q-37 37 -59 62q-19 20 -27 23q-5 3 -13 -4t-7 -14q0 -3 9 -21q9 -8 14 -22q4 -13 -3 -13q-9 0 -31 14q-22 12 -32 22q-6 7 -11 22q1 11 -3 18t-10 14
q-5 10 -7 16q-3 10 -1 12q2 3 9 -1q2 -2 15 -12q7 -13 14 -13q1 -1 10 10q9 10 9 13l-11 21l-32 73q-5 7 -14 7q-37 -14 -53 -4q-20 14 -89 98q-14 16 -22 37q-2 8 -2 16v9q4 23 14 25q31 10 50 2q27 -12 34 -4l23 -22q19 -15 27 -20q7 -5 10 -1q5 5 2 12q-5 11 -23 36
q-21 22 -21 23q-3 8 6 16q8 8 22 8q40 -4 53 13z" />
    <glyph glyph-name="A" unicode="A" horiz-adv-x="732" 
d="M699 276q-5 -32 -23 -130l-116 -73l-92 136l-37 -12q0 -2 -1 -7q-3 -8 -17 -17t-23 -14q1 -5 3 -14l1 -2q0 -7 -7 -7q-5 0 -7 6q-1 4 -4 12q-5 -1 -15 -2q-9 -1 -20 -1q1 -4 2 -10v-2q0 -7 -6 -7q-5 0 -7 5l-6 15v1q-11 2 -20 6q-10 5 -18 10q-11 5 -19 11v8q-9 1 -37 5
q-14 2 -27 3q-13 2 -16 3q-5 0 -17 1l-18 3v-1q-4 -40 -13 -158l-96 47l-12 143q0 5 3 17v43l21 30l33 91l56 65q-3 -21 -14 -85l-31 -56v-18q32 11 62 17t54 9q27 4 51 4l6 20l59 4q2 -1 6 -2q3 -1 7 -2h10q5 0 13 -3q8 -2 15 -6l16 -8q9 0 17 -1q7 -1 15 -1q8 -1 14 -1
q7 0 14 -1t13 -2l14 -2q3 23 8 70q-8 18 -30 74l138 -71z" />
    <glyph glyph-name="B" unicode="B" horiz-adv-x="761" 
d="M188 457q3 0 3 -4q0 -2 -1 -4l-76 -123q-1 -2 -1 -7l27 -24l72 23v4t-1 4t1 4q1 1 1 3q3 0 10 2l10 2q3 5 9 6q7 1 9 1q5 0 8 -1q2 0 4 2q1 1 1 2h35q5 0 8 -3q1 -1 6 -2q4 -2 6 -1q7 4 14 0q2 -2 2 -3l2 -2t1 -2q1 -1 4 -2v-2q0 -3 3 -11q1 -4 4 -6t6 -3q4 -1 9 -1
q1 2 4 6h6h4q3 -1 5 0q5 1 7 3q1 3 4 7q6 8 21 8q8 0 14 3t25 8q18 5 32 1q15 -5 17 -6q2 -2 10 -2h13q4 -1 8 -5q3 -4 4 -6q0 -1 4 -3q2 -1 3 -2q-11 26 -22 48l-15 33q-7 16 -7 18q-1 1 2 4q1 1 2 1q29 7 53 12l38 9t19 5t4 0h3q1 -1 2 -1l101 -120q0 -33 1 -129
q-21 -26 -40 -47l-30 -37l-19 -26t-10 -10q-4 -2 -7 -3q-5 -1 -8 0q-26 7 -48 11q-18 4 -35 7t-21 4q-7 1 -7 5q-1 3 0 4l44 97q-2 -1 -6 -2q-2 -5 -9 -21q-4 -1 -18 -7h-10q0 2 -1 8h-14q-3 -1 -5 -2l-6 -2l-5 5q-2 2 -4 5h-17q-5 -4 -18 -19v-3l8 -4v-3q2 0 7 -1v-9
l-12 -12v-4v-8q-6 -5 -13 -7q-7 -1 -13 0q-8 1 -15 3q-5 3 -15 8v9q-3 3 -11 12v12q2 0 8 1q0 1 2 6q3 0 11 -1q1 2 5 7q-4 0 -17 1q-1 1 -5 4h-8q-2 2 -6 5q-3 0 -15 -1q-1 -1 -3 -4l-27 -4q-4 0 -7 -1q-7 -2 -8 -3q-13 -3 -28 -1t-19 3q-5 1 -10 3q-4 2 -5 4q-7 -1 -11 0
q-5 1 -7 2q-3 1 -4 2q-1 6 -3 16q-18 5 -71 21q-6 -4 -24 -15v-22q18 -30 35 -55l25 -40q12 -18 14 -22q4 -7 1 -9q-1 -1 -3 -1q-9 7 -18 12l-15 9q-8 4 -13 6q-11 3 -14 6q-3 2 -3 3l-77 98q0 2 -1 8l-6 6v7q-1 2 -2 6q0 20 -1 81q1 1 3 5q0 3 2 11q1 2 5 7q0 1 1 5
q9 10 35 43l24 29q11 14 12 16t2 3q2 1 3 3q1 1 2 4l61 29v0z" />
    <glyph glyph-name="D" unicode="D" horiz-adv-x="751" 
d="M301 175q-1 3 -3 12l-13 13l4 4q2 -2 7 -5v5q-1 0 -4 2l-4 33q-10 7 -38 28v5q-3 3 -13 11q-6 -9 -22 -36zM260 326q5 -1 19 -1q-4 2 -15 9zM718 194q0 -3 -1 -4q-1 -2 -3 -1q-2 0 -4 1t-4 3q-3 1 -4 2t-1 2t1 2q1 0 -4 2l-12 7q-6 3 -18 10q-1 -1 -2 -1q-2 -2 -4 0
q-5 2 -4 2h-1q0 1 -1 4q0 -1 -1 -1q-4 0 -4 1q-4 2 -4 4q-1 1 0 1h-2q-3 0 -4 1q-3 1 -3 4v3l-188 113q-3 -2 -12 -7q0 -2 -1 -4q-2 -4 -9 -1q-1 -1 -4 -2v-2q0 -3 -2 -3q-1 -1 -2 -1t-1 -1q0 -2 2 -4l-8 -12q-1 -2 -2 -11q7 -3 13 -8q5 -5 11 -12q5 -8 8 -19q1 0 2 -1
q4 -3 4 -4q1 -1 0 -4q0 -2 -5 -1q0 -2 1 -14q1 -13 -1 -19q2 -2 3 -2q2 -1 3 -2t2 -1q-1 -1 -1 -4h1q3 0 5 -2q1 -3 4 -6q0 -1 2 -2q0 -2 -1 -3q-2 -2 -3 -2q-4 0 -8 2q-4 1 -5 3q-1 0 -1 1q-2 1 0 3q0 1 -3 3q-2 1 -3 1q-3 -6 -7 -11q-3 -6 -7 -10q-3 -4 -6 -6l-6 -4
t-10 -4q-5 -2 -13 -4q-9 -1 -23 -1l-3 -3h-3q-3 0 -4 4h-6v-1h-3q2 -1 10 -6t17 -10l23 -15l82 -66l74 -89q3 -2 11 -9q-1 -1 -1 -2t2 -1h3h1l9 -9q0 -2 -1 -3q-4 -3 -5 -3q-3 2 -11 6v1v2q-2 1 -4 3t-8 6l-12 10h-1h-5l-1 1q-1 0 -2 1q-1 0 -1 1v2v2q0 1 -1 0q-2 -1 -5 2
q-3 1 -3 4q0 1 1 1h-3q-3 0 -5 3q-1 1 -1 3v2l-119 99q-1 0 -6 -2l1 -2h5q2 -2 8 -10q0 -2 -1 -3q-2 -3 -4 -3t-6 4q-3 2 -5 3q0 2 -1 4q-1 0 -5 -1q-1 1 -5 4q-13 -3 -49 -13l110 -101q1 1 2 1t5 -2q1 -2 3 -5q1 -1 1 -2h1q3 0 5 -1q3 -3 3 -4v-2q1 1 2 1t3 -2q3 -5 3 -7
t11 -9q4 -4 11 -8q1 -1 3 -1q2 -3 8 -10v-2q0 -1 -3 -1q-5 0 -9 2q-3 1 -4 3v4h-1h-1q-1 1 -3 1q-3 0 -4 1t-1 2q-2 1 -5 3l-227 29l-84 87l28 67l-72 12l-86 89l80 103l38 -30l46 90l-37 29l25 105q2 1 7 2q25 -14 98 -58l82 -129q2 0 7 -2q7 4 30 14q2 1 7 1q1 1 5 2
q-1 2 -1 5q0 6 8 7l-31 18q1 1 3 5l31 -12q-6 13 -23 53l-44 25l68 104q2 0 8 -1l109 -47l134 -225l11 -7q0 -1 1 -4q0 1 1 1t3 -3q2 -2 6 -4l3 -3q0 -2 -1 -3q-2 -3 -3 -3q-4 2 -12 4q-1 0 -1 1v3l-8 4q-5 4 -13 8t-17 9q-1 -1 -2 -1q-3 -3 -5 0q-2 0 -2 1t-1 2t-1 2h-2
q-3 0 -5 1q-3 1 -3 3v2h-2q-5 0 -6 1q-2 2 -3 4q-1 1 -1 3l-117 66q2 -7 10 -29q6 -2 23 -10l90 -50l81 -78q2 -1 9 -5h2q1 0 1 -1h2q2 -2 4 -3q1 -1 3 -2v-4z" />
    <glyph glyph-name="F" unicode="F" horiz-adv-x="556" 
d="M523 294l-25 -232q-1 0 -3 -1l-142 51q-7 33 -30 132q-1 -2 -4 -5q-2 -2 -3 -5t-3 -4l-1 -1h1q1 0 1 -2h1q3 -3 0 -4h-2v-1h-2h-4h-1h-1q-1 -1 -2 -1q-1 -2 -10 -9q-8 -6 -24 -6q-15 0 -30 4q-16 4 -26 16q-1 1 -1 2t-1 1h-12q-1 1 -4 3h-6v-10l4 -255q-2 0 -7 -1l-98 76
l-47 219q-4 58 -14 231l90 37h6l53 -234q2 1 9 3q1 1 1 4q3 1 10 4q3 5 12 18q3 4 8 8t13 7q9 4 23 8q1 0 1 2q0 1 4 2q5 0 5 -4q2 0 18 -1q15 -1 28 -16q2 60 5 180l141 37h4q0 -3 3 -10z" />
    <glyph glyph-name="G" unicode="G" horiz-adv-x="715" 
d="M594 312q3 1 7 1h7t9 1q11 1 23 3h2q2 0 3 -1q2 -4 5 -7q2 -2 3 -4q6 -2 18 -7q2 0 4 -3q2 -2 3 -7q2 -5 4 -14q1 -10 1 -15t-1 -7q-1 -4 -3 -5q-1 -1 -5 -3q-2 -1 -3 -2l-2 -4l-4 -4q0 -4 -1 -7q-2 -7 -10 -8q-5 -2 -10 -2h-3q-2 -2 -6 -9q0 -2 -1 -6q-2 -4 -8 -17
q-2 -2 -3 -4l-1 -1q0 -1 -1 -2q-1 0 -1 -1q-2 -2 -3 -5q0 -2 -2 -6q-1 -1 -2 -1l-1 -1q-1 -3 -4 -8q-4 -10 -17 -37v-3q-2 -4 -9 -16q-1 0 -4 -2q-1 -6 -1 -25q-3 -1 -11 -1q-2 1 -8 7q-1 0 -3 -1q0 -2 -1 -7q-1 -1 -5 -1q-2 1 -9 6q-4 0 -14 -1v-7q-1 -1 -7 -1l-4 4h-1v-5
q-2 -1 -9 -3q-3 3 -11 10h-4q-1 -18 -5 -70q0 -3 -1 -5q-2 -5 -6 -6q-4 -2 -6 -2h-1v-3q-16 -2 -65 -9q-1 1 -4 3h-4q-4 0 -7 4q-2 2 -4 8q-3 6 -7 13t-9 17q-1 1 -1 3t-1 3v5q0 2 -1 4v5v5v1t-1 1v1l-2 2l-1 1q-4 0 -16 -2v-7q-1 -1 -2 -1h-2q-2 -1 -3 1l-4 4q0 -2 -1 -7
q-2 0 -8 -1h-1q-2 0 -3 1l-4 4t-6 7q-4 4 -8 9q-1 0 -1 1q-1 0 -1 1t-2 1q-4 -2 -8 1q-1 0 -11 5l-23 11q-14 7 -32 15q-1 0 -2 1t-2 1q-2 0 -3 1q-2 2 -7 4q-1 1 -1 2q0 2 -1 2v1q-1 0 -7 2q-3 1 -6 3h-1q-3 0 -4 1q-7 1 -8 2q-3 0 -3 3v2q-1 1 -6 3q-1 0 -3 -1q-3 1 -12 6
h-2q-2 0 -3 1q-2 1 -5 3q-2 1 -7 3q-4 2 -9 5h-1v3q-2 1 -8 3h-7l-4 4t-8 1l-49 -6q-1 4 -6 13q-4 2 -17 7q-2 0 -4 1q-4 2 -5 6l-3 9q-1 6 -2 14v15t3 11q1 0 3 2q1 1 2 1q4 3 12 8v2v1q1 1 1 2q0 3 2 7q1 1 2 4q7 1 28 3l2 1q4 2 9 8q3 3 16 19q14 15 28 32l39 44v8
q9 9 35 38q-3 4 -9 14v3q-2 2 -6 8q-2 1 -8 3q-4 8 -16 30q-4 7 -4 14q0 6 3 14q4 8 15 14q8 5 16 3q7 -1 12 -4q6 -4 11 -10l5 -10q1 0 3 -1q1 1 3 2q3 2 13 5q-2 2 -5 6q-1 2 -1 9h1q1 -2 7 -6q1 0 5 1q0 1 -1 6l2 1q2 -2 8 -7q2 0 7 2h11q4 5 8 9q4 3 9 6q4 2 10 2h4
q18 -2 22 -10l8 -13l3 -6l4 -8q3 -4 5 -10q0 -2 -1 -5q1 -2 4 -7q1 -1 2 -1q2 -3 7 -13q1 0 4 -1q4 -8 19 -32v-2q1 -4 4 -14l32 -23l123 -47q6 -2 25 -7q7 -1 26 -6z" />
    <glyph glyph-name="H" unicode="H" horiz-adv-x="847" 
d="M42 244v0q0 7 18 17l20 3q9 1 28 2l141 117q-1 12 -3 47q0 8 2 32q3 -1 13 -2q0 -2 3 -30q3 -27 3 -28q3 -6 8 4q2 5 5 17q3 6 8 9q2 1 10 3q16 3 24 3q8 2 14 7q3 4 8 12q32 4 40 -6l-19 52q1 1 7 5l50 -57l174 4q12 0 14 1q3 1 8 5q14 11 22 20q11 0 33 -1l105 -159
q-2 -3 -10 -9l46 -75q-2 -2 -9 -6l-49 76q-2 0 -8 -2l25 -46q-2 0 -8 -2l-28 44q-3 0 -11 -2q-3 -2 -13 -6l-16 -11q-4 -2 -7 -6l-103 -88l-8 -4q-5 -5 -9 -14v-8q-2 -18 -2 -20q-1 -2 -5 -8q-3 0 -12 1q-2 0 -9 1q-28 -1 -32 -2q-3 -1 -42 -16q-41 -17 -64 -24
q-19 -8 -26 -13q-1 -1 -6 -10q-6 -6 -11 -6q-7 -2 -17 5q-4 1 -15 10q-24 5 -73 5q-115 -1 -159 -5q15 -3 43 -7q-4 -1 -15 -3q2 -14 10 -54q-2 0 -10 -3l-11 54q-2 -1 -6 -1l16 -91q-3 0 -12 -2q-5 23 -18 89q-2 0 -9 -3q-2 2 -8 6z" />
    <glyph glyph-name="I" unicode="I" horiz-adv-x="724" 
d="M406 452q17 -6 70 -22q1 -2 2 -10l195 -137q3 -3 12 -11q-1 -4 -4 -17q-12 3 -49 13q-1 0 -5 -2q-2 0 -5 1q-2 0 -7 -2l-29 13v3q-22 9 -88 38q-4 0 -15 -2q0 -2 -2 -9l23 -12q-3 -3 -11 -13l-8 -32q1 -5 3 -21q-2 1 -10 2v-8q-3 1 -13 2q4 -3 15 -12q0 -2 -2 -6l168 -75
q-1 -3 -6 -14q-4 0 -14 2q-55 3 -217 11q-1 -1 -5 -3l-73 38q-1 9 -1 36q-8 -2 -16 -3q-6 -2 -13 -3q-8 0 -13 1q-13 2 -34 11t-32 25q-3 6 -5 9t-3 5q-1 0 -2 2q-3 1 -11 5q-4 0 -15 -1q0 -5 -1 -22q-3 0 -6 -1q-6 -2 -4 -6l2 -6q1 -4 1 -6v-5q-2 -1 -4 -3t-4 -3
q-1 -1 0 -3t28 -19l58 -37l84 -52q1 -6 3 -17q2 -4 6 -16q-4 -2 -16 -11l-27 20q-31 7 -125 30q-1 0 -4 -2q-7 4 -30 14q-1 -1 -6 -1q-1 0 -6 2l-92 143q2 32 6 129l83 78l8 12q17 -6 69 -23l60 -88q9 5 20 5q9 0 21 -4q13 -3 27 -13q2 -2 2 -3l2 -4q1 -1 2 -4l11 -7
q2 8 7 31l-4 8q0 6 -3 25l6 6l36 46q3 2 10 5z" />
    <glyph glyph-name="K" unicode="K" 
d="M234 498l6 -3q2 -2 12 -7q13 -6 14 -7q1 0 5 -3q24 -12 29 -15q5 -2 9 -4q14 -8 15 -8l4 -2q8 -5 9 -5q1 -1 10 -5q27 -14 28 -15q2 -2 10 -4q16 -4 18 -5t4 0q18 6 25 9q8 3 18 6q29 9 33 10q5 1 11 3q24 8 27 8t19 4q14 4 16 4q1 0 7 1q15 3 16 3t9 1q2 1 11 2
q8 1 15 1h26q1 -1 2 -1q11 -4 14 -5t6 -3q9 -5 9 -6l5 -9q2 -10 2 -11l-5 -21q4 1 16 -5q13 -5 17 -6q14 -4 17 -5q3 0 5 -3l4 -6t11 -8q4 -1 11 -3q7 -1 11 -3q9 -5 9 -6l8 -9q-5 -6 -6 -6h-13q-12 7 -12 8t-4 3l-8 6l-10 3q-2 0 -9 2t-33 14l-10 4q-1 0 -10 3q-6 -3 -9 -5
q-2 -1 -8 -9l-6 -8q-2 -4 -17 -26q-8 -13 -9 -13t-3 -4q-4 -9 -4 -10t-6 -21h1l34 -9q18 -5 19 -5t3 -2q9 -7 11 -10q1 -3 4 -4q16 -5 17 -4q0 1 5 -2q13 -6 16 -8t22 -12q0 -1 9 -6l9 -5q13 -7 14 -7t4 -3q7 -6 8 -7l2 -17l-5 -3t-8 -7q-10 -11 -11 -10q-2 1 -5 -3
q-7 -10 -5 -11q1 -1 1 -10q-1 -17 -2 -17q-2 0 -3 -7l-3 -11v-12q13 -7 14 -7q1 -1 7 -4q0 -17 -1 -17t-2 -9q-1 -11 -1 -12l-1 -2q8 -4 15 -7q8 -4 12 -7q7 -5 7 -6q1 0 6 -7q-16 0 -17 1q0 1 -7 4q-10 4 -11 4q-1 -1 -10 -4q0 -2 2 -9q1 -7 -1 -12q-1 -1 -5 -11l-5 -9
l-4 -10t-7 -8q-8 -6 -9 -6q0 -1 -9 -8q-6 -1 -9 -1q-5 0 -6 1q-2 1 -21 14q-11 8 -12 8t-5 3q-2 1 -8 5q-5 4 -10 6q-6 4 -7 5l-16 11l1 7q1 6 -1 8q-13 14 -18 18l-12 10l-18 18q-8 7 -12 9q-38 21 -46 26t-9 5l-13 7q-1 1 -5 3l-16 9q-1 0 -40 22q0 1 -9 5l-9 5
q-9 6 -10 6l-11 3q-7 2 -9 2q-2 1 -14 3q-15 3 -19 5q-4 1 -24 10q-22 10 -29 12q-7 3 -12 3q-28 -2 -53 -5q-25 -2 -26 -2q-27 -4 -37 -4q-9 -1 -15 -1q-12 -1 -13 -1q0 -1 -19 -4q0 -2 2 -4q1 -3 26 -17q13 -7 16 -7q2 0 3 -3q2 -6 3 -8q0 -1 -1 -6q2 0 13 -3q11 -4 16 -6
q9 -5 10 -5l12 -13l-2 -2l-6 -9l-10 5l-8 4q-13 6 -13 7t-5 4q-15 9 -21 13q-5 3 -14 9q-25 15 -27 17q-3 2 -9 5q-37 19 -41 20q-4 2 -18 7q-5 3 -10 5t-9 4l-10 5l-11 12l3 3l2 11q23 11 31 16l8 4q34 19 35 20h2l13 7q1 0 6 3t7 4q1 0 21 10q-2 0 -2 1l-1 2q-15 5 -17 5
q-1 0 -4 9q7 6 8 7q2 1 14 -1q10 -2 11 -2q1 -1 12 -2l2 23q1 0 0 3q-1 1 -3 8q-3 8 -2 15q3 16 3 19q0 2 2 5q5 8 5 9l6 12q-9 8 -10 10l-3 3q-10 5 -11 5l-8 4l-10 5l-6 8l-1 11q0 1 2 5q11 7 12 7q1 1 6 3q12 -5 16 -7q5 -1 10 -5l8 -6l7 -6l13 3l9 5q7 3 7 4q1 0 21 10
q-1 1 -1 2q1 0 2 1l-15 10q-1 0 -13 3q7 6 14 9q2 0 5 1q4 0 9 -3zM265 432l2 -4l1 -2q22 -1 22 -2q1 0 9 5q3 2 4 1l15 -10q4 -4 5 -4q1 -1 12 -8q4 -3 7 -3h17l-7 9l-9 5l-4 2q-1 1 -15 8q-9 5 -9 6l-12 2q-6 1 -10 1t-5 -1q-2 -3 -23 -5z" />
    <glyph glyph-name="L" unicode="L" 
d="M302 450q-1 0 -4 2v10q8 3 31 11l79 -41q1 1 6 3l22 -9l87 -47q13 4 50 17q-6 8 -27 33q-2 2 -4 6q-2 3 -3 7q-1 3 -3 7q-5 5 -7 11t1 13q-2 1 -4 4l-4 6q-3 4 -6 7h3h-3v5h3q-1 0 -3 2q1 0 3 2q1 0 3 3h-3q1 0 3 2l1 2v2q1 -1 3 -2q1 0 1 2v2h3h4v3h2h2v3h2v-3h3v3h3v-3
h1l11 -14h4t7 -2q5 0 8 -1q2 0 6 -6q1 0 5 -2q2 -1 4 -1l1 -2t8 -10q7 -9 15 -18l22 -25h2l25 -30v-6l2 -2t2 -7q4 -5 14 -14v-2t2 -5q1 -1 2 -1v-4l5 -5l1 -1q0 -1 1 -3v-4q4 -6 12 -17q1 0 4 -1l4 -2q2 0 4 -2t3 -4q2 -1 4 -4l4 -4h3l39 -45v-4q1 -1 2 -3l2 -4t1 -4
q0 -3 2 -6q2 -2 4 -6q4 -9 13 -26q1 -2 1 -5q0 -5 -9 -11q-8 -9 -12 -7q-5 1 -8 3q-2 0 -5 2q-3 3 -7 6q-4 4 -11 7q-2 3 -8 10h-7h-4q-2 1 -3 2q0 1 -1 2l-2 2l-27 37l-30 -25q4 -24 0 -49q-4 -20 -16 -45t-39 -49q0 1 -1 3v-5q3 -3 12 -14q1 -1 4 -2q1 0 1 -1q0 -2 -1 -3
q2 0 2 -3v-2h3q1 -3 7 -10v-1v-4h-5l-3 3q-1 2 -3 4l-5 5v1l-1 2h-2l-3 3q-1 2 1 2q-4 5 -14 16h-3q-2 1 -2 2t-1 2t-1 2v3q-2 0 -7 -3q1 -4 4 -18q-1 -1 -2 -4v-7q1 -7 3 -14q1 -8 3 -18q1 -2 3 -4q1 -2 2 -3t1 -3l11 -17q2 -2 7 -10q0 -1 -2 -2h-5l-6 8q-3 3 -5 7
q-4 -2 -12 -7v-3q-1 -1 -2 -3h-2q-5 -2 -18 -8q-1 1 -4 3l-3 -3q1 -2 5 -7q1 -2 2 -6q1 0 1 -1t-1 -1l-2 -1v1q-1 2 -6 8q-3 3 -10 12h-7q-1 -1 -3 0q-3 0 -7 6q-2 8 -2 10t2 4q0 2 1 2h3v2v6q-5 4 -18 17q-4 -3 -16 -10q1 -1 4 -3h1q0 -1 2 -4v-1v-5h2q2 -2 7 -11q1 0 1 -1
q0 -2 -1 -3h-4q0 1 -4 5q-2 2 -3 4t-1 4h-3q-3 0 -3 2h-2v5q-1 1 -4 5q-3 -1 -11 -4h-1l-4 2l-4 4q-3 2 -5 4h-2q-2 0 -14 -2q-12 -1 -32 -1q-10 -1 -29 0q-18 1 -40 5q-20 5 -42 13q-21 7 -37 19q-3 0 -9 -1t-13 -2q-8 -3 -17 -4q5 -6 13 -20v-4q1 -2 3 -4q4 -4 4 -9
q0 -1 4 -6l4 -4l8 -25q1 -2 2 -5q2 -7 -2 -10q-3 -6 -11 -12q-3 -3 -7 -3q-5 -1 -9 4q-3 1 -8 4q-4 3 -8 7q-4 5 -10 10q-2 2 -5 8q-2 -1 -4 -1q-4 0 -8 6q-2 3 -10 14l-15 23q-7 10 -20 31q-1 1 -2 4q-3 5 0 8q-5 5 -13 16q-2 -1 -5 1q-5 2 -11 14q0 -1 -3 -1q-3 1 -7 6
l-4 4q-2 3 -3 5q-2 2 -2 4q-1 -1 -3 0q-5 0 -9 6q-2 2 -5 6l-6 8q-4 5 -7 11v6q-10 12 -38 50q-1 1 -2 3t-3 3q-1 1 -2 3q-3 6 -9 19q-1 3 -2 7q-2 8 2 15l-12 15q-1 0 -3 2v4h3q-1 0 -3 2q1 0 3 2h2l-2 2q1 1 2 3h2v2q1 0 3 2v-2q1 0 1 2v2h4h3v3h2h2v3h2q0 -1 3 -3v3h2
q0 -1 2 -3h2q3 -4 13 -16q2 0 6 -1q2 -1 6 -2t6 -3q7 -5 8 -6q2 -1 4 -3l43 -56q1 0 3 -2l3 -6q12 6 46 25l-15 78q5 7 22 27q-4 18 -7 33q-3 12 -5 23q-2 12 -2 14l34 13q1 -2 5 -8z" />
    <glyph glyph-name="M" unicode="M" horiz-adv-x="611" 
d="M253 500q0 1 6 -2q5 -3 13 -6l21 -10q1 -3 4 -11l77 56l23 -21q10 -8 17 -16q8 -7 8 -8t-2 -6l-4 -10q-3 -6 -5 -14q1 -1 5 -2l-8 -20h-1q-1 -1 -3 -4h3q-2 -5 -8 -22h-4q-1 -1 -4 -6q3 -4 13 -16q1 0 4 2q1 -2 6 -7q-1 -1 -3 -2l5 -5q1 0 5 2l8 -12q-1 -1 -4 -5
q5 -5 19 -20l3 3q1 -1 3 -5q-1 -1 -5 -2q1 -1 5 -4q1 1 6 4q5 -7 22 -28l-4 -4l11 -14q2 0 5 1l7 -10q-1 0 -2 -3l62 -76h2q1 -1 2 -3q0 -1 -2 -3q4 -4 15 -19q1 -1 4 -2q3 -3 4 -6q2 -3 6 -7q-2 -10 -6 -37l-103 96q0 -1 -1 -3q3 -3 9 -10q-2 -1 -9 -3q-3 2 -11 9l-27 -12
l-105 132q-8 4 -30 17l120 -161q-2 -3 -7 -13q-4 -3 -14 -12q-3 -2 -13 -7l-181 118q5 -7 18 -30l146 -102q-3 -6 -9 -24q3 -3 15 -13l-8 -8q-3 3 -12 11l-3 -3l110 -102q-10 -2 -40 -6l-5 5q-2 2 -6 4q-3 1 -5 2l-26 18h-1t-4 2v3l-83 57q-1 -1 -4 -2q-2 1 -9 6q0 1 2 5
q-4 3 -17 10l-2 -2q-4 3 -18 12q-2 0 -8 3v3q-1 0 -1 2v5q-1 0 -4 2q-1 0 -4 -2q-1 0 -4 2v4q-5 4 -20 17q-2 -2 -6 -5l-7 10v2q-2 1 -9 4q0 -1 -2 -4q-2 1 -9 7q1 1 5 6q-3 2 -14 8q-3 -1 -12 -6v-1q-6 -1 -22 -5v4l-4 -4v-2q-5 -2 -20 -7v3q-9 -3 -36 -10l-47 44v6l55 69
q-2 1 -8 2q-4 10 -17 39v3q0 3 1 6q2 3 8 9t12 13l15 18h3h3t8 -2q6 -3 12 -5q7 -3 15 -6l-24 36v9q2 3 11 13q0 4 3 8q2 3 6 8t10 10q7 7 12 10t8 5q4 2 5 1q4 3 12 8l49 -28l-13 26v9q0 3 -1 5q0 3 1 4q2 3 16 14t26 16z" />
    <glyph glyph-name="N" unicode="N" horiz-adv-x="706" 
d="M559 285h-1t-1 -3q0 -2 1 -2h1h16q1 0 2 1t1 2t-1 1v1q-2 0 -2 1q-5 -1 -16 -1zM559 232h-1t-1 -2q0 -3 1 -3h1h16q1 1 2 1q1 1 1 2t-1 1v1q-2 0 -2 1q-5 0 -16 -1zM268 200v-1q0 -1 1 -2v-1h15v1h-5q-1 0 -3 3h-8zM133 228q-2 -2 -2 -3v-1q0 -1 2 -1h6v5h-6zM134 281
q-1 0 -2 -1t-1 -2t2 -3h15q2 0 3 1v2t-1 3h-16zM160 412l-74 -111q0 -1 1 -1v-2v-3h3l1 -1v-9q2 -3 8 -10h3v1q13 5 51 17q-6 5 -8 11q-3 5 -5 9t-3 9l-2 2v14v-1q0 1 1 2t2 1v6q0 1 1 3v3v4q3 10 7 15q2 3 5 5q0 -1 1 -1h1v3q8 8 17 12q9 3 16 5q9 2 16 1v-2l2 -1v2
q3 -1 5 -1t4 -1t3 -2v2l6 -2q2 -1 5 -2v-3h1q1 0 1 1q11 -5 15 -9q3 -3 4 -5v-3l4 -4q3 -2 5 -5q3 -3 6 -5v-16q6 -13 8 -23q1 -9 0 -15q-1 -7 -4 -12l2 -2h14q4 13 10 21q3 4 5 6v-2q0 1 1 1v3q1 1 3 2l4 4t4 3v4h6v-1h1q1 0 2 1q2 0 4 1v-2l2 1v2h1q1 1 2 1h2v3h5v-1h10
v-1h5v1h4q1 -1 2 -3q2 -1 9 -3h5v2h6v-4h2v-3h3v-7h5v-4h3v-3h2v-5q2 -3 9 -12h3l3 -3v2h2q0 -1 2 -2h11v2h3q0 -1 2 -2h14v2h3q1 -1 1 -2h1q-8 9 -13 20q-3 5 -5 12v24v4q0 1 1 2v7q3 7 6 11t5 7q3 4 5 6q1 0 1 -1q1 0 1 1v2q6 5 11 7q6 2 10 4t9 2q1 0 1 -1h1v1
q15 1 25 -2t17 -8t12 -13q0 -1 3 -3t5 -5l6 -9l2 -4l2 -4q1 -3 2 -5q0 -1 1 -2l2 -4t2 -6q2 -2 6 -8v-13l-2 -1v-7q0 -2 -1 -3h-1v-1q-1 -1 -1 -2v-2q12 -4 48 -14v-2q3 0 9 1v6h-3v7h3v4h1v6h-1v3h1v14l-1 1v16h1v15l-32 44q0 1 2 3l-8 12l2 1q-1 1 -3 4h1q-3 2 -9 10v2
l-13 17v4q-4 5 -14 20h11q0 -1 2 -3h3q3 -3 10 -13h2l38 -50h2q2 -2 6 -9h5l50 -64q2 -6 10 -25v-20h-1v-17h1v-9q-1 0 -1 -1q0 -3 1 -5v-4q1 -2 1 -4v-5h-2v-13h1v-19q-1 -1 -3 -5v-38h-2v-2q-1 -1 -2 -3h2l-80 -93h-4q-1 -1 -2 -3h-11q-10 13 -37 54l74 111v3h-10v-2
q-13 -4 -52 -17q2 -7 5 -11q2 -4 4 -6v-14l-2 -1v-9h-2q0 -2 -1 -5t-2 -5q-2 -3 -3 -5q0 -1 1 -2q-10 -14 -15 -18q-4 -3 -7 -4v-5q-5 -4 -11 -5q-4 -1 -7 -2q-1 0 -1 2q0 1 -1 3q-3 -1 -7 -1h-7q-4 0 -8 1v-4q-2 0 -8 2q-3 1 -5 2v-4q-2 -3 -9 -10v-10q-4 -1 -14 -6h-11
q-3 2 -13 6q-1 1 -1 2q-1 1 -2 3q-1 0 -2 2v8q-1 0 -5 6q-2 3 -4 5q-1 3 -1 10h11v4h3q1 3 5 11l-2 2q1 0 2 2q1 -1 2 -1q2 2 6 11q-3 2 -5 7q-3 4 -5 8q-3 4 -4 10q-1 0 -5 2q-2 1 -4 3h-19l-1 2h-6q0 -1 -2 -4v-7q-3 1 -12 2q-8 -2 -14 -2h-12q-6 0 -11 1h-13q-1 0 -1 -1
h-4v5q-1 0 -3 3q-2 1 -2 2q-2 -1 -7 -1q0 -1 -1 -1h-15q-2 -2 -8 -7h-17q1 -14 0 -19q-1 -4 -2 -5h-1l-2 -6t-2 -5q-1 -3 -2 -4v-1q-1 -3 -6 -10h3q1 0 2 -3h8q2 -1 5 -6q-1 -1 -1 -6q0 -2 -1 -4q-3 -4 -9 -10v-10q-3 -1 -14 -7h-9q-4 2 -15 6l-4 8v7q-1 2 -6 8h-10
q-2 0 -3 1v-5q-7 2 -12 3q-4 1 -6 2q-3 1 -3 2v4l-1 1l-1 -2q-1 1 -3 2v2q-2 0 -4 2q-1 1 -1 2q-3 2 -9 4q0 1 -1 2v3q-1 2 -1 4v5q-13 14 -18 25q-4 6 -5 13q0 1 -2 3v12q0 1 1 2q0 1 1 2v3q-8 3 -35 11v1h-3q1 0 1 -2q-2 -2 -9 -10v-7h-4q-1 -1 -1 -6q-1 -5 -1 -12v-15
l47 -63q0 -1 -2 -4q7 -13 30 -49h-12q0 1 -2 4h-4l-31 40h-5q-1 2 -6 9h-4l-49 63q-2 8 -10 30q-4 4 -14 18v142h2v2l3 3h-2l79 92h4q0 1 3 3h11z" />
    <glyph glyph-name="O" unicode="O" horiz-adv-x="604" 
d="M182 265q6 4 23 17v62h11v-56l7 9q4 4 10 11q22 20 54 20h3q42 -2 62 -24l21 -21q0 -1 1 -1q10 -6 42 -21q10 0 41 -1q-1 61 -1 244l80 58l36 -338l-31 -295l-68 82q-5 53 -18 212l-42 -4l-40 -20q-6 -15 -17 -23q-31 -26 -60 -26h-2q-33 0 -63 26q-9 8 -15 20
q-11 6 -33 20q-12 1 -50 5q0 -48 -1 -192l-80 -98l-24 336l25 291l77 -55q1 -60 2 -241q13 1 50 3z" />
    <glyph glyph-name="P" unicode="P" horiz-adv-x="697" 
d="M84 271q-2 2 -6 5q4 6 17 23q-2 2 -8 7q1 2 3 7q-2 2 -7 9l2 3q-1 1 -4 6q5 12 18 50q5 3 20 11q1 4 6 17l12 4v23q2 1 8 2v5l10 43q3 17 5 31q3 14 4 19q1 6 5 8h2h2l78 -23l159 -115l60 -44l52 -38l40 -30q17 -11 20 -14q14 -11 21 -14q6 -3 17 -7q10 -5 12 -7l3 -3
q-2 -1 -3 -2q-2 -1 -3 -2q0 -1 -2 0q-4 0 -14 5l-14 7q-6 2 -9 4q-3 1 -5 3h-20q-9 5 -37 18l-2 3q-7 2 -27 10q-1 1 -3 6l-217 89q6 -8 24 -34q-1 -1 -1 -4q-1 -2 -1 -5q0 -4 -2 -8l18 -11t18 -13q9 -7 17 -15q5 -2 15 -7l43 -21l195 -113l30 -18q7 -3 13 -6l10 -4
q5 -3 7 -4t2 -3q0 -1 -1 -2q-1 -3 -2 -3h-6q-5 2 -20 10q-2 1 -4 3t-5 3q-2 1 -5 3q-8 1 -14 4q-7 2 -13 5q-7 5 -14 9q-2 1 -5 4q-53 24 -94 45l-35 18q-18 8 -32 16q-15 7 -25 11q-10 5 -13 7q-4 -17 -13 -27t-17 -15q-11 -6 -22 -8l-64 20q-6 3 -24 10q-1 -1 -2 -3
q-4 -3 -6 -3q-5 2 -9 0q-2 -1 -3 -2q8 -4 24 -13q2 -1 8 -6q-1 -2 -4 -6q-3 1 -9 5q-1 0 -4 2q-6 4 -25 15q-1 0 -2 -1q-2 1 -6 4q-3 -1 -12 -5l-3 -1l-8 -8l-2 1l-4 -4l-2 1q-1 -2 -5 -8l214 -148q2 1 7 3q6 -3 24 -15l3 1l33 -21q3 -5 10 -18q1 -1 7 -5q2 0 8 -2
q5 -4 22 -14q0 -1 1 -2t1 -2l1 -1q1 -3 -1 -4q-2 -2 -3 -2h-7q-5 4 -22 16q-1 1 -5 6l-370 115q-15 12 -60 51z" />
    <glyph glyph-name="R" unicode="R" horiz-adv-x="666" 
d="M512 536q15 -8 61 -30q17 -19 30 -43q11 -21 21 -51t11 -68q-1 -1 -3 -2q-1 -18 -2 -74q1 0 3 -3q-2 -22 -9 -48q-7 -21 -20 -49t-38 -55q-1 -1 -13 6l-27 15l-26 17l-12 7q0 19 1 39q0 17 1 35q0 19 -2 34q-8 -4 -25 -11q-2 -6 -6 -12q-3 -5 -8 -12t-11 -12q-2 -3 2 -7
q3 -4 -2 -8q-4 -3 -10 -1q-3 1 -5 2q-4 -3 -8 -7q-5 -3 -12 -6q-6 -3 -14 -5l-1 -1t-2 -1q-3 0 -10 -2q-2 1 -7 4q-5 -1 -12 -1q-5 0 -13 1t-19 6q-3 6 -9 11l-11 9q-6 4 -13 8q-29 0 -86 -2l-12 -4v-42q-1 0 -5 -1q0 -26 5 -50q2 -21 7 -44q6 -23 16 -40q-5 -3 -14 -9
q-14 9 -27 19q-11 8 -24 19q-13 10 -21 19q-9 9 -22 29q-13 19 -25 42t-23 48q-10 24 -14 45q2 1 6 2q-2 1 -7 5q1 1 4 5q-1 12 -3 47q0 2 -2 7q1 1 2 5v7l-1 3q7 21 20 46q11 20 28 45t43 50l76 -41q-5 -21 -9 -41q-4 -17 -7 -35q-3 -17 -3 -29q2 -1 8 -3t13 -6q8 -4 18 -7
q8 2 23 5l4 23q2 0 6 2q3 4 10 16q2 1 6 2q6 2 23 3q1 -1 9 9q9 9 28 14q0 1 1 3l10 2q8 1 18 -2q3 -1 7 -1q3 -1 7 -1t8 -1q10 -2 14 -2q3 -1 5 -1l1 -1q2 -2 3 -4l3 -3q1 -1 2 -3h3q3 -2 11 -6q10 -1 38 -2q1 12 2 48q1 0 5 2l8 39q4 17 5 37q2 20 0 39l15 9h1h3z" />
    <glyph glyph-name="S" unicode="S" horiz-adv-x="635" 
d="M397 283h1q-1 2 -4 9h-7q0 1 -1 3l-4 6q-2 4 -4 7h-6q0 -2 -3 -4q-3 -3 -8 -7q-4 -4 -10 -9q13 -10 16 -23q2 -6 2 -13q0 -6 -2 -12t-6 -13t-10 -13l21 -15h6q2 3 4 7l4 4q1 3 1 4h7q1 2 4 9h-1q1 2 1 5h-4q1 2 2 6q1 5 1 18v11t-1 8q-1 4 -2 7h4q0 1 -1 5zM586 252v-27
l-20 -284h-14l-55 82l-16 170h-27v35h-2q-1 -1 -3 -5q-2 -1 -6 -4q-7 -2 -27 -7q-2 -2 -8 -9q-6 -1 -23 -2q-2 -1 -3 -3q-2 -4 -2 -5h-6l-3 -3q-2 -1 -4 -3h2v-4q-7 -4 -13 -8q-5 -3 -12 -6q-8 -3 -16 -4h-2q-1 -1 -3 -5h-4v-6h9v3h3q1 -1 5 -3v-6h-3v-5h-2v-3l-3 3h-2v-2
q0 -1 -3 -1h-2q-2 0 -2 3h-6h-1q0 -3 -2 -3h-1q-3 0 -3 1v2h-3q-1 0 -3 -3v3h-1v5h-3v6q1 0 3 3h1q3 0 3 -2v-1h9v6h-6v5h-3h-3q-7 1 -14 4l-12 6q-6 4 -11 8v4h1q-2 2 -4 3q-1 1 -4 3h-2h-3l-8 8q-5 0 -19 2q-2 2 -10 9q-6 2 -26 7h-4q-1 1 -5 4q0 2 -1 5v-35h-28
q-4 -43 -15 -170l-57 -82h-15q-4 71 -18 284v27q6 76 26 305q2 2 10 6l66 -57q2 -48 6 -193h25v-35v4h1v1q1 0 5 3q1 0 4 2q7 2 26 7q1 0 4 2v8q-1 1 -3 5v67h12v-49h6v65h13v-75q-2 -2 -5 -8v-5h2l8 8h5q4 9 14 13q10 5 19 7q11 3 23 4v7h1h6v-7q12 -1 23 -4q9 -2 18 -7
q9 -4 14 -13h6q1 -1 2 -3t2 -3t1 -2l23 -6l8 -4q7 -2 27 -7v-2l6 -3q0 -1 3 -1q0 -1 2 -4v35h25q2 48 5 193l66 57q3 -1 11 -6z" />
    <glyph glyph-name="T" unicode="T" horiz-adv-x="684" 
d="M660 33q-1 -1 -5 -3q-2 0 -10 3l-276 343q-1 -2 -1 -6q1 -3 7 -13q1 -1 1 -3q0 -4 -1 -5q-2 -2 -4 -2h-2q-2 -8 -7 -17q-4 -8 -9 -17q-6 -8 -17 -15h-1q1 -2 4 -6q2 -2 2 -6t-2 -6q-2 -1 -6 1q-3 3 -4 5q-2 2 -4 6q-6 -2 -10 -3t-8 -1q-4 -1 -8 0l201 -306q-1 -1 -2 -5
h-9l-411 228l-52 116l96 182q4 3 15 14h5l35 -57q1 4 3 16q4 8 9 14q6 6 12 11q6 6 15 10q14 3 26 2q11 -2 19 -5q-6 10 -19 30q1 0 6 3l180 -120l94 -104l138 -277v-7z" />
    <glyph glyph-name="U" unicode="U" horiz-adv-x="741" 
d="M728 525h-15l-17 -37h-5l-89 -184q1 -2 5 -7l-118 -231v-7q8 -7 9 -9t2 -3q-1 -1 -1 -4q3 -3 12 -10q0 -1 1 -2q2 -2 2 -4q0 -1 -2 -1q-1 0 -1 1q-5 4 -14 13v-5q3 -4 14 -13v-5q0 -1 -1 0h-1q-3 4 -13 16h-2q-4 0 -4 1q-3 2 -5 3q-3 2 -5 3q-3 1 -4 1q0 -1 -1 -3
q-5 1 -22 3v1q-8 0 -32 2v-1q1 -3 5 -10v-11q0 -2 -1 -5h-1q0 -1 -1 -1h-2v-4q-6 -1 -22 -6q-1 1 -7 2l-2 -2q-2 -1 -7 -4q-2 0 -7 1l-59 37q-4 -1 -16 -5q-4 -2 -7 -3t-5 -2q-3 -1 -6 -1q-2 1 -7 3h-2v-5l25 -25q1 -1 2 -5q2 -3 8 -10q7 -10 8 -10v-3v-2q-1 -1 -1 -2v-1v0
h-1l-18 21h-8q-7 2 -15 7l-15 11q-8 6 -17 14q-13 12 -37 37h-5q-9 10 -14 17l-9 11t-4 6v1v2l-11 14q-1 2 -2 10l-61 117v9l-82 173q-1 0 -5 1q0 4 -2 18h9l44 -45v-11l104 -176q1 -1 4 -2l46 -68q1 0 4 -2v-3q5 -2 20 -9q1 0 6 2v7q-2 2 -4 5q-2 2 -4 5l-2 4v7q1 4 5 7
q7 3 14 1q4 -1 6 -3q2 -4 6 -4q3 1 4 4q1 5 3 9q3 4 11 2l8 -4q4 -1 7 -3q4 -2 7 -4q10 -5 31 -14q0 5 -1 19q-1 1 -4 6q-2 2 -2 5q-1 3 2 8q2 1 6 1q2 0 3 -1q2 -2 6 -8l188 242h9l120 155h9q1 -1 3 -5q11 -7 44 -30v-5q2 -1 9 -4q-1 0 -3 -1z" />
    <glyph glyph-name="Z" unicode="Z" horiz-adv-x="624" 
d="M138 566q5 -5 6 -9q2 -3 2 -6v-11l1 -6q19 -2 20 -2q1 1 6 2q11 2 12 2l11 -2q7 -8 8 -11t3 -4q11 -4 25 -8t15 -4q11 -4 14 -4q2 -1 6 -2q15 -5 16 -4l4 -2q12 -7 10 -9q-1 -3 3 -4q19 -7 24 -9t14 -6t10 -5q2 -1 7 -4q4 -2 13 -8q9 -5 17 -14q1 0 6 -5t7 -8q5 -6 6 -6
q0 -1 4 -7q20 2 33 4q12 3 38 7q5 1 30 4l37 6q8 2 9 2t16 3q9 -8 9 -9l3 -2q6 -6 7 -6l7 -9l-7 -4l-10 -2q-26 -7 -28 -8t-13 -3q-19 -5 -23 -7q-5 -1 -19 -5q-12 -3 -14 -3q-2 -1 -6 -2q-3 -1 -4 -1t-23 -6q2 -8 3 -9t2 -5v-10q1 -6 -2 -12q0 -2 -3 -8q-2 -5 -5 -10
q-6 -9 -6 -12q0 -2 1 -4q5 -5 6 -5v-12l-5 -2q-5 -3 -13 1q-6 4 -7 4t-16 6q-5 -2 -6 -2l-1 2q-3 -29 -3 -30q1 0 0 -7q-2 -15 -1 -16q0 -2 -1 -8q0 -3 -1 -10q0 -7 -1 -14l-1 -18v-7l-1 -17q-1 -1 -1 -7q-1 -17 -2 -31t-1 -18q-2 -17 -1 -18v-7q-2 -13 -2 -15q0 -1 -2 -34
q0 -1 -1 -12t-1 -12q0 -18 -1 -18q-1 -1 -1 -6v-8q0 -7 5 -13q6 -7 8 -9t4 -5l6 -8l3 -2l-3 -18l-4 -11q-7 6 -8 6q-2 1 -5 4q-5 3 -6 4q-1 0 -17 10q1 -10 0 -11q-2 -2 -5 -9q-8 7 -13 11t-9 6q-12 3 -15 4q-3 0 -5 2q-9 8 -17 17q-7 9 -8 10q-11 7 -13 6q-1 -1 -5 2
q-6 3 -11 6q-4 4 -4 6q0 10 -1 14t-2 5l-6 7q0 1 -4 13q5 3 9 6q3 2 4 5q1 4 1 9q1 5 0 14q0 1 -1 7t-6 39q-8 56 -8 62q-1 6 -1 7q-4 30 -6 41t-4 27q-4 27 -4 29t-2 17q-1 6 -1 8q-1 2 -3 16q-12 1 -13 2q-2 0 -9 1l-17 2q-18 2 -29 4q-4 0 -9 1q-6 2 -10 6q-5 8 -6 8
l-5 8q7 3 8 3q0 1 12 2q4 1 9 1q5 1 9 2q-6 9 -7 10q0 1 -2 13q9 7 13 5t7 1q6 5 7 5v5v24q0 6 -2 8q-3 4 -11 11q-7 7 -16 15t-10 8l-4 4q-9 9 -10 9l-4 3q-7 7 -7 8q-1 0 -6 5q-6 5 -7 5q-1 1 -10 4q-10 3 -11 3l-5 2l-5 13q0 1 -3 13q-16 0 -18 -1q-2 0 -4 2l-6 7
q-1 1 -7 14l-1 4l-1 9q15 -2 15 -3q1 -1 6 -5l7 -5h1q3 1 13 5t15 5l11 2q0 -1 9 -2l7 -2q6 -1 8 8q1 3 3 5q0 1 1 1q4 0 13 -4z" />
    <glyph glyph-name="grave" unicode="`" horiz-adv-x="802" 
d="M35 390q4 -14 -9 -18l3 -25l19 -42l115 -150q1 -2 7 -17t11 -26q9 -8 28 -22q27 -29 25 -36q11 -11 32 -35q8 -6 31 -25q11 -3 43 -10q7 -2 30 -6q-3 7 -13 25l-33 40q-29 39 -14 50q-1 6 -5 19q1 15 7 18q-2 8 -7 23q3 18 13 21q4 1 22 1t36 -6t19 -11q15 -5 43 -16
q10 2 39 9l20 16q12 4 16 -3q0 6 -1 18q8 21 17 22l27 42q14 6 55 26l-69 -121l85 -72l128 79l14 9q1 5 5 20q3 31 13 123l-121 121l-113 57l31 -60l-141 62l-12 -40l10 -14q11 -11 41 -44l-32 20q-9 1 -35 6h-36q-3 0 -13 -1q-8 7 -31 30q-3 2 -13 6q-3 3 -12 13
q-2 -2 -10 -8q4 -6 15 -24q-4 -15 -21 -5q-5 -1 -13 -3q-9 6 -33 24q-2 -4 -8 -14l21 -21q-2 -4 -8 -17q-1 -5 -3 -19q-5 -7 -18 -5q-13 3 -14 11l-55 -33q-3 -6 -11 -24q1 -5 6 -18l21 -26z" />
    <glyph glyph-name="a" unicode="a" horiz-adv-x="617" 
d="M69 424q-1 15 -2 59q1 3 2 5q2 5 6 2l7 -7l12 -10q6 -6 15 -13q2 -3 4 -7q4 -10 5 -22v-13l2 -10q1 -6 2 -10q12 4 38 11q3 9 7 16q3 6 8 11q4 4 10 5q6 2 12 -3q1 0 4 6q4 7 18 12q-2 17 -5 51q0 3 1 6q1 4 6 4q2 0 4 -1l41 -24q2 0 5 -5q5 -6 10 -28q2 -7 3 -14t3 -12
q2 -6 3 -11q0 -2 2 -5q2 -2 4 -5q3 -3 10 -8q19 -12 19 -14l1 -2v-1t3 -3q3 1 13 2q0 1 1 3q3 0 12 1q1 0 2 -1q1 0 2 1q1 0 3 1q3 0 9 1q1 -1 5 -3h9t12 -3q0 2 1 4q1 3 4 3q1 -1 6 -3q4 -3 9 -6q4 -3 12 -8q0 -1 1 -2t5 -4l1 1l20 -12l3 -3q4 -2 17 -11v-1l16 -8v-2
q0 -2 -4 -2q-2 0 -8 4q-3 2 -6 5h-4q-1 0 -7 4q-3 2 -5 3q0 -1 1 -2v-2q1 -1 1 -2l18 -12v-1v-3q3 -2 12 -9q6 -4 14 -8h4l12 -8q1 -1 1 -3q0 -4 -1 -5q-4 -3 -9 0q-2 1 -3 1q0 1 -2 2t-3 2l-2 2t-1 3q-2 1 -4 3t-9 6l-12 9h-4q-5 2 -19 10q-1 -1 -3 -1q-5 0 -7 2
q8 -9 13 -19q5 -8 9 -17q5 -9 7 -16q0 -1 2 -1h2l43 -83q0 -1 -2 -5q6 -10 11 -20l10 -16q4 -9 7 -13q3 -5 9 -12l13 -17q8 -10 17 -18t17 -13q-1 -3 -2 -8l-63 -37q-10 8 -39 33q-1 -1 -4 -1q7 -9 30 -33q0 -2 -2 -7q-18 -11 -73 -41l-20 18l-23 18t-27 19l-20 11t-28 16
l-33 19l-35 19q-41 21 -87 47l-92 53l-8 12q-2 -1 -5 -3q1 -2 1 -5q0 -6 -4 -10q1 -2 5 -6h2q0 -2 2 -7v-2q1 -1 1 -2q0 -3 -1 -4q0 -1 2 -4l2 -4q1 -3 3 -5q3 -6 7 -13q1 1 3 0q3 -2 6 -10q0 -2 1 -3v-2t1 -1q-1 -4 -3 -7q-4 -6 -11 0q-2 3 -3 5l-2 4l-2 4v3v4q-2 4 -6 14
q-3 6 -6 13h-4t-3 1h-2q-1 0 -2 -1q-1 0 -2 1q-3 3 -5 6q-2 2 -4 6t-4 7q-3 4 -5 7q-2 4 -6 13q-1 0 -3 1q-2 3 -5 10q0 1 1 1q0 1 2 1l2 1q-3 3 -4 6q-4 4 1 11q-1 2 -1 5v4q1 2 5 4q-1 0 -1 2v2q-1 -1 -2 0q-2 0 -5 4q-1 1 -1 3q0 1 -1 1v1q-1 3 -1 5q0 4 3 5q3 2 8 -3
l1 -2q0 -1 1 -1h3q0 -2 1 -8v-2v-3l1 -2q2 0 4 -2t6 -8q2 -1 4 -3q4 -4 4 -11q1 -4 3 -11q2 1 7 1v2q0 4 3 4q1 0 1 -1h1q0 -2 1 -2q1 1 3 2q-2 10 -6 19q-4 8 -7 16q-4 9 -9 15q0 -1 10 7q11 9 21 12q0 1 -1 2q-2 2 -2 6q-2 4 -3 8q-3 4 -8 12q-2 2 -6 4q-5 3 -8 9
q-3 4 -3 8v2q-4 4 -8 9q-7 9 -7 15v10q1 6 4 12q4 8 11 14q6 6 19 8z" />
    <glyph glyph-name="b" unicode="b" horiz-adv-x="484" 
d="M190 571q1 1 4 1q4 0 10 -1q12 -1 14 -1t4 -1q2 -2 4 -3h4q1 0 3 1q4 0 11 -2q10 -2 11 -2q2 0 4 -2l3 -3q2 -1 11 -6l14 -7t14 -11q9 -10 13 -15q4 -4 4 -9v-6v-3q-1 0 -1 -1v-2q2 -1 7 -1v-1q0 -1 1 -1h2q3 -3 -2 -3h-2t-2 1q-1 -1 -2 -1q0 -2 -1 -2q-2 1 -8 2v-3
q-1 -2 -3 -1t-4 1q-1 0 -1 1h-1h-1l-29 -8h-17l4 -32l37 -47q0 -1 -1 -5h3q1 -2 5 -8q-1 -1 -6 -4q-3 0 -10 -1q1 -1 6 -4q-1 -7 -2 -27q12 3 49 10v1q0 2 1 3q1 3 6 3h4l18 -6l12 -5q6 -2 8 -2q1 0 2 -2q0 -1 1 -2q10 -3 29 -10q1 0 3 -2q1 0 5 -2q1 0 2 -1q5 -2 22 -7l2 1
q3 0 5 -2q0 -1 1 -1q0 -2 2 -2v-1v-1q-1 -1 -2 -1h-3q-1 0 -2 1q0 -1 -1 -1h-2t-1 2v2q-1 0 -5 1q-5 1 -9 3q-2 0 -6 2q-2 1 -3 1h-3q-3 1 -13 5h-5q-1 0 -3 1q-4 1 -8 3q-6 3 -9 3q-1 0 -5 -2q-2 -2 -4 -1h-3q-1 0 -3 2q-1 1 -2 1l-80 -34v-21q-2 1 -5 2q-2 1 -5 2
q-2 1 -4 1q-3 0 -5 -2l-1 -1q3 0 8 -2q2 -1 4 -3q5 -4 16 -11l3 -6v-6q-10 -4 -19 -8q-7 -3 -21 -8q0 -2 -1 -10q-1 -9 -3 -17q-2 -10 -3 -22q-8 -50 -14 -91q-6 -35 -10 -64q-5 -29 -5 -30q2 -2 5 -6q3 -5 4 -5q8 -4 17 -11t11 -9q2 -3 1 -4l-2 -2q1 -2 2 -5q2 -1 8 -6
q3 -2 5 -4q3 -3 4 -3q0 -1 2 -2q0 -1 1 -2l31 -25h2q2 -1 3 -2q2 -1 4 -3v-1q1 0 1 -1v-2q0 -1 -2 -1h-1q-3 0 -6 3q-3 1 -3 2v1l-32 25h-2q-2 1 -7 5v-5q2 -2 9 -6v-1h-2q-3 1 -9 5v-3l10 -7h3q0 -1 2 -2q1 -1 1 -2q1 0 1 -1q0 -3 1 -3v-1q-1 0 -1 -1q-2 1 -5 2h-1h-2
q-2 1 -2 4v1q-2 2 -10 8q-1 -1 -4 -2q-3 0 -11 1q-9 6 -15 11q-13 9 -18 14q-4 3 -12 11q-7 8 -12 13q-6 5 -9 11t-2 11q0 2 5 6q2 1 5 1q2 2 6 7q-5 62 -18 251q-29 -9 -52 -15l-36 -9t-17 -4q2 -2 2 -3t-1 -2q2 -1 5 -3q6 -4 8 -5q1 -1 2 -1t2 -1t1 -2q4 -3 11 -7
q1 0 4 -3q4 -2 18 -11q1 1 3 1h2v-1l2 -1q0 -1 1 -2q0 -1 1 -2q2 -1 2 -3q0 -1 -1 -1h-3h-2h-1t-2 1t-1 0q-3 1 -3 3v2q-5 3 -20 11q0 1 -3 1q-2 2 -11 6l-1 -1l-24 16l-4 -2t-4 -1q-1 -1 -2 -1h-1l-33 20v3t-1 3v1q0 1 1 2q1 4 9 8q5 0 7 -1l3 -3l114 49v5l3 1l1 2
q3 1 13 5q-5 2 -9 4t-8 3t-6 3q-5 1 -5 4v1q-1 7 -1 13q-1 5 -1 9v7v11q0 6 3 12q4 5 10 7q3 1 6 0q3 2 8 6q3 6 11 6h7v3q-4 3 -18 10q1 1 5 4q1 15 5 59q-5 3 -12 9l-10 12t-5 10q-1 6 -2 11q0 5 4 10q5 6 7 8q1 1 5 3l10 4q6 3 13 5z" />
    <glyph glyph-name="c" unicode="c" horiz-adv-x="759" 
d="M744 131q-2 -1 -9 -3q-4 4 -16 15q0 1 2 3q-5 7 -20 26h-3q-1 3 -7 10q0 2 -1 5q-1 2 -3 4q-2 3 -4 5q0 8 -2 14t-4 16h-134q17 -4 67 -18q4 -1 8 -3t7 -3t3 -3q0 -4 -11 -2q-3 0 -10 2q-30 5 -123 19q1 -4 -2 -8q-2 -3 -7 -7q-5 -3 -14 -5q-9 -4 -17 -2q-8 3 -14 8
q-6 6 -10 13t-5 13q-2 0 -5 -2v-4l4 -8q2 -5 3 -11t2 -18q1 -11 1 -22l2 -20q1 -11 1 -21q-2 -2 -4 -3q-5 -2 -7 -1q-5 3 -9 5q-4 3 -8 10q-2 2 -4 9l-6 14q-4 8 -8 17l-26 9q-5 0 -11 5q-5 5 -13 7q-1 -2 -4 -5q-7 -4 -15 -4q-24 0 -29 13h-3q0 1 -3 7l-122 -32
q-10 -3 -18 -5q-7 -2 -13 -3q-6 0 -7 4q-3 4 8 9q4 2 12 4l49 20q-31 -4 -124 -14q1 -2 2 -8h5q0 -2 1 -10q1 -1 3 -4t4 -13q1 -1 1 -2q-1 -2 -2 -5q-1 2 -2 5v-5l22 -34h3q3 -5 9 -21q-2 -1 -8 -5q-4 4 -16 17q0 1 1 3q-5 7 -19 28h-4q-3 5 -5 9q-4 9 -4 10q-2 1 -5 5
q0 3 -2 12q-1 1 -2 4q-2 6 -2 14q-2 0 -5 1q-6 3 -6 7q-1 0 -1 1q0 4 7 6q8 3 27 8q10 2 36 8l55 12l71 17q-8 1 -16 3t-17 4t-19 4q-24 5 -52 12q-2 1 -3 2q-3 3 -2 6q0 2 5 1h11q3 -1 25 -3q22 -3 47 -6q28 -4 64 -8q-2 0 -4 2q-3 3 -3 12q0 8 8 10q7 2 13 -1q4 -5 14 -15
q2 0 10 -2v31q1 1 5 2v2q2 1 8 5q2 0 2 3v3h7q0 4 2 13l2 2h4q-1 2 -2 8h-2v6h4q2 -3 8 -13q4 0 17 -1v-11q2 0 6 -2q4 -1 9 -8q4 -4 7 -8l7 -9q4 -5 6 -10h1q0 2 1 5q2 6 11 9q8 2 11 -3q4 -4 12 -13q3 -1 8 -1q1 -1 2 -5h4q1 0 3 -3h5l156 36q2 1 8 2q7 2 12 0q4 -4 3 -5
q0 -1 -8 -5q-6 -2 -22 -8l-38 -13q-23 -9 -51 -18q42 -2 80 -6q33 -3 64 -7q32 -3 50 -7q11 -3 12 -6t-3 -5q-4 -3 -14 -5q1 -2 1 -7q2 0 6 -1v-10l3 -1q0 -5 3 -20q-1 0 -1 -1h-1q0 -1 -2 1q-3 0 0 -3q0 -1 1 -2q6 -10 20 -29q1 0 4 1q3 -6 10 -23z" />
    <glyph glyph-name="d" unicode="d" horiz-adv-x="690" 
d="M472 350q5 -4 18 -18q2 -5 2 -16q1 -2 2 -1q1 0 2 -2q0 -2 1 -3q1 -2 3 -3t4 -3l-1 -2q-1 0 -1 -1q2 -1 5 -4q2 2 8 -1q5 -2 8 -6q6 -4 9 -7q0 -1 1 -2q1 0 1 -2q5 -6 11 -10t11 -9l34 -29t35 -29l21 -41t22 -40q-2 -4 -2 -7q1 -3 -3 -4h-1q3 -4 2 -8q0 -5 -2 -8
q-4 0 -9 4q-6 4 -12 10q-5 6 -11 11q-5 5 -9 8l-65 55l-66 56q-1 -2 -1 -6q-1 -4 0 -6q-2 0 -6 -2h1q1 -2 2 -2q0 -1 1 -3v-6q-1 -3 -1 -5q-8 -4 -15 -7t-14 -7h-1l1 1q-1 -1 -2 -1t-2 -1q0 -3 -1 -4v-2q-1 -1 -2 -1q1 -4 1 -11v-6t-1 -6q-6 -5 -11 -10q-6 -5 -11 -10
q-2 -2 -12 -2h-15q-6 -1 -12 -1t-11 -1h-4q-1 -1 -3 -1q-11 5 -21 9l-21 10q-1 2 -4 5q-7 5 -13 11l-12 12q-2 0 -3 1v-1q5 -5 9 -12q3 -7 6 -12q2 -2 4 -5q1 -3 3 -5l15 -22t13 -21q2 -5 5 -8l4 -6q-1 -3 -1 -6v-7q-2 0 -3 -1v-1t2 -3v-6q-1 -2 -1 -5l-2 -2q-1 0 -3 -1
l-100 48l-100 47l-18 26t-17 26q-9 11 -16 23l-16 23q-3 4 -8 9q-4 5 -2 9h2q-3 3 -2 8l2 1q1 0 3 1l-2 2q0 1 -1 2q-2 -2 -6 -3q-5 -1 -7 0q0 2 -3 5q-2 0 -2 -1q-1 0 -3 1q0 -1 -5 -3q-6 -1 -7 -1l-3 6q-3 2 -7 10q-3 4 -5 9q1 1 0 5t-1 7q-1 3 -1 7v5q1 7 3 12
q17 8 34 19l34 20q8 4 17 8t17 9q1 1 1 3q-1 2 -1 4q0 3 2 9q1 7 4 9h16q5 -1 9 -1q5 0 10 -1v9q4 3 15 12q13 -1 25 -1h23l1 1q5 -2 10 0l2 5q5 1 10 1q6 0 11 -3q1 -2 1 -5h20q10 -1 20 -1q2 -1 3 -2q0 -1 2 -2q3 -2 7 -4q5 -2 7 -4q3 -5 8 -7h8l17 -13l19 -13v-6
q2 -1 3 -2t3 -1l2 -1h1l-1 -1q2 -3 9 -6q7 -2 12 -4l32 -14z" />
    <glyph glyph-name="e" unicode="e" horiz-adv-x="709" 
d="M112 444l74 -24q22 10 40 19l30 15l18 9q1 7 5 10q3 3 6 4q4 1 8 0h9q2 0 8 1h46l119 -51q0 -2 1 -8q12 -5 49 -19q19 -7 35 -12q17 -6 20 -8q3 -3 2 -6q-1 -2 -3 -3q-34 12 -102 38q-4 0 -17 3l-3 -3q18 -8 35 -13l26 -9t16 -6q7 -8 2 -18t-9 -15q-3 -3 -10 -3
q-4 0 -7 1l-75 28l-23 -46l33 -13h11q2 0 2 -2q1 -3 3 -3q1 -1 3 -2q3 -2 1 -4l-2 -2q-1 -1 -2 -1l125 -65q2 -1 7 -3l21 -11q9 -5 18 -11l16 -9q14 -8 23 -21t13 -18q1 -3 1 -5q0 -4 -4 -6q-4 -4 -9 -6q-19 2 -36 7q-18 5 -31 9q-15 4 -28 9q-2 1 -4 4q-33 9 -61 18
q-24 7 -47 13q-23 7 -31 9t-22 5t-28 7q-16 4 -34 10l-154 -114q14 -3 25 -7l20 -6q10 -2 15 -5q9 -8 9 -15q0 -8 -3 -15q-3 -5 -8 -7q-3 -1 -5 -1l-82 27q-3 -5 -10 -20q1 -1 7 -2q2 -2 9 -6q11 -5 45 -17l32 -11q15 -5 17 -6q5 -2 7 -3q1 0 2 -4q0 -6 -6 -6q-3 0 -6 1
q-15 6 -45 17q-17 6 -32 12q-15 5 -17 6q-8 0 -11 1q-2 1 -6 2q-2 0 -6 -3q-25 9 -100 34q-1 0 -1 1v5q-8 3 -8 7t2 7q2 2 5 2h2v12v9q-1 4 0 6q-6 1 -12 5q-6 3 -7 8q-1 1 -1 3q1 6 3 13q4 9 5 10q6 2 11 2q3 0 5 -1l36 135q-2 16 -4 28l-4 21t-3 13l-5 5q-3 4 -5 7
q-3 3 -7 8l46 49h7z" />
    <glyph glyph-name="f" unicode="f" horiz-adv-x="624" 
d="M459 402h8q4 0 9 1h9h36q13 0 28 1q2 2 6 0l6 -3q3 -2 6 -8q-1 1 0 -1q0 -2 -2 -1q-2 0 4 -3q6 -4 5 -10q0 -1 3 -5q2 -4 2 -6l1 -3t1 -6v-2q0 -2 -1 -4q-1 -4 -8 -6q-14 -4 -27 -5l-16 -2q-1 2 -3 5q-1 0 -5 -1q0 -1 1 -3q-1 0 -4 -1q-1 1 -3 5q-1 0 -6 -1q0 -1 1 -4h-3
l-1 2q0 -1 -1 -2q-2 -2 -3 -1q-2 1 -2 4q-2 2 -4 3t-4 1q-3 0 -5 2q-1 0 -1 2q0 1 -1 1v4q-2 1 -8 3q0 -2 -1 -4q-2 -4 -7 -6q-1 0 -3 -9q-1 -8 -5 -21q-4 -11 -11 -22q-7 -10 -18 -15q-1 0 -1 -7q0 -3 -1 -6v-4v-4q0 -3 -2 -5q-1 0 -1 -3t-1 -6q-1 -4 -1 -9l2 -10
q2 -11 -2 -25q0 -1 -1 -1q0 -1 -1 -1v-1l-2 -4q-5 -45 -19 -180q1 -1 2 -3q2 -2 3 -4t3 -5q0 1 4 1q5 0 12 -11q3 -2 10 -5h4q5 0 5 -5q0 -1 1 -6q0 -5 -4 -4q-2 0 -5 3q-1 1 -1 4q-3 1 -8 3q-1 -1 -3 -2q-4 -3 -10 1q0 1 -4 -10q-3 -10 -16 -16q1 0 1 -6q-1 -5 -1 -12
q-1 -9 -1 -18q-3 -6 -7 -9q-4 -2 -11 -2q-6 0 -17 6q-10 8 -23 24q-7 7 -14 16v3q0 3 2 5l-3 1q-4 0 -7 2q-2 2 -2 7q-1 5 4 14q-1 1 -2 1t-1 1v1q0 3 2 7q-1 7 -4 22q-2 11 -3 22q-1 0 -2 1q-1 0 -1 2v2v1v2q-1 0 0 2q0 1 1 2l-4 20q-11 -3 -22 0q-11 2 -21 9q-11 7 -21 23
q-11 17 -22 40q-12 24 -22 51q-11 26 -17 55t-6 55q0 6 -1 18q-20 -1 -37 -1h-27q-13 1 -17 3q0 -1 -3 -1h-3q-5 2 -21 9q-2 -1 -9 -2l-4 8q-1 0 -3 1l-4 2l-1 1q-2 1 -4 4q-4 6 -3 11q-1 2 -1 6v2q0 1 2 5q-1 1 -2 4l4 4q-2 2 -1 4q0 2 9 4q5 0 24 1q19 0 40 1q24 1 54 2
q2 -1 4 -3q4 -4 4 -8q0 -1 5 -1q4 1 9 1q6 0 15 1q2 2 4 2q3 0 7 -4q0 -1 1 -2h15v1t3 1l-1 2q0 1 -1 2l-4 2q0 -1 1 3q0 4 1 9q1 4 2 13l-4 4q-7 -4 -28 -15l-14 7q0 -1 -1 -4q-2 1 -9 4q1 13 4 25q2 11 6 22q3 10 11 18q8 18 19 37q10 15 25 32t37 29h1q8 4 16 9
q14 7 27 7q12 -1 27 -6q14 -6 23 -12l1 -1t2 -1q19 -13 35 -34q13 -17 25 -44q11 -27 15 -66q3 -1 6 -4q6 -6 7 -16z" />
    <glyph glyph-name="g" unicode="g" horiz-adv-x="663" 
d="M453 336q0 -1 9 -2q10 0 21 -2q14 -2 30 -4l42 -33q0 -10 1 -39l-37 -34l95 -77q0 -1 -2 -4q2 -1 6 -5q-2 -4 -9 -15l-59 33q-1 -5 -5 -18q-3 0 -9 -2q-2 2 -9 6q-3 -1 -12 -6l21 -16v-12l34 -26q5 0 11 -3q11 -5 19 -16l25 -32q1 -1 1 -3q0 -4 -1 -6q-3 -2 -6 -2t-9 4
q-3 2 -8 4q-6 3 -11 6q-6 4 -13 7q-2 2 -6 5l-5 5t-5 6t-7 8q-5 6 -10 11l-14 12q-8 -1 -25 -4l-24 20v-3t4 -6q2 -2 7 -6l10 -8t11 -10l22 -12q7 -10 30 -40q1 -1 2 -4q2 -4 -2 -6q-3 -1 -5 -1h-1q-3 1 -5 2q-1 0 -5 3q-4 2 -9 5q-6 4 -14 8q-4 1 -8 5q-9 7 -14 17
q-6 9 -18 19q-5 4 -12 9l-23 -3q-11 8 -41 33h-3q-1 0 -2 1q-2 0 0 0l-38 33q-7 -1 -11 -1q-4 -1 -7 -1t-2 0q-2 0 -5 -2q-5 4 -18 17q-1 2 -2 8q-3 2 -12 10q-1 0 -7 -1q-4 4 -15 14l-168 -157l-89 92q-2 0 -3 3q-2 2 -2 5q0 4 2 9q1 5 3 16q3 10 5 19q2 10 4 17l2 7
q-1 -3 0 0t6 8q1 1 7 6q6 6 15 14t19 19q10 10 22 20q25 25 57 53q-17 9 -52 26q-3 1 -5 3l-4 4t-2 7v9q-1 5 -1 8v7q3 1 11 5q1 3 4 7q5 6 14 9q5 2 9 2q3 -1 5 -1q4 -1 5 -1q9 5 29 14v5t3 9l2 4t3 4q3 2 4 4q0 1 2 2q3 3 9 4q5 0 15 2q4 1 8 3q2 3 4 10q7 1 25 4
q-1 6 0 10q0 10 7 10l8 -4q3 -2 8 -4q2 -2 6 -7q1 0 6 1h2q1 0 6 -3q2 -2 10 -8l17 -14q11 -8 23 -18l24 -3l7 -7q0 -4 1 -15q3 -2 12 -11q2 -2 5 -10z" />
    <glyph glyph-name="h" unicode="h" horiz-adv-x="743" 
d="M703 105q1 -1 1 -2q0 -2 -4 -4q-5 -4 -10 -4q-8 0 -27 5t-41 12l-45 12q-22 7 -37 11q-30 8 -59 19q-28 11 -44 16q-8 2 -18 6q-10 3 -21 7l-23 8q-2 0 -6 -1q-1 1 -4 3l-14 -7l28 -12q3 2 11 -2q4 -2 5 -3t3 -2q2 -4 1 -5q0 -1 -2 -2h-1q-3 0 -4 1q-3 -1 -11 2
q-2 1 -3 2q0 1 -1 2t-1 2l-32 12q-1 0 -6 -2q-6 3 -25 11q-1 -1 -1 -2q-1 -1 -2 -1q-2 0 -5 4q-4 5 -5 7q-6 0 -11 7q-3 5 0 10q3 4 4 6t9 3q7 1 10 2q3 0 5 4q1 2 1 3q-9 1 -17 5l-14 4t-9 4q-6 2 -7 5q-1 1 0 3q-8 2 -15 5q-6 2 -11 4q-5 1 -7 2q-6 1 -2 6q1 1 -2 3
q-1 1 -2 1q-2 -1 -5 -1h-2q-1 -1 -2 -1h-2q-1 -1 -4 -1h-2v-6v-5q3 0 5 -2q1 0 1 -1q-1 0 -6 -2q-2 -1 -6 -2q-3 -1 -6 -1q-7 -1 -13 0q-6 2 -10 4q-6 2 -7 2h-4h-11l-12 -4q2 -1 6 -2q10 -5 10 -10q0 -3 -1 -4q9 -7 18 -12q7 -5 14 -8q7 -4 9 -5q4 -2 5 -4t0 -2t-7 3
q-5 3 -13 7q-6 4 -11 8q-6 3 -7 3q-3 2 -4 1l-3 -3q-1 0 -5 -2t-10 -4l-8 -4t-5 -3t2 -4q3 -2 7 -5l10 -6l6 -3q1 -1 1 -3v-2q-1 -1 -1 0l-13 9q-5 3 -9 6q-5 4 -7 6q-4 2 -5 1l-2 -2l3 -4l9 -7l10 -8t6 -5v-2q-1 0 -1 -1l-31 26l-2 -2q-2 -2 -19 -9q-8 -4 -17 -9l9 -11
t8 -9q3 -4 5 -6q7 -7 3 -7q-1 0 -5 5q-5 5 -10 11l-10 12l-6 6q-3 3 -4 2q-1 0 -6 3q-3 2 -7 6l-10 10q-5 6 -9 10q-3 4 -4 6q-2 3 -2 5v1l2 6q0 1 4 3q4 3 9 5q6 3 12 5l9 3q5 0 9 4l3 3q8 2 15 5l12 4q5 1 7 2q3 0 11 -5q4 -3 9 -5q2 1 4 1q0 1 -1 3q2 1 8 2v9q0 3 1 5v5
q1 2 10 2h12q2 -1 -4 3q-3 2 -7 4q-8 12 -15 24q-5 9 -10 17q-6 8 -8 11t-4 12t-4 19q-1 10 -3 19q-1 9 -1 11q0 3 6 5q3 1 7 2q4 -1 11 -1h3q5 0 18 -1q0 -1 2 -2h5q2 -1 3 -1q2 0 4 -1t4 -1q4 -11 10 -33l8 -23q3 -11 3 -12q0 -2 10 2q4 1 11 3q5 -1 13 -3q-2 5 -8 22v7
q-1 1 -3 6q1 9 5 35q2 1 5 5v2l3 5q18 -2 30 -4t21 -4t14 -4q2 -1 5 -2q0 -21 -2 -81q17 -4 32 -7q12 -2 23 -5t15 -3q15 0 23 -1q7 -1 10 -2q5 -1 5 -2l2 -2q2 -1 3 -1t2 -1l1 -1q4 -1 17 -4q1 -1 3 -4l40 -13q16 -5 29 -11q13 -5 15 -6q3 -1 8 -1q2 0 2 1q18 -8 34 -16
l29 -14t23 -12q19 -9 25 -15q4 -4 5 -6l56 -101v0z" />
    <glyph glyph-name="i" unicode="i" horiz-adv-x="710" 
d="M298 462q35 -2 70 -3q34 -1 69 -3q0 -2 1 -5v-5h3v1q2 -1 6 -6h2v3q1 0 1 1h1l65 -54l65 -54q2 0 3 -1h4q11 -2 18 -7q3 -3 5 -7v-8v-10t-1 -10q-1 -4 -2 -5q-4 -7 -16 -10q-11 -3 -23 1q-3 1 -7 3q-4 3 -5 3q-10 -4 -14 -6l4 -3l9 -7q6 -4 13 -8q6 -5 11 -8q4 -2 11 -7
q7 -4 8 -8v-11q1 -1 6 -2q4 -2 4 -3l4 -6q1 -4 4 -6q9 -6 12 -9q3 -1 7 -3q4 -3 7 -7t7 -8q5 -4 14 -13v-1q5 -4 8 -8q4 -3 8 -7q1 -2 1 -6v-5q-1 -8 -2 -10q-2 -2 -3 -2q-7 0 -14 3q-7 2 -13 4q-14 5 -27 9q-14 4 -26 9q-6 2 -13 5q-8 4 -10 9q1 0 1 1h1v7l-6 -2
q-3 -2 -6 -3q-5 0 -13 5l-11 7l-31 17q-14 8 -30 16q-23 -9 -45 -19q2 -2 10 -9t9 -9q-1 -4 -1 -7v-7q3 1 5 1l6 2q5 -5 10 -9q4 -3 9 -8q8 -12 18 -22q9 -11 17 -22q7 -10 13 -17q7 -8 3 -25q-2 -1 -5 -1q-6 0 -10 3q-6 4 -13 7q-18 8 -34 17q-16 8 -31 20q-9 -2 -14 3
q-12 -4 -22 4t-17 13q-15 11 -30 24l-29 24q-5 4 -14 14q-8 9 -13 11q-7 -5 -17 -3q1 -2 3 -4q7 2 9 -6q3 -9 0 -14q-5 -2 -9 -4q-3 -2 -8 -4q3 -10 0 -17q-4 -8 -11 -12q-6 -3 -15 -4t-18 1q-6 2 -11 5t-7 10q-1 2 -1 4t-1 4l-184 110v16h2q0 11 5 24q2 10 6 28q2 6 6 25
q2 3 5 4q3 2 5 7h7v-1q3 -7 2 -25v-27q0 -5 -1 -9q0 -4 1 -6l1 -1q2 1 7 1h12h13q7 -1 10 -2v-2q2 2 12 1q11 -1 14 -2h11q16 -11 32 -25q17 -14 32 -25l10 -8l9 -7q2 -1 1 -2q-1 0 1 -1q1 0 1 1q0 -12 -1 -20q-2 -8 -2 -17q11 3 23 2l-1 1q-2 4 -5 7q-3 4 -5 8q-2 8 0 13
q3 6 9 5q-2 4 0 8q3 5 5 8l-9 9t-8 9q-2 0 -4 1h-4l-4 6t-4 5l-14 16l-13 17q-6 6 -9 11q-4 6 -9 11q-1 17 -1 34t-1 35q1 3 5 5q4 3 6 5q1 -1 3 -1q4 3 9 4q6 2 11 0q4 2 8 3q3 1 8 2v4q3 2 11 5q7 3 12 2l83 -40q6 -3 17 -7q10 -4 12 -11q18 -8 34 -17l32 -16q8 -5 16 -9
q8 -3 19 -3q-1 4 -3 7l-2 6q-4 9 -7 21q-5 8 -8 15t-3 18q-4 2 -5 3v-1q-35 10 -69 18l-69 18q-3 3 -2 13q1 9 3 12z" />
    <glyph glyph-name="k" unicode="k" horiz-adv-x="726" 
d="M561 344v-2q6 -4 6 -13l-1 -1q-1 0 -2 -1q-7 0 -11 2q-3 3 -7 6l-4 2q-1 2 -4 3q-1 -1 -7 -1q-4 -2 -8 -3q-5 0 -10 -1q-2 -1 -4 -1q-1 0 -3 -1h1q3 -2 7 -3q3 0 6 -2q5 -4 11 -5q0 3 8 3q4 -7 11 -10q1 -2 2 -2q1 -1 2 -3q4 -3 8 -5q3 -3 6 -7q0 -2 1 -5v-5q2 -1 5 -3
q4 -2 5 -4q1 -1 1 -4q3 -4 6 -6l6 -6q4 0 6 -1q2 -2 2 -3v-1q-2 -2 -5 -2q-3 -1 -5 -2q-6 -2 -9 -2q-6 -2 -8 1l-5 5q-4 3 -7 7q-4 3 -8 5l-3 3q0 2 -2 3h-3q-1 1 -3 1t-3 1q-1 2 -3 2h-5q-7 2 -10 6q-2 -7 -8 -5t-9 6q-8 -4 -11 1q-4 6 -9 8q-2 -2 -7 -2q-5 1 -7 2
q-6 3 -10 7q-3 3 -8 7q-2 2 -4 5t-6 3q-4 -3 -9 -4t-9 -3q-2 -1 -5 -1q-2 0 -3 -2q3 -2 5 -5l6 -6v1q-1 1 -1 5q2 2 4 2l4 -4q1 -3 2 -5v-1q-1 0 -1 -1q1 -2 3 -7l2 -2q1 0 2 -1v-2q1 -2 2 -2t2 -1l4 -4t5 -2q2 3 5 5q4 3 8 1q3 0 4 -1t6 -1q1 -1 4 -5q3 -3 5 -4v7h6h2
q2 -2 2 -3q1 -2 2 -3q4 -2 7 -3l9 -6q3 -2 7 -6q4 -5 6 -8q2 -2 6 -5l12 -16t10 -17v-4q2 0 2 -2t1 -4q0 -1 1 -2t1 -3q1 -1 -1 -7l-4 -8q-3 -6 -9 -11q-5 -5 -11 -9q-2 -2 -9 -4q0 -1 -1 -1l-1 -1h-2q-1 1 -2 -1q1 0 1 -1h2h1q1 -2 3 -2q1 0 2 -3q1 -2 2 -3q0 -2 2 -4v-2
l4 -4v-3q1 -1 1 -2q1 -1 3 -2q2 -2 3 -4l3 -3l1 -1q1 1 1 -1q3 -2 3 -6q-1 -1 -3 -1q-1 1 -2 1v-1q-1 -1 -3 -1q-1 1 -3 1l-2 2v2q-2 1 -4 3l-4 4l-4 4t-2 3q-1 1 -3 1q-1 -1 -1 0q-1 0 -2 -1q-2 -2 -1 -5q0 -3 -2 -5q-1 -2 -2 -2q-1 1 -3 0t-3 -4q-1 -2 -3 -3q-2 -2 -8 -3
q-5 0 -9 1q-2 2 -5 2q2 -2 4 -5q1 -2 4 -4l1 -1q1 0 2 -1q1 -2 1 -3q0 -2 1 -4q-1 -1 -3 -1q-1 1 -2 1q0 -2 -1 -1q-1 0 -1 -1h-1q-4 2 -5 4q-2 2 -4 5l-6 6q-2 6 -6 7h-1l-1 1v2q-1 1 -2 1t-2 1v3h-2q-2 2 -3 8q0 5 2 7q2 1 8 3q0 -3 4 -5q0 2 1 4v3q-41 0 -65 17
q-3 2 -4 4q-10 7 -15 17l-13 22q-1 3 -3 6q-1 3 -3 5v4q-1 2 -3 3q-1 0 -2 2q-2 1 -3 4q-2 3 -4 4h-2t-2 2l-2 2q0 3 1 4v3q1 1 7 1v-1q2 -1 3 -3q0 -1 3 -1h1l-1 1l4 2q3 1 5 2q2 0 2 -1h2h4q0 7 1 9q1 3 3 7q-1 1 -3 5q-2 3 -3 5v2q-1 1 -5 6t-5 5q-1 -3 -4 -5
q-4 -2 -6 -1t-7 9q-6 7 -8 9q-2 1 -2 2t-1 2q-2 -2 -6 -3q-3 0 -5 -1q6 -8 3 -19q-5 -16 -22 -19q-6 -2 -10 0t-9 3v-8l2 -2q2 -2 2 -9q-2 -3 -4 -4q-1 -2 -5 -2q-3 0 -4 1q-5 4 -8 11h-1q-2 -2 0 -7q3 -4 4 -5q2 -2 2 -8l-4 -4t-7 -2l-1 1q-1 0 -2 1q-2 2 -4 5l-4 6l-1 -1
q-3 -1 -3 -8q2 -3 3 -7q0 -5 -1 -8q-1 -1 -4 -1q-2 2 -4 2q-1 0 -3 2q-2 1 -3 3q0 2 -2 4v-2q1 -2 0 -3v-3q2 -2 2 -4q1 -3 0 -5v-5q-1 0 -1 -1h-2q-2 2 -5 2q-3 1 -5 3t-2 4q-1 3 -4 4l-6 -6q-5 -3 -7 -5l1 -2q0 -4 1 -6q0 -2 1 -3t2 -3h1q1 -2 3 -2q1 -1 2 -3q3 -5 5 -10
q2 -4 7 -8v-2q0 -2 -1 -2q-2 -2 -11 -5q-10 -3 -13 -3q-1 2 -2 2t-2 3q-2 3 -3 5q-1 3 -3 6q-1 2 -2 3t-2 3v2q0 2 -5 8l-2 2q-1 0 -2 2t-3 7q-3 5 -4 7q1 2 1 6q4 0 7 1q2 2 7 2q-1 3 -5 6q-2 5 -5 10t-3 11q2 0 5 1q2 1 3 0q1 0 2 -2q5 7 9 9h1v2q2 2 4 3q2 2 3 4l-2 2
q0 1 -1 2q-3 -2 -8 -3q-4 -1 -9 -2q-3 -2 -6 -3q-4 0 -7 -2h-2t-1 1l-1 -2q-2 -1 -4 -1q-1 0 -2 -1q-8 -2 -13 -4q2 -5 3 -9q1 -5 -1 -10q-3 -3 -4 -3q-7 -2 -11 5q-5 7 -7 11q-4 -2 -10 -4t-10 -1v-2q-6 0 -14 -4q-5 -2 -9 -2q-4 -1 -9 -3q-3 -2 -7 -2q-3 0 -5 -2
q-1 0 -1 -1q2 -2 1 -5q0 -3 1 -6q2 -5 5 -11t0 -14q-1 -3 -5 -7q-6 0 -8 1l-6 4q-4 2 -5 7t-3 10q-5 10 -9 19q-4 10 -7 20v4q-2 3 -2 6q0 1 1 2l1 1q0 2 -1 3q0 5 4 7q2 2 5 0t3 -4h1v2q-2 2 -4 7q-2 6 -3 8t-1 4q1 1 0 3h1q0 1 1 1h1l1 -1h1v1v1q6 1 11 6q5 2 10 3
q6 2 11 4q2 1 5 3q4 2 5 1t2 -1v2q4 1 7 2q3 2 7 4l25 9q1 0 3 1l4 2t6 2l1 -1l1 1q-1 0 1 1q2 2 6 3q3 0 7 2q12 5 26 12q1 0 7 2q3 1 5 2l1 -1v2q8 1 18 6q10 6 15 4v2q2 2 5 2q2 0 4 2q-4 3 -3 8t3 9q0 1 6 3v1q1 2 2 1t3 0q1 0 1 1t2 0q5 -1 7 -4q3 -2 7 -4q0 -2 2 -2
q1 0 3 -1q1 -1 1 0t2 0q1 0 2 1q1 2 2 2h1q2 1 2 2t3 -1q2 2 7 5t7 1v2q3 0 5 1q3 2 5 3q3 1 8 2q4 1 8 3q3 1 6 1t4 2q-2 2 -3 4q0 2 -2 4h-2t-7 4q-5 3 -5 4v7q-2 2 -2 6l2 1q-3 3 -3 8q-1 6 2 10q1 1 2 1q0 -1 1 0v2q1 0 4 1t6 1q2 -1 3 -2q2 -2 4 -3q3 -1 4 0q2 0 4 -2
q2 -1 3 -2q1 -2 3 -3q2 0 4 1t3 0q2 -1 3 -4q0 -2 2 -4q1 -1 2 -1q0 1 1 0t3 -5q4 -2 7 -5q3 -4 6 -7q2 -2 2 -5t3 -4q2 1 6 1h5q-1 5 5 10q5 6 11 4q4 -1 7 -4l6 -4q4 0 6 -1l6 -3q47 4 189 15q5 -3 10 -8q5 -3 9 -7t8 -6q4 3 10 3q1 -2 3 -2q3 -1 5 -3q8 -6 12 -8
q2 -2 3 -2t3 -2t3 -7q0 -4 1 -9q5 -2 10 -7q3 -3 3 -9q0 -2 -1 -4q-3 -1 -7 -2q-5 0 -8 2q-4 1 -8 4q-3 3 -6 5q-4 4 -10 7q-6 2 -10 7q-3 -1 -6 -1q-4 -1 -6 -2q-5 -2 -10 -2q-4 0 -10 -2q-1 -1 -1 -2q5 -3 7 -10q-1 0 -1 -2q-2 -1 -3 -2q-2 -1 -5 -1q-2 1 -3 1t-3 1
q-2 2 -7 6q-5 3 -7 5q-4 -2 -8 -2q-3 0 -8 -1q-5 -2 -9 -2q-4 -1 -9 -2z" />
    <glyph glyph-name="l" unicode="l" horiz-adv-x="638" 
d="M602 138q-2 1 -8 3q0 -1 2 -5q-6 -1 -26 -5q-1 1 -4 5q-2 0 -7 -2q-15 4 -60 18l84 -144q-1 -1 -3 -6q-20 4 -77 17l-147 138q-2 -8 -9 -32q-1 -3 -3 -10l-115 -84q-21 -17 -43 -32l-39 -28l-29 -22l-15 -10q-9 -9 -16 -9q-4 0 -5 2q-7 5 -14 9t-13 7l-12 7q-5 2 -5 6
q1 2 2 5q2 4 6 7l176 172q1 9 3 36q-2 2 -10 7q-6 12 -6 18q1 6 4 10q4 4 10 7q11 1 33 1q1 6 2 13l2 10v10q0 5 6 7q3 1 7 1l-3 18q2 0 5 1v6h-18v11l45 245l31 6q12 2 23 5q11 2 15 3h3q3 0 6 -1q2 -1 3 -2l50 -92q9 -18 19 -35q10 -18 17 -33l14 -24q5 -11 7 -14
q5 -7 7 -12q3 -5 5 -9t4 -9q-11 -16 -34 -47h-19l-6 -6h-36l-4 -4q6 -3 27 -15q6 0 24 -2h7q0 -1 1 -2l3 -3q7 3 16 -1q4 -2 9 -4q5 -5 17 -14l44 -33l18 -15t21 -17q9 -8 12 -12q2 -3 3 -6z" />
    <glyph glyph-name="m" unicode="m" horiz-adv-x="718" 
d="M62 390l34 23q13 6 49 24q0 2 -3 8q2 1 8 2q1 2 6 5q4 0 7 1h4q2 1 1 1q3 1 8 1l10 2t10 1h4q2 2 5 2q4 1 9 2t12 1q12 4 18 5q7 1 12 1t9 -1q9 0 17 1q6 0 12 1h8q9 2 24 3q14 1 20 0q3 -1 8 -1h11h13h17l23 -2q12 -1 27 -3l2 2l2 2q-1 1 -2 5v2h9v-2q-1 0 -1 -2
q0 -1 1 -4l2 -2v-2q8 0 18 -3q9 -2 18 -5q10 -4 19 -8q25 0 75 1q6 -5 25 -19v-4q3 -1 5 -1q3 -1 6 -1q13 -11 15 -22q1 -6 0 -12q3 -1 7 -2q2 -1 5 -1h2q12 -11 15 -21t3 -18q0 -9 -3 -17q5 -6 16 -17q0 -3 1 -13q-2 -1 -7 -3v-7q-1 -1 -4 -2v-28q3 -3 3 -5v-3q-1 -1 -2 -4
q2 -17 7 -68q1 1 5 1q-1 -5 -3 -20q1 -16 3 -64h-6q-1 -5 -2 -20q-15 -2 -59 -6q-3 3 -9 14q-3 5 -5 10q-3 5 -4 7q-1 1 -4 5q-3 3 -7 5t-10 6q-10 14 -37 58v5h3v7l-16 27q-5 0 -20 -2q4 -8 16 -34q-3 -2 -12 -9q-18 -2 -71 -7l31 -44q-1 -2 -4 -7l6 -3q3 -7 10 -25v-19
q-1 -1 -4 -5q1 -1 3 -4q0 -2 -3 -10q-1 -1 -7 -3q-1 -2 -1 -3l-2 -3q-2 0 -3 3q-1 1 -1 3q-12 -1 -37 -4q-1 -2 -2 -3l-2 -2q-1 0 -3 2q-1 1 -2 3q-2 0 -5 -1l-178 136q-1 0 -3 1q-4 0 -8 2q-2 1 -3 3t-1 4v4q-2 3 -5 5q-6 4 -7 4l-2 -2q-1 -1 -1 -2l-12 9q-1 2 -2 9
q-5 3 -8 6q-7 5 -7 6q-5 0 -7 1q-3 0 -5 1q-3 1 -4 3h-7l-3 3q-3 1 -11 4v5q-2 1 -9 7l-10 -12t-11 -12q-5 -7 -11 -12q-13 -8 -23 -8q-9 0 -15 3q-9 4 -14 10q-4 6 -12 17l-9 11q-4 6 -5 8q-2 5 -2 10q0 6 2 14q1 7 4 15q1 4 4 11q0 7 1 11v8q1 3 1 2q2 8 6 13q5 6 10 9
q5 4 12 4q0 12 -2 35q1 1 1 3z" />
    <glyph glyph-name="n" unicode="n" horiz-adv-x="584" 
d="M488 350v-8q1 -1 4 -3q2 -3 1 -4q-4 -3 -5 -3h-1q0 -2 -3 -6q-1 -1 -7 -1q-1 1 -4 7q-1 3 -3 11q-2 1 -6 4q-8 -1 -31 -3q-3 -20 -13 -80l21 -16q9 -7 15 -16q7 -8 9 -16q6 -4 11 -9t10 -12q6 -7 11 -16l12 -28q2 -6 5 -10q4 -7 6 -17q0 -5 2 -7t4 -7q2 -6 4 -16t2 -29
q0 -23 -3 -27q-2 -3 -3 -3q0 -10 -2 -19q-2 -7 -5 -13q-4 -7 -11 -10q-14 -5 -23 -7q-2 -1 -5 -1q-6 0 -14 3q-11 3 -22 8t-13 28l-36 18l-24 13q-12 5 -12 6h-4q-3 -1 -7 -1q-4 -1 -10 -1h-3q-4 0 -8 4q-3 3 -12 11l-7 7q-2 0 -8 2q-3 2 -12 7q-13 1 -51 3q-1 0 -4 1
q-2 1 -3 2q-2 0 -4 2q-4 5 -7 10q-4 5 1 6q3 0 9 1q7 1 13 2q7 1 15 2q-1 1 -3 4q0 1 1 3q-1 0 -3 2v4l2 1q-1 1 -2 3q-3 6 -3 10q0 10 13 14q1 0 2 1q-1 16 -4 32q-2 13 -6 27q-3 14 -7 26q-18 11 -33 22l-26 23q-13 13 -18 26h-3q-2 -1 -4 -1q-3 -1 -7 -1l-12 -29l-12 4
l-23 20q-4 2 -14 5l-7 7q1 1 2 7l-65 64q6 19 25 74q4 -1 15 -3q2 -2 10 -7q1 -1 4 -2q4 -2 9 -2q1 0 15 1t35 3q22 2 48 4q27 2 55 5q64 5 146 13q-1 4 -2 11q3 2 12 7l79 -55h7q3 0 6 -2t5 -4q3 -3 5 -9l30 -23q6 -17 21 -70q-4 -1 -14 -5q-8 5 -32 22q-4 0 -16 -1z
M445 391l-1 2v1q-11 8 -19 15l-14 9q-5 5 -5 6q-2 0 -3 5q-1 4 -3 9q-2 6 -4 14q-95 -9 -284 -25q3 -4 14 -17q2 -2 8 -6q3 -3 13 -12q1 -1 1 -4q1 0 2 -2q1 0 4 1q1 -1 7 -6l1 1v1q1 1 1 3t2 1t4 2q2 2 3 1q1 -2 3 0q0 1 4 1q1 -1 2 -1q1 1 4 1q1 0 2 -1q3 -1 9 -4
q1 0 3 -1q4 -2 7 -1h8t7 -1q4 -1 6 -2q9 -5 26 -13q0 1 1 4q1 0 4 1l-1 2q-2 1 0 3q0 1 1 1v3q-1 1 1 3l1 1l1 1q0 4 1 4h2v1t1 3q0 1 3 1h2q1 4 4 4q1 0 4 -1q0 1 4 1q1 -1 2 -1q1 1 4 1q1 0 1 -1q3 -2 7 -3l2 -1q1 0 3 -1q1 -1 3 -1q6 1 12 1q6 -1 11 -2t9 -3q5 -3 16 -9
q15 1 61 5q2 7 4 8q3 1 7 1q3 0 9 -4q3 -2 5 -3q1 1 3 2z" />
    <glyph glyph-name="o" unicode="o" horiz-adv-x="682" 
d="M230 231q3 -3 3 -5q9 4 17 7l16 8v5l72 37q-4 5 -15 20q-1 0 -4 -1q0 1 -3 3l-66 -34q-28 -11 -113 -47q1 -2 5 -9q1 -2 2 -5q2 -6 1 -11l2 -2q3 -2 4 -2q1 -2 2 -2t1 3q-1 1 0 1t1 1l24 10q11 5 24 10q4 2 6 0h1v4q0 2 -1 7q2 1 9 2q1 0 3 -2q2 1 9 2zM439 146
q-1 -1 -3 -1q-10 -2 -19 -3q-9 -2 -20 -4q-10 -2 -20 -3q-9 -2 -20 -4l-22 -4l-23 -4t-24 -5l-24 -4q-8 -2 -16 -3t-17 -3q-4 0 -12 -3q0 -1 1 -1v-2q2 -5 5 -9l4 -10q1 -1 1 -2q2 -4 -1 -6q-1 -1 -1 -2l-2 -2q-2 -2 -3 -4t-2 -5q-4 -10 -15 -16q-1 -2 -5 -4v-3l-4 -2
q-1 -1 -3 -2l-3 2q-4 0 -12 -2h-7q-4 1 -8 4q-1 1 -2 1h-11q-1 0 -3 2q-3 6 -15 25q-1 2 -2 2l-2 2l-9 9t-6 15q0 1 -1 2v1q-4 6 -4 11q0 2 -1 3v3q0 1 -1 1q-1 1 -1 2q-2 8 4 13q-1 0 -1 2q-3 3 -7 11q-1 1 -1 2q-4 7 -4 10v10v5q-4 2 -5 2q-6 4 -8 8q-3 5 -5 7q-1 1 -1 2
l-1 1h-1q-4 0 -5 4q-2 3 -3 5q-1 3 -3 6q-3 3 -5 2h-5l-1 2l-24 46v2q-2 2 -2 4t2 4q1 1 1 2l2 2q0 3 1 5q2 3 2 6l1 1q1 0 3 3q7 7 15 12h1q0 1 1 1v3q-1 0 -1 2q2 2 4 2t5 2q2 -4 2 -5q4 1 7 2h6q3 1 6 1q2 -1 5 -1h4t3 -1l3 -3q3 -3 5 -4q5 -3 9 -11l2 -4q2 2 3 2
q2 0 4 1l15 6q6 -6 11 -9q2 1 3 1l4 2t5 0q3 0 7 2q2 1 4 1l4 2q1 1 2 1l1 2q0 2 2 2q3 2 6 2q3 1 7 3l4 2q3 1 5 2t5 0q3 0 4 1q2 1 5 2l4 2q3 0 3 2q2 4 4 4q3 1 8 3q3 0 5 1q4 4 7 6l8 6q2 3 5 3q2 1 4 3q12 3 21 9q-2 3 -2 7t-1 8q-1 2 -1 4q0 1 -2 3t-2 5v5t1 3
q-2 2 -2 5t-2 6l2 2q3 2 3 8q-1 3 -1 10q0 2 1 4q2 4 4 6t3 2q5 2 11 5l12 4q2 0 2 1q1 2 3 2q1 0 3 1l5 2h3t3 1l2 1q5 2 9 3t8 3q1 0 2 1h1q5 6 17 8q4 0 7 1q2 1 5 2l6 2q5 2 5 3t2 1q4 2 6 2q2 2 4 1q2 0 3 1l10 4q6 1 11 3q1 0 2 1q3 -2 6 -5l5 -5q3 -3 6 -3q9 1 16 1
h16q10 -2 20 -3t19 -4l8 -2q3 -1 9 -2q0 -1 2 -1q5 5 9 10q5 5 11 9q6 0 11 -3q2 -2 4 -2t5 -2q4 -2 7 -4q3 -1 7 -3q8 -4 15 -10l12 -10q5 -2 11 -8q1 -1 1 -3q0 -16 -3 -35q-1 -1 1 -3q5 -6 8 -13q4 -6 8 -15l2 -4q0 -2 1 -4q2 -4 4 -14q4 -13 3 -24q0 -7 -1 -13
q-2 -8 -2 -13q-1 -3 -1 -7q-1 -3 -2 -7q-4 -20 -17 -40q-3 -5 -7 -9q-3 -4 -8 -9q-6 -7 -13 -13t-15 -12q-28 -19 -62 -28q-19 -6 -42 -9q-6 -1 -11 -2q-6 0 -12 -2q-5 -2 -10 -2l-10 -2h-2z" />
    <glyph glyph-name="p" unicode="p" horiz-adv-x="705" 
d="M323 425q30 -1 119 -3l75 -55l4 40q2 0 6 1q2 -3 5 -11q1 1 2 3q1 1 6 1l5 -10q1 2 5 7q16 -10 29 -17l20 -11q8 -5 9 -5q1 -1 4 -5q3 -3 11 -3q1 -3 5 -10q18 -17 29 -38q11 -17 16 -40q3 -9 3 -19q0 -15 -5 -31q-8 -26 -24 -49q-15 -23 -42 -43q-25 -19 -66 -35
q-40 -16 -100 -29l-1 -2q-9 -1 -38 -7q-2 2 -10 7q-69 -3 -133 11q-28 6 -57 16q-29 9 -58 25q-27 16 -53 39q-27 22 -47 53v4q2 -1 7 -3q0 1 1 3q-2 3 -8 13v3q4 -1 14 -5v14q-8 10 -15 17l-11 11l-5 5h1v16l24 41q5 1 20 7l29 -25q1 1 1 2l-27 26v7q0 -1 2 1q1 1 2 1
q-1 1 -3 4q-1 2 -1 7q4 2 17 5q1 1 2 5q1 3 6 6q0 2 1 4q2 3 9 5v22v22v3q0 3 4 6q2 2 5 0l4 -4v0q1 1 1 3t1 3t3 2h4q2 -1 5 -4q1 3 1 7q1 1 3 1q3 0 6 -1q2 -2 6 -5q4 -4 8 -7q4 -4 9 -8q-1 -4 -1 -8v-10l2 -2q1 -1 2 -1q2 1 5 2l2 2q6 2 11 5q12 4 18 1q12 -6 19 -15
q4 -4 5 -9q4 -6 11 -18q-1 -2 -3 -9l64 -54q1 -1 5 -3q3 -4 13 -16q0 -3 2 -10l22 -18q3 0 11 -1l25 -13l81 28l-24 20q0 1 -1 5l-134 107q0 5 1 17q5 1 19 6z" />
    <glyph glyph-name="q" unicode="q" horiz-adv-x="705" 
d="M621 165q-1 -1 -4 -5q9 -8 13 -19q5 -11 5 -23q0 -10 -3 -18l22 -12q1 -2 1 -3q0 -3 -1 -5q-3 -5 -4 -5q-1 -1 -2 0q-7 3 -21 10q-9 -14 -24 -23t-34 -9q-20 0 -37 12q-16 12 -23 30q-3 0 -8 -1q1 -5 1 -8v-6q0 -28 -19 -47q-19 -20 -46 -20q-14 0 -26 6q-13 7 -22 17
q-5 -5 -12 -11t-15 -12q-7 -5 -12 -9q-6 -5 -9 -8q-4 -4 -8 -6q-3 -2 -5 -4q-3 -2 -5 -3q-2 0 -5 2q-5 3 -6 4q-2 2 -1 5t3 6q2 4 5 8l46 49v14q-21 19 -82 79q-21 10 -33 22q-12 11 -19 22t-10 22q-3 -1 -8 -3l-81 -67q-2 3 -10 11q-9 9 -7 13q5 9 15 21q10 13 22 24l27 27
l24 23q-3 3 -12 11q-5 6 -9 10q-5 5 -8 7q-2 2 -2 6q-1 4 -1 7q0 4 1 7q-10 14 -31 40l-28 4q-2 2 -5 7q-20 2 -78 10q-5 7 -21 27v7q3 -2 9 -9l63 -9q23 -3 43 -5q19 -3 21 -1l6 6l11 11q6 7 12 12t9 7q6 4 11 2q2 -1 3 -2l30 -26h45l17 -13l6 6q4 2 7 4t8 4q2 0 7 -1
q1 2 4 5q6 3 11 5q6 2 10 3t8 1q2 -2 4 -6l3 6q6 0 24 1q0 4 3 8q2 4 6 8t12 8q16 8 26 6q4 -1 8 -3q4 2 11 4l3 6q-5 3 -8 6q-3 2 -5 4q-2 3 -4 5q-3 3 3 7q3 1 7 2q5 -3 15 -10q1 0 6 1l7 -7q26 11 104 47v11q8 -6 29 -25l-86 -55q0 -2 -1 -9l4 -4q2 -1 8 -3
q25 -19 47 -38l38 -35l36 -36v-10l8 -12q31 -20 31 -57q0 -26 -19 -45q-19 -18 -45 -18h-4z" />
    <glyph glyph-name="r" unicode="r" horiz-adv-x="655" 
d="M345 488v-2q3 -2 7 -2t6 -2q3 -2 5 -6q2 -5 7 -6q1 1 6 1v11q3 -1 9 -4q6 -4 7 -6h1q0 1 1 2q3 -3 7 -4q5 -2 9 -4q9 -5 18 -11t18 -13q15 -8 29 -18q14 -9 29 -17q4 -4 8 -7q4 -4 9 -6t9 -3l8 -4l3 -3q1 0 1 1q1 0 2 -1q2 -1 3 -1q3 -2 5 -5l4 -4q3 -2 6 -3q2 0 5 -2
q5 -4 12 -8q7 -3 12 -7q4 -2 8 -3l6 -4l6 -6q2 -3 5 -5q-1 -2 -3 -5t-4 -4q-2 2 -9 3q-8 1 -11 2v-1q-2 -3 -2 -12q2 -2 3 -4t3 -4t3 -2l2 -2q2 -2 1 -3t0 -3q3 -4 9 -10q5 -4 13 -8q8 -3 8 -11q-1 -1 -3 -1q-1 0 -3 1h-2q-6 -5 -8 -4q-2 0 -9 -1l-2 4q-1 1 -2 3q-2 4 -1 7
q0 4 -2 6q-1 0 -4 3q-2 3 -2 4h-3t-3 1q-1 2 -2 3q-2 2 -5 7q-4 4 -7 4q-2 2 -6 1t-7 1v-2q6 -2 12 -13q7 -11 9 -16q-2 0 -5 -2h-1q-2 2 -2 3q-1 1 -3 2q0 -2 -2 -7q4 -3 6 -7q1 -4 5 -7v-1l-4 -4q-1 1 -2 1q-1 -1 -1 -2q-1 -1 -3 -2q1 -1 1 -2l-3 -3q-1 0 -1 1q-2 2 -6 7
q-4 4 -5 6q-1 0 -7 -2q-5 -2 -6 -3q2 -2 3 -4l4 -4q-2 -4 -5 -4l-4 2l-3 3q-6 5 -16 15q-2 2 -3 5t-3 5q-2 3 -3 4q0 1 -2 3l-10 10l-8 12q0 -7 -5 -8t-7 -6q2 -2 8 -12q7 -10 8 -12q-2 -2 -2 -3q1 0 1 -2q0 -1 -3 -1l2 -2q1 0 1 -2l-4 -4q3 -2 4 -5l4 -4l7 -12q4 -6 7 -11
q1 -2 1 -3t2 -3l6 -8q2 -4 4 -9q4 -7 8 -13q5 -6 8 -13q2 -4 2 -8t2 -9l4 -8q3 -4 5 -8q11 -25 18 -50q2 -6 3 -12q1 -5 4 -11q4 -12 7 -22q3 -11 -10 -19q-2 -1 -4 -1t-4 -1q-10 -6 -25 -7h-7q-10 0 -18 3q-8 6 -15 15q-6 10 -13 18q-11 17 -22 32l-21 33q-3 5 -6 4
q-4 0 -7 3q-2 4 -4 7l-6 10t-7 11q-4 7 -8 13l-10 14q-2 3 -5 6t-3 8l1 1q-1 1 -1 4q1 2 1 3t1 2q2 2 4 3q1 1 2 3q-4 3 -5 5t-7 2q-1 -1 -10 -2q-8 -1 -10 0q-1 0 -4 2q-3 1 -4 1q-2 2 -2 3t-2 1v-2q-5 4 -10 6q-6 1 -10 4q-5 9 -9 17q-4 9 -10 18l-3 -3q-4 -1 -15 -3
q-2 3 -5 4t-5 3t-2 4t-1 4q-2 2 -4 6q-1 4 -2 6q-2 4 1 6q-3 4 -3 7q2 1 4 3q-2 2 -3 4q-1 1 -3 2q-4 -2 -10 -2q-6 -1 -11 -3q-10 -3 -21 -5l-21 -4q-5 -2 -9 -2t-8 -2l10 -29l12 -30v-4q-1 -2 -1 -3q0 -2 1 -3v-3q-2 0 -2 -4q1 0 2 -7t1 -8l-2 -4q-1 1 -3 2l-3 -3
q0 -2 1 -5q-2 -1 -3 -1q0 -1 -2 -2q-3 3 -4 8t-3 8q-3 -1 -7 -2l-6 -2q-5 0 -5 -1q2 -2 4 -8q1 -6 -4 -7q-2 0 -3 1t-4 6q-1 0 -2 -2q-3 2 -4 5q-1 4 -3 7q-2 2 -4 5q-1 3 -3 5q-2 4 -3 7q0 3 -2 7q-4 10 -9 24q-1 5 -2 12q-2 6 -4 9q0 -4 1 -11t0 -9q-3 -2 -12 -5
q-9 -2 -10 -6q1 -3 1 -7q1 -1 1 -2l2 -4q1 -3 -2 -6q2 -6 2 -9l9 -9q2 -3 4 -8q2 -4 1 -6q-1 0 -2 -1q-1 2 -4 2q-2 -2 -6 -4q-3 -3 -8 -1q-2 2 -4 2q0 -1 -2 -3h-2q-3 5 -1 12q3 7 4 11q-1 2 -1 4q0 3 -2 5l-2 2q-1 0 -2 2q-2 4 -3 7v5q-1 3 -3 4q-3 2 -6 3q-4 1 -6 5
q-2 2 -3 6t-3 5q-2 -1 -3 -1q-1 1 -3 0q-4 -2 -7 -3q-8 -3 -15 -8t-15 -7q-2 4 -4 5q-2 2 -3 6q-2 4 -2 12q4 2 6 5l6 6q5 4 10 9l10 10q3 2 7 4q4 3 4 8q2 2 2 5q0 2 2 4q2 3 5 5q4 2 6 4h2q2 0 3 2q0 2 2 5l8 4l6 6q4 3 10 11q1 2 1 4t-1 4t-1 5q1 2 1 4q1 1 2 4q0 5 -1 9
l-2 10q2 2 3 4q2 2 5 3q1 -2 2 -8q2 -5 4 -5q5 3 10 1v2q-3 4 -3 12h2q3 -2 5 -3q2 -2 4 -6l1 1q5 4 8 9q4 4 7 9q5 8 11 14t11 13q4 5 11 12q7 6 13 9q0 -1 1 -1l1 1v2q3 2 7 5q3 3 7 6h1q1 -3 3 -7q2 -3 5 -3q3 1 6 1h5q0 3 1 4q1 2 2 1q1 0 2 2q0 2 1 4t2 2q2 0 4 2t3 4
t3 4q1 1 2 1q0 -1 1 0q2 5 3 5h3q2 2 3 4q1 1 4 2v-1q1 0 1 -1q1 0 1 1h2q0 1 -1 2v2h1q2 1 4 1h3q3 -3 5 -3q0 2 1 2q2 -2 5 -4q2 -2 6 -1q3 1 7 1q3 0 5 1h6q2 0 5 1q4 2 6 0q2 0 4 -1q3 -1 6 -1z" />
    <glyph glyph-name="s" unicode="s" horiz-adv-x="678" 
d="M319 84l-18 4q-9 1 -19 3q-23 -3 -45 -5l-46 -6q-2 0 -6 -1l-10 -2h-10q-4 0 -5 2q-4 5 -13 15l-25 -4q-12 -3 -25 -5l-43 58q-3 9 0 15t5 9q16 14 31 29q14 15 30 29l-2 2l-38 57l-37 57q-1 3 -1 8v5q1 7 3 15q3 8 6 15q2 7 3 10q2 8 4 21q1 13 8 18q2 1 5 1t6 1
q10 -8 17 -19q7 -10 16 -21l38 -48l39 -47q9 -10 16 -21q8 -11 18 -19q-1 4 -1 8v6q-3 4 -9 10t-12 13l-10 14q-4 7 -5 13q-2 9 2 19q3 9 11 16q8 8 18 11q10 4 19 2q10 -2 16 -8q6 -7 11 -14t10 -15q4 -7 11 -12l22 -9q10 -5 19 -12t18 -13v3q-10 13 -19 26q-10 13 -19 26
q-3 8 -6 17q-2 9 -4 17l-30 41l-30 41q-1 7 3 9q4 3 10 3q3 0 7 -2l17 -7q21 -8 42 -17t42 -17q18 -7 29 -23q12 -17 24 -31l20 -23l20 -23q7 -7 19 -22q36 -8 71 -15t71 -16q6 -9 13 -18l13 -17q5 -9 12 -16q6 -8 6 -22h-2q-11 -2 -23 -5t-23 -7q-3 -6 -5 -11q-3 -6 -6 -11
q-18 -3 -34 -10q-16 -6 -34 -12l-18 -6t-19 -5l-10 -10l-10 -10q-2 2 -3 2l-3 6q-1 -1 -2 -1l-5 -13t-9 -11q-2 0 -6 -2q-4 -6 -6 -10q-3 -2 -16 -5q-14 -3 -30 -6l-31 -4h-10q-6 0 -9 1q-8 2 -10 10q-1 9 -7 14h-2v-13z" />
    <glyph glyph-name="t" unicode="t" horiz-adv-x="694" 
d="M620 99q-3 0 -4 1h-2v2v4q-2 0 -2 2q0 1 -2 2l-1 -2q-1 0 -2 -3q-4 -5 -7 -8q-4 -3 -8 -7h-2q-3 -2 -6 -7q-3 -4 -5 -6t-4 -3t-1 -3v-2t1 -1q-8 -9 -25 -25q-6 4 -23 14q0 1 -1 2l-1 -1q-6 4 -24 17q1 0 0 1q-2 -2 -4 1q-1 0 -2 2l-39 24q0 1 1 1h-4l-26 18q1 3 5 11
l-184 154q2 1 8 6q-4 3 -15 12q-1 0 -1 1q-1 0 -1 1h-1q-1 1 -5 -2q-2 2 -5 2q-4 0 -7 -1q-4 -2 -11 -5q-6 -3 -11 -2q-5 0 -6 1q-2 0 -2 1l-1 1l-127 -17q-3 -1 -5 -1h-6q-5 2 -9 7q-4 6 -9 6v2q-2 1 -5 4h1q2 2 5 3q4 1 7 3t7 4q3 1 7 3q7 3 22 10q1 1 0 2q0 1 1 2l1 1
l1 1q1 0 2 1q1 0 4 2q2 0 3 -1q0 -1 2 -1q3 2 8 3q4 2 9 4l39 18q4 2 13 7q6 2 7 4q-4 2 -11 10q-7 9 -10 11q-10 11 -17 24q-3 6 -4 12q0 7 5 12t15 9q10 5 21 0q12 -5 22 -13l21 -16q2 -2 9 -7q6 -5 7 -8q1 -2 2 -11t2 -13q1 0 1 -1h2q3 2 6 3t3 6q2 4 2 7q-1 0 -3 2l-2 2
l34 61l-6 6q2 1 6 4l2 -2q3 -2 4 -2q1 3 2 5l4 4q1 2 1 7q0 4 2 5q2 -2 6 -4q2 -2 8 -6q5 -4 6 -5q2 -2 6 -11q3 -8 5 -11q0 -14 1 -26t2 -26v-9q1 -3 1 -8v-8t-1 -10v-10q0 -5 -1 -9q-2 -5 -3 -7h-2q-1 0 -5 4q-2 2 -5 3q-1 -1 -1 -3q0 -1 -1 -2t-5 -3q1 -1 2 -1l1 -1
q0 -2 2 -3q-1 -1 -1 -2h1t2 1l1 -2q0 -2 -1 -3h1l2 2q1 -1 2 -3q-1 0 -1 -1h2q2 0 2 -3l-1 -1h1q1 1 2 1q2 -1 3 -2q0 -1 3 -2q1 2 2 2t2 2q0 3 -2 3q0 5 1 7q0 1 3 3q3 3 2 3q-1 2 -1 3q1 1 1 2q0 2 2 3q5 5 11 9q5 3 11 8q2 1 4 4q2 2 6 3q0 -1 1 -1q1 1 7 6q7 5 9 5v-1
v-3h1q0 -1 -1 -4q4 -1 7 -4t6 -5q6 -4 13 -8l13 -9l25 -16l25 -18q2 -2 5 -6t5 -7q1 -2 2 -5t2 -5q0 -1 2 -1q1 0 2 -1l59 -40l3 -3q2 0 4 -2q2 0 4 2q1 1 2 1l102 -70q-2 -8 -6 -31q0 -1 1 -1l2 -2l-2 -2h-2h-2q-8 -8 -32 -34q-1 0 -1 -1v-2z" />
    <glyph glyph-name="u" unicode="u" horiz-adv-x="809" 
d="M791 494l-180 -219q5 -10 7 -20q3 -8 0 -18t-11 -17q4 -5 7 -14t3 -20q1 -9 -2 -18t-12 -13q-5 -2 -10 -3t-11 -1q-7 1 -15 4l21 -119q-1 -1 -2 -5h-7v-11q0 -1 -1 -2t-5 -1h-5q-3 0 -13 -2q2 -4 5 -14q0 -6 -5 -6q-2 -2 -4 -1t-3 3q-2 6 -5 17q-12 -1 -27 -2t-28 -3
q1 -4 4 -13q2 -7 -6 -7q-1 -1 -2 -1t-2 1q-2 2 -2 4q-1 5 -4 15q-5 -1 -9 -1h-5h-5h-3q-4 0 -5 4q0 7 -4 11h-1q0 -2 -3 -7q-2 0 -10 -2l-48 159q-1 0 -4 -2q4 -12 4 -23q-1 -8 -6 -14q-5 -7 -20 -7q-11 0 -17 5t-9 11q-4 8 -4 18h-6l-4 21q1 1 4 2l-4 24v3q0 3 1 5
q0 7 -2 22l-303 185v5q2 1 5 3q4 1 15 3l191 -93q21 -11 39 -23l31 -18l23 -14q1 1 1 3q0 3 -2 12q-1 2 -1 4q0 5 2 8q1 6 1 18q0 3 1 5q3 4 5 5h8q6 0 11 -5q2 -3 3 -7q0 -3 2 -6q1 -5 3 -8q1 0 1 -2l2 -4t3 -5q1 -2 1 -7l16 -24v-9q5 -3 21 -14v-5q8 0 31 3q2 1 6 6l52 4
q2 0 9 -2q6 0 25 1l6 3l3 6q2 2 5 6q4 3 9 8q0 6 2 19q0 2 3 6q0 2 1 6q-1 2 -5 8q-1 5 -1 17q0 6 1 23q1 0 3 1q2 0 4 1h5h5q2 -1 4 -1h2q5 -7 9 -14q9 -14 11 -27q9 12 19 23q8 9 18 19q9 11 17 19q1 2 4 5l127 121h4q4 -1 17 -2v-9z" />
    <glyph glyph-name="v" unicode="v" horiz-adv-x="458" 
d="M339 206q2 0 3 -1q4 -5 12 -16q2 -4 1 -6q-1 -3 1 -5q3 -1 5 -4q3 -3 5 -6q0 -2 -2 -6q-6 -1 -10 2q-1 -4 -7 -4q-4 2 -5 6q-2 5 -4 9q-6 -1 -8 1t-4 7l-6 -3q-2 -2 -6 -3q1 -4 1 -9q-1 -5 -2 -11v-11q0 -5 2 -8q1 -1 2 -1t2 -2q5 -7 5 -18q9 -2 19 -4q10 -1 23 0
q1 -7 5 -12q2 -7 -2 -15q-3 -9 -5 -14q10 6 19 12t19 11q2 -5 4 -11q2 -5 0 -13l-13 -19l-13 -17l-4 -10q-2 -6 -4 -11q-2 -3 -8 -8q-7 -6 -10 -8h-2q-1 1 -3 1q-1 8 2 19q2 11 -2 19q-3 -2 -6 -3q-4 0 -7 -2q-5 -8 -9 -18q-4 -9 -10 -17q-15 0 -25 8q-9 8 -14 21t-6 29
t-1 31l-10 4q-5 1 -10 3q-2 -46 -30 -77q-27 -31 -68 -38v7v13q1 6 2 13q-8 1 -14 2q-7 0 -15 1q-2 -3 -9 -9q-6 -7 -15 -14l-14 -14q-8 -6 -11 -7q-5 -2 -4 0q1 1 -4 -4q-6 2 -7 3q-2 0 -6 -5h-2q-2 2 -4 2q0 5 -1 9q-1 3 1 9l6 10l6 12q-3 7 -9 19q-6 11 -1 22l6 8l8 8
q16 -6 34 -12q19 -6 37 -8q1 0 1 1q1 11 2 24l2 23q4 0 14 2q9 1 18 3t16 5q8 2 10 5q3 5 3 11q1 7 3 9q3 4 6 5q4 1 4 7q-4 8 -9 14q-2 -7 -8 -5q-4 3 -5 7q0 4 -3 9q-14 0 -22 3q-7 3 -11 9q-3 6 -4 14v19q2 1 3 1l4 2q-1 2 -2 6q0 3 -1 4q-5 2 -16 6q-2 13 -2 25l-2 26
q0 4 -1 10t1 8l10 6l10 6q-1 2 -1 5q-26 0 -50 -1t-48 -1q-10 26 -17 47q3 18 7 36q3 18 7 35l-10 43q-6 22 -11 44q4 0 6 -1l-6 31q1 1 6 3q4 -4 6 -10q1 -5 3 -11q2 0 3 1h3q3 -14 9 -26l10 -23l25 -63l25 -62l31 -3l-2 38v37q1 -1 2 -1q11 -5 21 -16l19 -22
q23 -30 40 -67q16 -38 18 -91q6 0 10 -3q4 -4 7 -6q2 2 2 7v6q3 0 5 2q-2 27 3 58q4 31 12 58q8 28 20 50t27 33q4 -18 7 -36l6 -35q11 2 16 4q3 31 5 63l6 63v9t-1 12v12t1 8q1 1 2 1q1 1 2 3q2 4 1 9q-2 5 -1 7q3 1 5 1t3 -2q2 -2 2 -7q1 -5 1 -11q0 -7 2 -11q1 1 4 1
q2 -12 3 -25q0 -13 3 -26v-16q1 -7 1 -16q3 -13 7 -24q5 -11 8 -24q4 -12 5 -25v-8q0 -10 -2 -24q-11 -7 -31 -8t-36 -3v-6q5 -3 10 -5q5 -3 7 -6q1 -2 2 -10q1 -9 1 -20q1 -11 1 -20q1 -9 0 -11q-2 -3 -9 -8l-15 -10q-7 -4 -13 -8t-7 -8q5 -1 3 -9z" />
    <glyph glyph-name="w" unicode="w" horiz-adv-x="813" 
d="M203 379q26 -5 106 -19q6 2 25 7q3 -2 12 -6q3 -1 12 -6q4 7 17 28q2 2 10 9q3 1 10 4q4 -1 15 -6v-14q-6 -6 -21 -25l4 -16h21l14 14l47 -4q2 -3 8 -13q2 0 9 -1q3 2 12 7q4 2 18 7q1 4 2 17q2 4 6 14l11 11q2 1 10 2q2 -2 10 -9q1 -4 4 -14q-1 -3 -6 -10q0 -3 -2 -13
q9 -1 37 -3l111 8q1 2 6 7q1 5 6 20q3 2 11 8q3 -2 13 -8q2 -4 9 -14q-1 -6 -5 -26q-4 -4 -18 -16q-2 -8 -9 -33q1 -1 3 -4q0 -2 -1 -9q-2 1 -7 3q-1 -6 -4 -27q-3 1 -10 3q2 6 6 26q-3 -1 -9 -2q1 3 2 9q2 1 9 5q1 8 4 34l-140 -20q-1 -4 -6 -18q1 -7 2 -27l142 -52
q4 1 16 5q3 -5 12 -19q-3 -11 -11 -45q-2 0 -9 -2l-12 -57q1 -2 6 -7q-2 -3 -5 -11q-2 1 -6 4l-4 -24h-8q1 6 5 25q-2 -1 -9 -3q1 3 3 13q2 1 7 4q3 15 11 58l-9 3l4 33l-112 31q-1 -2 -2 -8q-8 0 -31 -1q-5 -4 -18 -13q-8 0 -29 1q-4 2 -16 10q-4 3 -13 13q0 5 -2 21
q-3 0 -12 3q-4 -5 -14 -20l-68 -83q-1 -2 -4 -10l-49 -53q-14 1 -54 5q4 9 15 36l49 87q-3 -1 -10 -2q-4 1 -15 6q-2 3 -8 11q-5 3 -20 13q-19 -1 -76 -7l-29 -34q-5 -1 -20 -5l-50 -48q0 -2 2 -8q-2 -2 -6 -7q-2 1 -5 5q-1 -1 -4 -2q0 -1 -3 -4l-12 -12q-2 1 -6 4l16 20
q-2 1 -8 2q2 2 7 6q3 1 11 2l50 59q0 4 2 18q5 6 22 25l162 31v13q-11 0 -43 2q-1 2 -4 10q2 5 10 20q-34 10 -135 43q-4 -2 -16 -7q-4 -2 -13 -10q-1 0 -6 1l-41 -33q0 -1 -1 -7q-1 -1 -6 -4q0 1 -1 5l-18 -15q-1 1 -5 3q5 4 19 17q-2 1 -7 2l5 5h9q11 8 42 34q1 3 2 10
l47 41q7 0 27 2q1 -4 4 -13q-3 -2 -10 -9q1 -2 4 -7z" />
    <glyph glyph-name="x" unicode="x" horiz-adv-x="699" 
d="M378 398l78 36q-2 1 -4 3t-5 4q-2 1 -3 3q-1 0 -1 2v4q1 0 3 3q5 4 13 4h31q1 -1 3 -1h3l3 1h12q1 0 2 -1q3 -3 3 -6h41h3t3 -1h2h47q1 2 3 3q6 2 9 0q1 2 4 4q2 2 6 2q2 -1 4 -1q-1 0 -1 -2q0 -1 -1 -1q-1 -1 -4 -2q-5 -2 -3 -7h30h3t2 -3q0 -1 -1 -1h-7h-26q0 -3 2 -5
q4 -4 8 -4q-1 0 -1 -1t-2 -2q-1 -1 -2 -1q-2 -2 -5 0q-2 1 -5 4q-1 1 -2 1v-2q-3 0 -7 1q-5 2 -5 7q-15 1 -45 1q-1 -1 -2 -1q-1 -1 -6 -1h-22q-10 0 -20 1q0 -2 -1 -4q-3 -5 -8 -5h-5l-110 -64q-1 -5 -3 -8q-4 -7 -12 -7q8 -7 25 -20q20 -1 79 -2q9 -3 37 -10v-3
q-1 0 -5 -1q1 0 2 -3q3 1 7 0q7 -2 8 -7v-3q11 -3 44 -11q1 -1 3 -1q1 0 1 -1h2q-1 0 6 -2l16 -4q10 -3 23 -5q0 1 1 2t5 1q1 -1 3 -1q1 1 4 2q7 2 12 0q-1 0 -1 -1v-1h-5q-6 0 -6 -6q2 -1 5 -2q2 -1 6 -1l6 -2q6 -1 17 -4q1 -1 1 -2q0 -4 -3 -2q-2 0 -8 1q-6 0 -11 2
q-6 2 -13 4q-1 -2 0 -4q2 -5 8 -6q0 -2 -5 -2q-2 0 -4 1q-2 0 -3 2q-1 1 -1 3q0 1 -1 2h-4q-4 0 -5 5q-1 -1 -9 1q-7 2 -15 4q-7 2 -22 7q-2 -1 -5 -1q-7 0 -12 2t-10 3t-10 3t-12 4q-1 -1 -3 -2q-4 -2 -8 -1q-2 0 -5 1h1q-1 0 -3 2l-2 -2q-2 0 -4 1q-4 2 -5 3q-1 0 -1 1
q-1 1 -3 1q-5 0 -7 1q-3 0 -13 4q-4 2 -9 4q-2 0 -3 1q-2 2 -2 4v3q-8 1 -33 1l50 -24q21 -10 40 -21t27 -16q0 1 4 2q4 2 6 1t20 -11q19 -11 30 -21l21 -18t9 -10t-6 -3q-4 -3 -9 -6q-7 -4 -16 -8q-10 -1 -21 -1h-19q-10 0 -16 2q-7 1 -16 3l-16 4q-9 3 -17 6q-1 0 -1 1
q-1 1 -2 6l-173 66q-5 0 -9 -1q-3 -1 -7 -1q-4 -1 -7 0q-4 1 -6 2h-3h-2t-3 -1v-7v-7q0 -3 -2 -5q-3 -5 -10 -12t-20 -5q-14 3 -22 14h-6q-6 1 -12 1h-17l-102 -58q1 -1 2 -3l3 -6l2 -4l2 -4q1 -3 2 -5q2 -2 2 -5q0 -7 -4 -9q0 -2 1 -5q1 -4 4 -9q1 -4 4 -12v-2q2 -7 11 -27
q2 0 4 -1q3 -2 5 -7q0 -2 1 -3v-2v-2t-1 -3q2 -4 8 -15l-4 -4v-2v-3q0 -2 -1 -2v0q-1 0 -2 1t-1 2l-1 1q0 1 -1 1h-1l-7 14q-1 0 -4 2q-4 2 -4 6q-3 9 0 12q0 1 -1 4q-1 2 -2 5q-1 2 -2 5q-4 7 -6 15l-1 1q-2 2 -2 4q-1 2 -2 5l-3 6t-3 9q-2 0 -4 1t-4 3t-3 4q-2 2 -3 5
t-3 5q-2 3 -3 5v2q-1 1 -2 3h-1h-2l-5 10q-2 4 -3 11q1 0 2 2v2q-1 1 3 3q2 1 22 15q19 13 43 31l64 44q1 -1 3 -1q0 1 1 3q2 4 7 5q4 0 5 -1t2 -1q5 5 16 15q-2 0 -3 1q-2 1 -5 4q-49 0 -147 -1q-1 0 -3 -1l3 -1q-1 0 -1 -3q-1 0 -1 -1q1 0 2 -1t1 -2l2 -2v-5q1 -3 -4 -9
l-1 -1q1 -1 1 -2q0 -3 -1 -3v-1v-2q1 0 1 -1q0 -3 1 -5q-5 0 -14 -1q0 4 -1 15q-1 0 -4 2q-4 2 -4 6q0 8 4 10q-1 0 -1 1v2q-1 1 -1 2q-1 1 -5 3h-22q-1 1 -1 2q-1 3 -1 10q1 0 4 2l2 3l-4 8v6q0 6 6 10q4 2 8 2q4 -1 6 -3q1 -1 3 -2l2 -2q1 -2 2 -3q2 -1 4 -4q3 -3 2 -9
q17 1 50 2q21 1 49 3v1q-1 0 -1 1t1 2t2 1l1 -1q1 1 6 3v1t2 1h3q1 0 2 1v1t1 1h1q0 -1 1 -1h1q1 1 4 2t9 1q1 2 1 5q-1 1 -6 2l-2 -1q-1 1 -5 2q-2 5 -2 9q0 3 2 7t7 8q6 2 11 0l1 -1q2 -1 8 -2q1 0 6 1l4 -4h4q0 -1 1 -2l2 -2q3 0 6 -1q6 -2 10 -2q2 0 8 -2q3 -1 5 -1
q5 0 9 1q3 1 6 1q3 1 4 2q2 1 5 2t5 1q1 0 1 -1h2h2q1 -1 2 -1t1 -1h2t3 -1h3l2 1h2q0 1 1 3t8 4q-1 0 -1 1v1h-6l-1 -1q-3 0 -12 2q-1 0 -2 1q-1 0 -4 1q-1 1 -2 3q-1 3 0 10q3 13 10 13q3 -1 6 -1h1h2q2 -1 6 -1h6q3 -1 10 -2h4q1 -1 5 -1v-3q7 0 30 -1q1 0 1 -1h6
q5 0 10 -3z" />
    <glyph glyph-name="y" unicode="y" horiz-adv-x="674" 
d="M645 39q-1 -1 -4 -3q-3 4 -13 15q-1 0 -1 -1l-9 9l-1 -1q-3 4 -13 15l-25 -14l-25 -14q3 -4 10 -11q0 -1 -2 -2q2 -2 7 -8q0 -1 -1 -2q4 -4 14 -16l-3 -3l-15 15l-1 -1l-7 10q0 -1 -2 -1q-3 3 -12 14q-3 -2 -6 -3q-2 -1 -5 -2q-10 -3 -21 3l-31 21l-36 28l-54 42l-50 40
q-22 18 -25 20q-10 9 -7 17q1 2 4 7l4 10q2 4 7 13l6 6q-8 7 -31 30h-2q-3 0 -5 -1q-4 -2 -8 1q-3 3 -6 1q-2 -1 -5 2q-4 3 -6 3l-2 2q-1 1 -2 3q-1 1 -2 4q-1 1 -3 2t-4 1l-2 2q-3 1 -3 4v1q-1 1 -3 4l-79 -37l4 -8h3q1 -1 3 -4h1q1 -2 4 -6q0 -1 -1 -2l2 -2v-4q0 -5 3 -8
q2 -4 3 -9l2 -10t1 -11q0 -1 1 -2q0 -1 2 -2q1 -1 1 -3q0 -1 1 -2q0 -1 1 -2q1 -3 0 -6q-1 -2 -2 -3q-3 -2 -5 -3q-2 -2 -3 -2l-2 -2t-9 -7q-9 -6 -27 -9q-18 0 -30 7q-12 8 -19 17q-8 12 -13 24q-2 2 -6 5q-1 2 -4 7q0 1 1 2q-3 4 -9 18q-1 0 -2 1q-1 0 -1 2t1 9q-1 1 -1 6
q0 1 3 3q-8 20 -29 79q-9 7 -11 16q-1 8 0 14l-4 6h-2q-2 0 -3 1q2 3 5 10h5v1q1 0 4 1v-1q3 4 12 10q9 5 26 4q-2 2 5 4q3 3 10 -2q1 -1 1 -5q-1 -2 -1 -3q1 -1 2 -3q5 -2 10 -8q5 -5 4 -16l1 -1l9 -16q3 -6 6 -11t4 -7q1 -3 5 -3h3q2 -4 8 -15v1l74 28q0 2 -1 6v2q1 2 0 3
v1q-2 2 -2 10q0 3 1 4q0 1 1 1q10 6 29 19q2 1 9 4q-1 0 -2 1q-1 0 -3 2q-2 3 5 6l12 5q3 0 7 -3q1 0 2 -2q2 1 5 3q7 1 26 2q3 -3 12 -10q1 1 4 1q1 0 1 -1q3 -2 4 -2q13 5 38 16q-8 7 -34 28q-1 0 -3 -1h-2q-3 0 -4 1q-2 1 -1 3q1 1 2 1q1 1 1 3q-12 11 -12 28q0 5 2 13
h-1q0 1 -1 2v1l1 3q1 0 1 1t1 2t1 2v2q1 -1 2 -1q1 -1 3 -1q11 12 27 12q2 0 3 -1h3q7 2 9 4q3 0 4 -1t3 -2l2 -1q0 -1 1 -4q14 -7 59 -28h2l36 -18l26 -13t14 -8v3q1 2 3 1t10 -4q7 -3 7 -4v-2t1 -2q2 -1 6 -4q3 -2 6 -3t5 -3q2 0 6 1q0 -2 2 -6l2 -4q0 -1 1 -2v-3
q1 -2 1 -4q0 -4 3 -8q2 -4 4 -9t4 -16q2 -12 -5 -23q-4 -6 -17 -13q-13 -6 -34 0q-11 3 -17 5l-10 5l-6 3h-5q-3 1 -11 4l-3 6l-31 20q-13 -5 -50 -21l1 -1l2 -3q1 -1 3 -2t3 -2q0 -1 2 -2q2 -2 4 -6q2 -3 4 -3t4 -2q1 -2 4 -4q3 -1 3 -3q1 -2 1 -3q-4 -2 -4 -6q0 -1 2 -1
l1 -1l1 -1q0 -1 1 -2q1 -4 2 -4q1 -1 1 -2t-1 -2q2 -2 7 -5q7 0 11 -6h1l14 4t12 4q6 1 9 1q5 0 11 -1l20 -4q7 -2 11 -5q5 -2 10 -8q6 -6 14 -17l23 -29q14 -19 30 -43q15 -24 28 -47l31 -52l-16 -10q-3 -2 -12 -6q4 -5 12 -13q-1 -1 -1 -2q1 -3 7 -9l-1 -2q3 -4 13 -15z
" />
    <glyph glyph-name="z" unicode="z" horiz-adv-x="603" 
d="M562 465q-1 -5 -6 -8q-6 -2 -12 0q-4 2 -7 8h-7q-4 1 -6 0q-1 0 -1 -1q-1 -1 -2 -1q-2 -1 -10 0t-9 2q-5 0 -7 -2q-1 -2 -5 -4q-5 -2 -9 0q-5 3 -9 5q-5 0 -6 2q-2 0 -5 -3l-6 -4l-8 -6l3 -24l-55 -51q-6 1 -23 5l-6 -3q-4 -6 -13 -26q0 -1 2 -2q2 -2 6 -4q5 -2 10 -6
q1 -2 2 -5l2 -4t1 -5v-4q-1 -2 -1 -4q1 -2 0 -4q-2 -8 -7 -12q-4 -4 -10 -7q0 -4 2 -5q1 0 4 -2q2 -2 12 -10l23 -19q14 -10 24 -19q11 -9 13 -11h7q9 -2 15 -9l10 -12l5 -5q2 -3 9 -11q6 -8 14 -17q7 -8 12 -15q6 -6 7 -6l-4 -5t-9 -10t-10 -9q-5 -5 -6 -5t-9 2t-19 5
t-20 6q-10 2 -14 3q-5 2 -9 3q-3 0 -6 2q-2 3 -8 6t-8 5t-2 5t-2 5l-7 4l-14 7t-14 8q-7 3 -8 3h-4q-1 0 -10 5q-8 5 -19 10q-9 5 -17 10l-8 4q-1 0 -1 1q1 1 -1 2q-2 2 -7 5q-5 2 -6 2h-4q-5 0 -10 6q-2 0 -2 -1t-2 -1q1 -4 2 -6q0 -2 1 -5q3 -12 -3 -20q-5 -8 -16 -13
q-12 -4 -23 3q-8 6 -12 13q-4 4 -6 8q-7 -1 -20 -4l-12 -12q0 -6 -1 -24l-57 -51q-7 1 -25 5l-14 -11q0 -1 1 -2t1 -3q1 -1 3 -2q1 -2 2 -5q1 -2 1 -4q3 -7 -2 -12q0 -1 -1 -1q-1 -1 0 -3q1 -3 5 -8t-1 -9q0 -6 2 -6q3 0 6 -1t7 -7q2 -7 -1 -10q-3 -4 2 -9v-3q-1 0 -1 -2
q2 -2 3 -5t4 -6v-1h-1q-1 -1 -2 -1q-2 2 -4 6q-2 3 -3 6q-3 -2 -6 1q-1 1 -1 2q0 2 -2 4q-4 0 -5 1q-2 1 -7 5q-4 4 -2 7q0 6 -6 9q0 3 4 5q0 4 -3 10t-5 7h-1q-1 1 -3 1q-7 2 -9 8q-3 5 -1 13q0 1 1 3q1 1 0 4l-3 9q-2 3 -7 9t-1 11v3q0 1 -2 3q-1 1 -1 2t-1 4q0 9 8 8
q8 0 12 -5q2 0 16 12q14 13 30 30l31 30l16 16q0 4 -2 10q0 2 2 7t3 6q0 3 -1 4q-2 1 -3 3q-3 4 -7 12t-2 14q5 15 18 21q10 5 21 -1t15 -11q3 0 4 1t1 2q0 2 -2 5v2t1 1v1q1 3 0 7q-2 5 -3 7q-3 15 4 26q4 6 7 7q4 2 10 7t16 4t16 -5q1 0 3 2q1 1 1 2q-1 1 -2 3q-2 4 -2 7
q-2 7 0 13t5 11q2 3 9 5q8 3 14 1q15 -3 29 -9q2 -2 4 -3q1 -1 3 -1q2 -1 3 0t2 1q2 -1 5 -2t4 -2q3 0 17 11l31 24l30 25q15 11 17 13q0 4 -3 6t-1 7q2 12 13 5q3 0 4 -1q3 0 5 1q2 2 4 3h4h8q9 -1 11 -3q2 0 3 -1t3 -2q2 0 3 1q2 1 4 1h6q1 1 3 2q1 1 3 2q4 1 9 -2t7 -5
q1 -2 1 -3t1 -2h10q6 -1 11 -2q2 -1 3 -2q0 -2 2 -2q2 -1 4 0q1 0 4 -1t3 1q1 1 3 2q0 1 -1 2v1v1q0 3 1 5q2 4 7 6q2 0 1 -5q0 -4 1 -6t2 -1q2 0 4 -1q2 -2 5 -4q2 -3 2 -6q1 -1 2 -1h5h8v-3h-8h-8v0z" />
    <glyph glyph-name=".notdef_2" horiz-adv-x="543" 
d="M51 102h307v478h-307v-120v-358zM0 631h410v-580h-410v580z" />
  </font>
</defs>
</svg>
