<?xml version="1.0" standalone="no"?>
<!DOCTYPE svg PUBLIC "-//W3C//DTD SVG 1.1//EN" "http://www.w3.org/Graphics/SVG/1.1/DTD/svg11.dtd" >
<svg>
<metadata>
Created by FontForge 20090622 at Tue Jun 13 08:36:51 2017
 By deploy user
</metadata>
<defs>
<font id="xwing-miniatures" horiz-adv-x="938" >
  <font-face 
    font-family="x-wing-symbols"
    font-weight="500"
    font-stretch="normal"
    units-per-em="1000"
    panose-1="2 0 6 3 0 0 0 0 0 0"
    ascent="800"
    descent="-200"
    x-height="336"
    cap-height="736"
    bbox="7 -315 1379 1160"
    underline-thickness="50"
    underline-position="-100"
    unicode-range="U+0020-U+00F4"
  />
<missing-glyph horiz-adv-x="364" 
d="M33 0v666h265v-666h-265zM66 33h199v600h-199v-600z" />
    <glyph glyph-name=".notdef" horiz-adv-x="364" 
d="M33 0v666h265v-666h-265zM66 33h199v600h-199v-600z" />
    <glyph glyph-name="glyph1" horiz-adv-x="0" 
 />
    <glyph glyph-name="nonmarkingreturn" horiz-adv-x="333" 
 />
    <glyph glyph-name="space" unicode=" " horiz-adv-x="301" 
 />
    <glyph glyph-name="exclam" unicode="!" horiz-adv-x="1018" 
d="M464 565q-4 65 -43 120l88 101l90 -101q-40 -57 -44 -120q38 57 86 76l56 -64q-41 -17 -62 -40.5t-28 -37.5q-30 -62 -33 -103q-1 -16 -1 -26v-13v-11q0 -9 6.5 -38.5t25.5 -58.5q35 -40 79 -40q19 1 40 8q31 10 60 37q80 82 80 188v12q-5 54 -20 94q-32 83 -59.5 117.5
t-30.5 37.5t1 1q2 -1 2 1q110 -72 170.5 -179.5t60.5 -219.5v-28v-11v-9v-8q0 -52 -34 -140q-33 -85 -100 -156q-64 -69 -153 -109.5t-191.5 -40.5t-191.5 40q-179 82 -254 270q-34 85 -34 177v15q5 119 62.5 223t166.5 176q3 -2 4.5 -1t-1 -1.5t-18.5 -22.5
q-41 -53 -64.5 -117.5t-23.5 -108.5v-19v-7v-5v-4q0 -22 17 -70q18 -50 63 -95q40 -37 86 -44q7 -1 13 -1q44 1 77 40q34 51 34 119q0 14 -1 28q-3 43 -33 103q-13 26 -38 46.5t-51 31.5l56 64q48 -21 85 -76z" />
    <glyph glyph-name="numbersign" unicode="#" horiz-adv-x="761" 
d="M713 337q9 -29 13 -52q5 -25 5 -49v-8q0 -27 -12 -55q-10 -26 -33 -40q-24 -13 -45 -16t-44 -3q-8 0 -20.5 4t-21.5 9.5t-9 11t17 7.5q10 1 18.5 1t19.5 5q15 5 29 19q8 7 13 18.5t7.5 24t2.5 25t-3 22.5q-3 11 -10 23l-13 22q-11 20 -20.5 34t-24.5 31q-12 13 -21.5 22
t-19.5 21q-6 2 -9 7.5t-9 7.5q-4 2 -5.5 7t-8.5 7q-2 6 1.5 17l7.5 23t9 22t7 15q3 2 7 9t9.5 14t10 12t8.5 3q5 -1 18.5 -13.5t16.5 -18.5q10 -8 19 -21l16 -24t16 -20q10 -10 16 -21q13 -24 24 -51q12 -32 18 -52zM234 452q6 -4 15.5 -12t13.5 -13q3 -13 -6 -20.5
l-16 -13.5q-10 -10 -19 -18t-22 -17q-13 -8 -19 -18t-16 -24l-29 -32q-13 -15 -23 -40q-8 -20 -8 -40q0 -7 1 -12q6 -32 16 -50q14 -24 37 -28q13 -2 27 -2q8 0 19 1t21 2.5t9 -15.5q-1 -18 -14 -24q-14 -5 -28 -8t-31 -3q-19 1 -34 4q-16 3 -27 13t-22 23q-18 18 -29.5 40
t-16.5 50q-3 25 -3 33v6q-1 10 3 25q2 7 9 28q4 14 10 29q10 40 27.5 76.5t44.5 65.5q4 6 20.5 19t30.5 16q9 5 15.5 -0.5t12.5 -11.5q8 -10 14.5 -16.5t16.5 -12.5zM335 128q4 -8 3 -24.5t-1 -25.5v-22v-12v-7q1 -4 -1 -26q-3 -44 -5 -66q-11 9 -11 22t-2 26q-3 15 -4.5 29
t-4.5 28q-1 3 -4.5 22.5t-5.5 39.5q-1 10 -1 14q1 12 2 20q2 14 13 10l-4 -1q6 -7 14 -14t12 -13zM472 76q1 -10 1 -20q0 -16 -3 -34q-5 -31 -5 -55q0 -12 2 -24t2 -25q0 -3 -2 -11t-5 -16.5t-8 -13.5t-9 2q-6 2 -3 12t4 16q0 8 1 17t-1 18q-1 14 -5 28.5t-4 30.5
q-2 16 -2 31v8q1 0 1 3q0 17 -5 35q-5 14 -7.5 30t13.5 26h-2q5 7 13.5 8.5t10.5 -5.5q2 -3 2 -14.5t1 -16.5q3 -8 5 -15.5t5 -14.5zM542 647q7 -14 7 -34v-11q-3 -27 -16 -44q-23 -31 -27 -36q-12 -18 -14 -43q-2 -11 -9 -17.5l-14.5 -13t-13.5 -13.5t-7 -18
q-2 -9 4.5 -16.5t8.5 -16.5q2 -10 -1 -25t-6 -25q-5 -8 -8 -16t-6 -18q-2 -11 0.5 -22t-0.5 -23q0 -22 4 -39q3 -13 3 -26q-1 -9 -1 -14q0 -11 -5 -18.5t-11.5 -15t-11 -15.5t-4.5 -21q3 -15 4.5 -30.5t1.5 -30.5v5q0 2 1 3v-32l2 -32q1 -7 1 -31v-11q-1 -7 1 -21
q5 -19 6 -37.5t1 -38.5q0 -13 -0.5 -24.5t-13.5 -19.5q-7 1 -15 -4q-8 -3 -15 4q-1 1 -1 8v12v13l1 9v8v5v4v3v3v2q-1 5 5 29q4 16 4 40q1 5 0 13q-4 35 -6 41q-4 13 -4 26q0 7 1 15l6 54q1 9 1 18q-1 23 -3 35q-3 18 -5 66q-1 3 -1 6q5 39 15 59q13 28 16 51q2 14 2 27
t-2 26q-6 -11 -12.5 -20t-10.5 -19q-6 -13 -5 -22q1 -12 3 -22q1 -7 1 -11q-1 -18 -5 -31q-3 -10 -7 -19t-6 -19q-1 13 -4 22.5t-8 22.5q-3 9 -5.5 20t2.5 21q4 13 5.5 20.5t-10.5 17.5q-6 8 -12 14t-9 17q-2 -14 -2 -29q0 -12 1 -20q3 -29 14 -47q8 -13 10 -17q6 -7 8 -17
q1 -11 0.5 -23t-0.5 -23q0 -12 0.5 -23.5t5.5 -24.5q4 -11 4.5 -19t-0.5 -22q0 -25 3 -47q0 -11 -1 -21.5l-2 -21.5q0 -14 -4 -30q-3 -14 0 -29l4 -23q1 -15 1 -25q0 -29 -5 -49q-3 -12 -3 -23q1 -16 3 -27q-9 2 -12 8t-7 12q-4 4 -8 6t-7 5q-7 8 -4.5 18t4.5 21q1 13 1 26
q0 12 4 27q5 19 5 42q-1 14 -1 21q1 24 3 36q4 40 5 57q1 15 4 29t-6 23q-9 7 -19 13.5t-19 16.5q-9 9 -13 15.5t-1 21.5q3 14 3.5 27.5t0.5 27.5q0 12 1.5 25.5t2 26.5t-1 24.5t-11.5 20.5q-4 6 -8 8q-3 2 -7 11q-2 5 -1 11.5t1 13.5q0 10 2 24t-6 23q-4 2 -11 1.5t-10 1.5
q-2 1 -8 5.5t-8 7.5q-10 6 -18 18t-14 24q-6 7 -8 17.5t0 20.5q-12 5 -14.5 13.5t-1.5 18.5t5 20q5 11 6 21q2 13 7 24q12 20 12 21l4 5q3 2 5 4q6 6 8 2q9 3 9 -9l-4 1q2 -9 4 -22.5t2 -19.5l-4 -13.5t0 -16.5t6 -12q3 -1 12 -10l24 -23q18 -17 26 -22t18 -17q9 -10 15 -20
q-1 6 -2.5 11.5t-1.5 11.5q-3 11 -5 23l-4 23q-1 10 -3.5 19t-4.5 18q-3 10 -4.5 20t-11.5 16q-4 7 -12 12.5t-13 11.5q-8 9 -15.5 16l-14.5 14q-16 13 -19 30q-2 13 -2 26v9q2 13 10.5 25.5t21.5 19t27.5 7t26.5 -9.5q-8 -14 -13.5 -33t-7.5 -29q2 5 2.5 7t2.5 5q4 -7 7 -9
l4 -4l3 -3q5 -3 10.5 -3.5t7.5 -5.5q-2 -3 -2.5 -7.5t-2.5 -10.5q-4 -15 -4 -24.5t2 -9.5q0 12 1.5 14.5t5.5 12.5q3 8 6 12.5t5 12.5q-2 5 3 12q-6 0 -13.5 3t-9.5 10q-5 0 -7 -2q0 23 11 48q2 2 5.5 4.5l6.5 4.5q7 4 16 2t16 0q10 0 19 3.5t18 3.5t14.5 -3t16.5 -1l9 5.5
t11 2.5q6 0 10 -2t9 1q9 1 15 3t16 -3q10 -7 10.5 -16t2.5 -19q1 -8 3.5 -15.5t0.5 -16.5q0 -13 -7.5 -20t-12.5 -17l-12.5 -22t-15.5 -18t-22 -11t-20 -10l-18.5 -14t-15.5 -17q-9 -3 -11.5 -19t-2.5 -38t2.5 -42t2.5 -29q3 8 4.5 17t3.5 18q3 9 8 17.5t13 13.5q5 6 12 10
t14 7q8 6 15 12.5t17 11.5q10 16 17 31q9 18 9 34q0 5 2.5 15t7.5 20.5t11 17.5t12 7q3 -11 -0.5 -20t-2.5 -21q3 -17 11 -32z" />
    <glyph glyph-name="dollar" unicode="$" horiz-adv-x="1036" 
d="M681 154q-8 -9 -29 -2q-18 6 -53 30.5t-94 82.5q-71 73 -128.5 138.5l-99.5 115.5q-49 58 -87 109q52 -37 112 -84l117 -96l139 -124q59 -60 85.5 -94.5t35.5 -50.5q9 -20 2 -25zM341 309q29 -17 37.5 -18t7.5 6q-2 7 -15 21l-181 187l119 -107l52.5 -47.5l55 -48.5
l53.5 -47.5t50 -42.5q90 -77 143 -105q25 -13 43 -13q15 0 24 11q3 7 -6.5 28t-27.5 51t-42.5 65.5l-49.5 72.5q-60 86 -140 190l64 -57l51.5 -46t37.5 -37q5 -7 10 2t7 21q3 14 5 36l47 -88l17.5 -32t16.5 -28.5l13 -20t7 -7.5q5 0 9.5 12.5t6.5 29.5q3 18 5 43
q23 -50 50 -184q1 -5 1 -11q-4 -77 -30 -103q-8 -8 -19 -12q-11 -5 -25 -5.5t-29.5 1t-30.5 4.5q-36 7 -76 22q-2 0 -15 5.5t-33.5 15l-46.5 21.5l-53 24l-141 68q12 -2 27 -3q11 -2 26.5 -2.5t30.5 -0.5q10 -1 13 -1q19 2 19 7q0 1 -1 2q-9 14 -46 41q-20 13 -45.5 36.5
l-49.5 46.5l-54 55q8 -6 23 -15q12 -8 33 -18.5t52 -24.5zM996 404q4 -24 7 -50.5t3 -50.5q0 -101 -38 -190.5t-105.5 -156.5t-156.5 -105.5t-190 -38.5q-100 0 -188.5 38.5t-154.5 105.5t-104.5 156t-38.5 191q0 90 28 167t80 142l52 -70q-36 -52 -58.5 -112t-22.5 -127
q0 -84 32 -158t87 -128.5t129.5 -86.5t158.5 -32t157.5 32t128.5 86.5t86.5 128.5t31.5 158q0 25 -6 56.5t-9 54.5zM516 709q-68 0 -130.5 -23.5t-116.5 -63.5l-33 27t-29 26q65 52 142 82.5t167 30.5q93 0 174 -30.5t145 -86.5l97 79l48 -298l-299 85l90 75q-52 45 -115 71
t-140 26z" />
    <glyph glyph-name="percent" unicode="%" horiz-adv-x="923" 
d="M713 157q0 -16 -2 -20q-4 -6 -18 -5q-12 1 -22 4t-31 14q-27 15 -43 28l-57 47q-33 28 -74 68q-97 100 -176.5 191l-138.5 161q-68 81 -121 152l155 -117q71 -55 163 -133t192 -172q59 -61 71 -75q48 -56 49 -56q14 -15 35 -48q18 -29 18 -39zM238 353q20 -11 33.5 -16.5
t20.5 -6.5t9 1t1 6q-3 9 -20 29l-252 260l165 -149l73 -65.5l76.5 -67.5l74.5 -66l68 -60q123 -107 199 -146q35 -18 59 -18q22 0 34 16l1 7v2q1 7 -9 29q-14 31 -38 72l-59 92l-69 100l-196 262l90 -78l36.5 -32l34.5 -32.5l30 -28.5t22 -23q8 -8 14 4t9 29q4 20 6 49
l66 -123q12 -24 24.5 -45l23 -38.5t17.5 -27.5t10 -10q8 0 14 18t10 41q4 27 7 59q33 -73 50 -137q12 -44 19 -117q1 -10 1 -20q0 -42 -9 -74q-11 -41 -33 -65q-11 -12 -25 -17q-19 -7 -35 -7h-11q-10 -1 -30 1q-26 4 -43 7q-41 7 -106 30q-2 0 -20.5 7.5t-46.5 21l-64 30
l-73 33.5l-197 93q17 -2 37 -4q17 -2 38 -3t42 -1q3 0 21 -1q24 -1 24 9q0 2 -2 4q-17 24 -64 57q-28 18 -63.5 50.5l-66.5 63.5l-75 78q12 -10 32 -22q17 -11 44.5 -26.5t70.5 -33.5z" />
    <glyph glyph-name="ampersand" unicode="&#x26;" horiz-adv-x="866" 
d="M805 649v-80h31v-547h-31v-79h31v-126h-127v31h-79v-31h-394v31h-79v-31h-127v126h29v79h-29v547h29v80h-29v126h127v-29h79v29h394v-29h79v29h127v-126h-31zM183 392l84 -80v57l-31 23h-53zM267 442v60l-31 25h-53zM183 266l84 -84v54l-31 30h-53zM108 740
q-17 0 -29.5 -12.5t-12.5 -30.5t12.5 -30t29.5 -12q14 0 25.5 11.5t11.5 30.5q0 18 -11.5 30.5t-25.5 12.5zM108 -147q14 0 25.5 13t11.5 29q0 20 -11.5 31t-25.5 11q-17 0 -29.5 -10.5t-12.5 -31.5q0 -16 12.5 -29t29.5 -13zM163 593h-31v-592h31v592zM183 140l84 -86v55
l-31 31h-53zM672 -24h-479v-33h479v33zM395 182v54l-31 30h-55zM395 109l-31 31h-55l86 -86v55zM395 309v60l-31 23h-55zM395 442v60l-31 25h-55zM352 593h-56l-29 -29v-54zM267 436v-52l85 83l-56 -6zM267 309v-60l85 84h-56zM267 175v-55l85 87h-56zM267 49v-56l85 85
l-56 -3zM521 182v54l-24 30h-60zM521 109l-24 31h-60l84 -86v55zM521 309v60l-24 23h-60zM521 442v60l-24 25h-60zM486 593h-58l-28 -29v-54zM400 436v-52l86 83l-58 -6zM400 309v-60l86 84h-58zM400 175v-55l86 87h-58zM400 49v-56l86 85l-58 -3zM654 182v54l-30 30h-55z
M654 109l-30 31h-55l85 -86v55zM654 309v60l-30 23h-55zM654 442v60l-30 25h-55zM618 593h-54l-31 -29v-54zM533 436v-52l85 83l-54 -6zM533 309v-60l85 84h-54zM533 175v-55l85 87h-54zM533 49v-56l85 85l-54 -3zM672 649h-479v-33h479v33zM732 1v592h-29v-592h29z
M756 -147q19 0 30.5 13t11.5 29q0 20 -11 31t-31 11q-14 0 -25 -10.5t-11 -31.5q0 -16 11 -29t25 -13zM756 655q19 0 30.5 11.5t11.5 30.5q0 18 -11 30.5t-31 12.5q-14 0 -25 -12.5t-11 -30.5t11 -30t25 -12z" />
    <glyph glyph-name="parenleft" unicode="(" horiz-adv-x="1014" 
d="M507 621q-24 5 -49.5 8.5t-52.5 3.5q-58 0 -112 -15t-102 -41q51 78 133 124.5t182 46.5q49 0 94.5 -12t86 -34t74 -53t59.5 -69q-48 25 -100.5 39t-109.5 14q-27 0 -52.5 -3.5t-50.5 -8.5zM882 371q0 -44 -10 -84.5t-28 -78.5q-2 57 -17.5 110t-43 99t-65.5 84.5
t-84 66.5q69 -4 129 -31.5t107 -72.5q12 -44 12 -93zM381 568q-47 -29 -85 -67.5t-65.5 -85.5t-43 -101t-16.5 -112q-20 39 -30.5 81t-10.5 88q0 23 3 45t8 45q48 47 109.5 75t130.5 32zM189 70q23 -81 73 -145t119 -106q-70 5 -132 33.5t-110 76.5q-43 54 -71 120t-38 141
v4q0 45 10 85t28 78q2 -85 34 -158t87 -129zM506 -5q-77 0 -143 28.5t-117 77.5q-13 43 -13 93q0 64 20.5 122.5t57.5 106t87 82t109 51.5q59 -17 109.5 -51.5t87 -82t57.5 -106t21 -122.5q0 -23 -3 -45t-8 -45q-51 -51 -119 -80t-146 -29zM984 211q-8 -88 -40.5 -163.5
t-86.5 -135.5q-45 -41 -102 -64.5t-121 -28.5q70 43 120.5 108.5t73.5 146.5q54 58 84.5 131.5t32.5 157.5q17 -35 27 -73t12 -79zM721 -11q-37 -57 -92 -97.5t-122 -59.5q-66 19 -119.5 58.5t-91.5 96.5q47 -26 100 -40t110 -14q59 0 113 14.5t102 41.5z" />
    <glyph glyph-name="parenright" unicode=")" horiz-adv-x="1119" 
d="M610 -78q-2 3 -22 5q-26 3 -50 11v-9q33 -17 54 -17q5 0 8 1t10 1q5 0 0 8zM556 1150l1 10l2 -11l1 -11v9q0 17 2 -5q2 -21 12 -214l13 -227l19 -2q117 -15 208 -79q95 -66 144 -171q35 -74 42 -162l1 -15l9 -1q14 -1 44 -2q35 -1 35 -2t-44 -5l-44 -5l-1 -20
q-10 -165 -123 -283q-91 -95 -211 -123q-47 -11 -108 -11q-64 0 -115 14q-155 42 -250 181q-67 98 -75 223l-1 19l-44 5q-43 4 -43 5l36 2q38 2 44 2l8 1v10q10 99 46 173q42 86 118 148q102 83 238 97l12 1l1 9q0 2 11 220q10 196 12 220zM454 311l-45 90q-10 17 21 -17
q14 -13 25 -22q15 -12 16 -13q3 -3 9 -6l2 -1v5q0 2 -44 91l-19 39l26 -25q46 -65 67 -65q2 0 2 1l1 2l7 114q5 81 5 108v2q-1 1 -17 -1q-107 -13 -190 -89q-84 -76 -107 -179q-3 -14 -10 -62q-1 -7 3 -7h4h5h6h5q19 0 88 4q86 5 112 5l13 3q-5 5 -45 21q-17 7 -21 9
q-10 5 -16 10h1h1l26 -4l23 -4q7 -1 46 -9zM606 393l3 1l3 1q3 0 41 37l46 45l-23 -48q-36 -77 -36 -84v-1h1q17 13 67 56q0 -1 -3 -6l-9 -15q-12 -20 -13 -22q-25 -38 -25 -44v-1v-1q1 0 54 9q47 8 54 8q0 -1 -6 -3l-15 -6q-8 -5 -21 -10q-39 -15 -44 -20q-3 -3 3 -3
q4 0 9 -1q4 0 122 -5l101 -4q1 0 1 4q0 12 -8 53q-20 101 -95 177q-74 75 -176 98q-31 7 -38 7h-1h-1q-5 0 -6 -1v-2q0 -5 5 -108q5 -109 10 -111zM210 185q10 -49 60 -132q36 -59 116 -104l18 -10q8 0 12 102q1 58 2 65l2 15l19 18q34 34 60 72q10 15 13 16.5t18 -1.5
q17 -3 31 -7q20 -6 20 -9t7 -17t7 -23q0 -6 -3 -9t-4 -2q0 3 -5.5 13.5t-5.5 16.5q0 5 -1 6t-7 2t-25 7l-18 7l-3 -4q-6 -8 -10 -16q-10 -17 -23 -23q-6 -3 -3 -5q9 -5 30 -5q7 0 20 1l26 2l9 -7q7 -6 16 -13q8 -6 11.5 -12t0.5 -13l-3 -7l-2 6q-2 9 -21 19q-9 5 -42 6
q-28 1 -42 4q-17 4 -20 3t-11 -12q-9 -13 -8 -14q1 0 7 4l7 4l10 -3q17 -5 41 -6l30 -1l29 -13l29 -13v-16q0 -16 -1 -16t-8 6t-5 10q2 5 2 6q0 6 -57 11q-48 4 -61 9q-11 4 -15 1q-2 -3 -8 -13.5t-5 -11.5t9 3q16 7 27 1q6 -3 6 -3.5t-22 -20.5l-22 -20v-14q0 -11 -11 -55
l-10 -40l11 -4q15 -6 25 -8q5 -1 17 -5q3 -1 3 2.5t8 8.5q24 14 42 30q8 9 11.5 9t25.5 -9q25 -9 38 -9h3q16 0 23 7q2 2 -10 10q-4 3 -12 8q-37 24 -53 26q-7 1 -26 -7q-15 -6 -17.5 -8t-1.5 -5q1 -8 -9 -21l-6 -8v10q0 10 1 24l1 14l33 17l32 17l9 -6q6 -4 22 -16
q45 -37 56 -43l9 -6l3 -18q3 -18 5 -20q1 -1 22 7q131 53 191 175q30 63 36 135l1 13l-9 -2q-19 -1 -121 -11h-2h-1l-2 -1h-1h-2h-1h-2h-2h-1l-112 -13l83 -55q62 -46 62 -48v-1q-2 0 -8 4q-10 7 -55 28l-31 15q-22 10 -29 14q-14 6 -15 7q-16 7 -29.5 22t-14.5 15t-1 -4.5
t-5 -9.5l-5 -5l-6 6q-7 5 -7 12t2.5 7t3.5 3.5t5 3.5q7 0 7 23v15l-7 2q-11 2 -11 7q0 2 7 2q6 0 7.5 3.5t1.5 17.5q0 13 -3.5 16t-4.5 8q0 5 -4 5q-3 -1 -3.5 2.5t-0.5 22.5q0 26 -1 26q-3 0 -65 -47l-33 -25v-14q0 -14 -2 -15q-3 -1 -3 -12t2 -24t-1 -20q-2 -5 -15 -20
l-14 -16l-49 -24l-91 -42q5 5 65 47q61 43 64 45l5 4l-8 1q-27 3 -131 13l-119 11q-3 -1 -3 -8v-1q0 -14 10 -55zM579 358q5 4 5.5 4t0.5 -41v-40h-6h-5v37v37zM544 331q4 6 4 -27v-23h-18q-15 0 -17.5 1.5t-2.5 11.5q0 13 20 27q12 7 14 10zM572 271l9 1h11v-14v-14h-6
q-12 0 -12 16q0 10 -2 11zM513 250v10h19h19v-14v-13l-5 1q-3 1 -19 3l-14 2v11zM509 82q12 3 24 3h11l25 -18q25 -18 25 -19t-4 -3q-4 -1 -16 6q-24 14 -60 23l-19 5z" />
    <glyph glyph-name="asterisk" unicode="*" horiz-adv-x="997" 
d="M497 752q98 0 183.5 -37t149.5 -101t100.5 -150t36.5 -183q0 -96 -36.5 -181t-100.5 -148.5t-149.5 -100t-183.5 -36.5q-97 0 -182 36.5t-148.5 100t-100 148.5t-36.5 181q0 97 36.5 183t100 150t148.5 101t182 37zM783 -45q18 13 32 28t28 32l-11 35l35 61l36 9
q5 8 8 17.5l6 18.5l-39 -11l-26 64l29 51l43 -3l8 -31q3 27 3 55q0 30 -3 51l-8 -35l-43 -4l-29 53l26 63l42 -13l-8 25.5t-9 25.5l-36 8l-35 61l11 34l-28 32.5t-32 28.5l31 -47l-14 -33l-64 12l-28 54l20 34l52 -13q-24 18 -49.5 34.5t-55.5 30.5l27 -36l-22 -32l-67 7
l-39 50l28 33l14 -2q-13 4 -27.5 7.5t-28.5 4.5l-25 -27h-71l-24 27q-16 -1 -30.5 -4.5t-28.5 -7.5l15 2l27 -33l-39 -50l-67 -7l-22 32l29 36q-30 -14 -56.5 -30.5t-50.5 -34.5l53 13l21 -34l-29 -54l-65 -12l-14 33l31 47q-17 -13 -31.5 -28t-28.5 -32l13 -35l-35 -61
l-38 -8q-5 -13 -8.5 -25.5t-8.5 -25.5l43 13l27 -63l-30 -53l-43 4l-9 35q-1 -11 -2 -24t-1 -27q0 -13 1 -27l2 -28l9 31l43 3l30 -51l-27 -64l-39 11q2 -9 5.5 -18.5t7.5 -17.5l38 -9l35 -61l-13 -35q14 -17 28.5 -32.5t31.5 -27.5l-31 47l14 33l65 -11l29 -55l-21 -33
l-53 13q24 -19 50.5 -35.5t56.5 -30.5l-29 36l22 31l67 -6l39 -50l-27 -33l-15 2q26 -8 59 -13l24 29h71l25 -28q14 2 28.5 4.5t27.5 7.5l-14 -2l-28 33l39 50l67 6l22 -31l-27 -36q30 14 55.5 30.5t49.5 35.5l-52 -13l-20 33l28 55l64 11l14 -33zM574 275l-36 -64h-78
l-37 64l37 67h78zM538 383h-77l-38 59l38 60h77l36 -60zM461 551l-38 46l38 47h77l36 -47l-36 -46h-77zM538 2l36 -47l-36 -47h-77l-38 47l38 47h77zM183 370l-22 57l39 67l59 8l21 -55l-38 -66zM836 124l-37 -65l-60 -10l-19 57l37 66l59 8zM242 172l38 -66l-21 -57l-59 10
l-39 65l22 56zM757 381l-37 64l19 57l60 -8l37 -67l-20 -57zM461 174h77l36 -58l-36 -60h-77l-38 60zM320 295l-33 62l40 66l69 1l32 -60l-38 -66zM678 262l34 -61l-40 -66l-69 -4l-32 63l38 64zM327 135l-40 64l33 63l70 -4l38 -64l-32 -63zM609 298l-38 66l32 60l69 -1
l40 -66l-34 -62zM571 533l38 46l63 -6l40 -54l-28 -53h-75zM314 466l-22 56l38 53l66 4l32 -48l-38 -65h-76zM249 342l38 -67l-38 -64l-60 8l-28 59l28 61zM435 22l-38 -48l-63 5l-39 55l26 53h76zM684 88l24 -56l-39 -53l-66 -5l-32 50l38 64h75zM755 212l-36 66l36 68
l61 -10l27 -59l-29 -62z" />
    <glyph glyph-name="plus" unicode="+" horiz-adv-x="901" 
d="M691 485l-92 -88l113 53l15.5 -32t12.5 -35l-120 -53l131 14q0 -14 1.5 -24.5t1.5 -21.5t-1.5 -19.5t-1.5 -19.5l-124 4l117 -43q-5 -19 -13 -39t-19 -39l-113 53l92 -81q-14 -16 -27.5 -29t-29.5 -24l-85 89l53 -114l-32 -15.5t-35 -12.5l-53 120l11 -131
q-11 0 -21.5 -1.5t-21.5 -1.5t-21 1.5t-21 1.5l14 131l-53 -120q-19 5 -36.5 11t-34.5 17l57 114l-88 -92q-17 13 -30 26t-24 27l89 84l-113 -53q-11 19 -19 38t-13 40l120 43l-127 -4q-3 11 -3.5 19.5t-0.5 19.5t2 23t2 23l131 -14l-121 53l8 23q4 11 9 23.5t12 24.5
l116 -57l-95 88l27 28t30 25l81 -91l-50 113q17 11 37 18.5t41 13.5l39 -117v124q8 2 16 2.5t19 0.5t19.5 -0.5t19.5 -2.5l-3 -124l42 117q19 -6 39 -13.5t39 -18.5l-53 -113l85 91zM811 507v-414l-361 -212l-360 212v414l360 212zM450 -24q66 0 125 25.5t102.5 69t69 102.5
t25.5 125t-25.5 125t-69 102.5t-102.5 69t-125 25.5t-124.5 -25.5t-102 -69t-69 -102.5t-25.5 -125t25.5 -125t69 -102.5t102 -69t124.5 -25.5zM871 542v-484l-421 -244l-420 247v481l420 244zM839 524l-389 227l-392 -227v-445l392 -230l389 226v449z" />
    <glyph glyph-name="one" unicode="1" horiz-adv-x="827" 
d="M30 239l131 136l-114 108l87 91l114 -110l130 137l136 -483zM797 -50h-127v38q0 20 -1.5 44.5t-5.5 56.5q-5 32 -12.5 67.5l-15.5 75.5q-11 42 -25 84t-34 85t-43.5 88t-55.5 90q-61 90 -148 168l82 97q51 -48 93.5 -94.5t75.5 -94.5q70 -101 114 -198q21 -48 36.5 -94
t25.5 -93q26 -89 32 -157q5 -35 7 -63.5t2 -50.5v-49z" />
    <glyph glyph-name="two" unicode="2" horiz-adv-x="809" 
d="M779 381l-126 -222l-126 -214l-124 214l-128 222h191v220q-5 31 -17 56q-8 14 -15 25t-18 21q-10 9 -22 18t-25 14q-27 10 -56 10q-17 0 -32.5 -2.5t-29.5 -10.5q-12 -5 -24.5 -13t-23.5 -19q-21 -21 -35 -48q-5 -14 -8 -28t-3 -31v-584h-127v584q0 29 5 55.5t18 52.5
q21 52 59 91q20 18 41.5 34t47.5 27q26 10 54 15.5t58 5.5q28 0 55.5 -5.5t52.5 -15.5q26 -11 48 -27t42 -34q36 -41 57 -91q11 -26 18 -52.5t7 -55.5v-212h186z" />
    <glyph glyph-name="three" unicode="3" horiz-adv-x="827" 
d="M797 239l-484 -121l136 483l130 -137l114 110l87 -91l-114 -108zM30 -1q0 22 2 50.5t7 63.5q6 68 32 157q10 47 25.5 93t36.5 94q43 97 114 198q33 48 75.5 94.5t93.5 94.5l82 -97q-87 -78 -148 -168q-32 -45 -55.5 -90t-43.5 -88t-34 -85t-25 -84l-15.5 -75.5
t-12.5 -67.5q-4 -32 -5.5 -56.5t-1.5 -44.5v-38h-127v49z" />
    <glyph glyph-name="four" unicode="4" horiz-adv-x="893" 
d="M465 664h398v-719h-127v592h-271v-193l-217 127l-218 125l218 127l217 125v-184z" />
    <glyph glyph-name="five" unicode="5" horiz-adv-x="608" 
d="M30 110v549h548v-549h-548z" />
    <glyph glyph-name="six" unicode="6" horiz-adv-x="893" 
d="M428 848l217 -125l218 -127l-218 -125l-217 -127v193h-271v-592h-127v719h398v184z" />
    <glyph glyph-name="seven" unicode="7" horiz-adv-x="627" 
d="M471 -55q0 83 -11.5 162.5t-33.5 156.5q-45 153 -134 291l-133 -134l-65 246l-64 242l240 -65l245 -64l-129 -129q52 -80 90.5 -164t67.5 -175q53 -180 53 -367h-126z" />
    <glyph glyph-name="eight" unicode="8" horiz-adv-x="564" 
d="M345 610v-660h-125v660h-190l128 217l124 219l127 -219l125 -217h-189z" />
    <glyph glyph-name="nine" unicode="9" horiz-adv-x="627" 
d="M30 -55q0 187 53 367q29 91 67.5 175t90.5 164l-129 129l245 64l240 65l-64 -242l-65 -246l-133 134q-89 -138 -134 -291q-22 -77 -33.5 -156.5t-11.5 -162.5h-126z" />
    <glyph glyph-name="colon" unicode=":" horiz-adv-x="833" 
d="M532 317l-249 -447l-253 447h188v160h127v-160h187zM676 607h-461v133h588v-736h-127v603z" />
    <glyph glyph-name="semicolon" unicode=";" horiz-adv-x="833" 
d="M488 317v160h127v-160h188l-253 -447l-249 447h187zM157 4h-127v736h588v-133h-461v-603z" />
    <glyph glyph-name="less" unicode="&#x3c;" horiz-adv-x="665" 
d="M507 136q-6 -9 -27 -2q-10 3 -22 10q-10 5 -30 20q-9 6 -19 14l-22 18q-23 19 -51 48q-35 35 -65.5 68.5l-58.5 65.5l-52.5 60.5l-44.5 52.5l-44.5 55l-40.5 51q52 -37 109 -82l114 -93q64 -54 135 -120l26.5 -28l23.5 -25q11 -11 19 -21l15 -18t12 -15.5t10 -13.5
q4 -6 7 -11t5 -9q9 -19 1 -25zM564 10q-7 -1 -14 -0.5t-15 1.5t-15 2t-15 3q-29 7 -36 8q-9 1 -39 12q-1 0 -14 6q-12 4 -33 15l-21 10l-23 10l-51 24q-62 28 -138 66q6 -1 12 -1.5t14 -1.5q6 -1 12 -1.5t14 -1.5h29q9 -1 16 -1q16 0 16 6q0 1 -1 3q-6 12 -46 40
q-18 12 -44 35l-24 22.5l-23 22.5l-25.5 27.5l-26.5 27.5q8 -7 22 -16q6 -4 14 -8.5t18 -9.5l22 -11l27 -13q8 -4 13.5 -6.5t10.5 -4.5q10 -5 14 -5q4 -1 6 1q1 1 1 4q-3 5 -5 8q-4 7 -9 12l-177 182l58 -52l58 -52l24 -23l27 -23q14 -11 27 -23l27 -24l26.5 -23.5
l25.5 -22.5l48 -42q86 -77 139 -103q26 -13 42 -13q16 1 23 11q4 6 -5 28q-5 11 -11.5 23t-15.5 27q-17 30 -41 64l-24 35t-25 35q-29 42 -63.5 87.5l-73.5 96.5l63 -54l13 -11.5l13 -11.5l12 -11.5l12 -11.5q6 -5 11 -10l10 -10l16 -16q6 -6 9 3q5 9 6 20q2 8 3 16.5
t2 18.5l23.5 -45.5l22.5 -40.5q7 -15 17 -32l9 -14.5t7 -12.5q4 -6 7 -11t6 -8q7 -7 7 -8q1 -6 9 13q3 9 7 29q3 16 3 19l2 23q12 -26 20 -50q7 -19 15 -47q14 -48 14 -82v-9v-7v-6v-4v-3q0 -7 -3 -26q-9 -56 -68 -73zM581 682v-77l-223 121l-222 -121v77l222 121zM457 632
v-61l-99 54l-99 -54v61l99 54zM358 -267l-222 122v77l222 -122l223 122v-77zM358 -150l-99 54v62l99 -54l99 54v-62z" />
    <glyph glyph-name="greater" unicode="&#x3e;" horiz-adv-x="966" 
d="M165 576l20 67l108 32l43 -44l-108 -32l-16 -57l43 -35l114 -93l66 -58q51 -45 69 -63l26.5 -27.5l23.5 -24.5t19 -21l15 -18l12.5 -16t9.5 -13q4 -7 7 -11.5t5 -9.5q8 -19 1 -24q-6 -10 -27 -2q-11 4 -21 10q-9 4 -15 8l-16 11q-5 3 -19 15l-21 18q-11 11 -25 22
q-5 4 -27 26q-48 48 -66 68l-58 66q-42 50 -52 60q-24 24 -64 76l-8 11l-8 -26l-43 43l10 34l-16 18q12 -6 18 -10zM292 278l24 -12q5 -2 8.5 -3t5.5 -1q4 -2 6 0q1 1 1 5q-2 3 -5 8t-9 12l-176 182l57.5 -52l57.5 -52l25.5 -22.5l25.5 -23.5l27 -24t27 -23q14 -12 26.5 -24
t25.5 -23l48 -42q89 -77 139 -102q26 -13 42 -13t24 11q3 7 -6 27q-10 23 -27 50q-8 15 -18.5 31l-22.5 34l-23.5 35l-24.5 35l-64.5 87.5l-73.5 96.5l64 -55l12.5 -10.5t12.5 -11.5l12 -12l12 -11l11 -10l10 -10l9 -9l7 -7q6 -6 9 3q3 6 7 20l2 16l2 19l24 -45.5l22 -41.5
q5 -8 8.5 -15.5t8.5 -15.5l9 -14.5l8 -12.5q5 -11 12 -20q4 -7 7 -7q6 0 10 13q2 6 3.5 13.5t2.5 15.5q2 9 3 19.5l2 21.5q12 -26 20 -50q7 -19 15 -46q14 -47 14 -83v-14v-9v-6v-5v-2q1 -7 -6 -29q-10 -31 -23 -46q-6 -8 -18 -12q-5 -2 -11 -3t-13 -1q-7 -1 -13.5 -0.5
t-14.5 1.5t-15.5 1.5t-15.5 2.5q-36 8 -74 21q-2 0 -15 6q-6 2 -14 5.5t-18 8.5t-21.5 10t-23.5 11l-51 24l-65.5 30.5l-72.5 34.5q6 -1 12.5 -1.5t13.5 -1.5q6 -1 12.5 -1t13.5 -1q8 0 15 -0.5t15 -0.5q10 -1 13 -1q18 2 18 7q0 1 -1 3q-5 10 -45 40q-18 11 -45 35
l-24 22.5l-23 22.5q-25 25 -52 55q8 -7 22 -16l14 -9t18 -10l22 -10.5zM936 482l-54 -54l-72 243l-243 72l54 54l243 -71zM814 534l-44 -43l-32 108l-108 32l43 44l109 -32zM102 726l243 71l54 -54l-243 -72l-71 -243l-55 54z" />
    <glyph glyph-name="at" unicode="@" horiz-adv-x="1009" 
d="M879 83q11 20 19 40.5t13 45.5q8 26 11 53t3 53q0 29 -3 56.5t-11 53.5q-5 23 -13 43t-19 42l-18 -11q10 -19 18 -38.5t15 -39.5l-50 -14q12 -44 12 -92q0 -46 -12 -89l50 -14q-14 -43 -33 -79zM802 -21q16 15 30.5 33t25.5 37l-16 10q-11 -19 -24 -35.5t-30 -30.5
l-34 35q-32 -32 -72.5 -55.5t-85.5 -36.5l12 -47q-42 -12 -87 -15v-18q23 0 46.5 4t46.5 10q55 14 102.5 42.5t85.5 66.5zM481 -124q-42 0 -79 13l11 47q-91 26 -158 92l-34 -35q-32 28 -54 66l-15 -10q11 -19 25 -37t30 -33q38 -38 86 -66.5t102 -42.5q22 -6 43.5 -9
t42.5 -5v20zM148 93q-19 36 -33 79l51 14q-13 42 -13 89q0 50 13 92l-51 14q7 20 15 39.5t18 38.5l-17 11q-12 -22 -20 -42t-13 -43q-14 -53 -14 -110q0 -26 3 -53t11 -53q10 -47 33 -86zM207 573q-16 -14 -30 -32t-25 -37l15 -10q11 18 24.5 35t29.5 30l34 -34q33 32 73 56
t85 36l-11 48q17 5 38 8.5t41 4.5v18q-21 -1 -42.5 -4t-43.5 -10q-54 -13 -102 -42t-86 -67zM648 275q0 10 -1.5 19.5t-2.5 18.5l144 39q-10 38 -29.5 72t-45.5 60l-107 -107q-13 14 -30 23t-36 15l40 144q-18 4 -37 7t-37 3q-20 0 -39.5 -3t-37.5 -7l40 -144
q-19 -6 -35.5 -15t-30.5 -23l-107 107q-26 -26 -45 -60t-29 -72l147 -39q-7 -17 -7 -38q0 -8 1.5 -17.5t5.5 -17.5l-147 -40q10 -37 29 -70t45 -62l107 108q14 -12 30.5 -22t35.5 -14l-40 -147q18 -5 37.5 -7.5t39.5 -2.5q18 0 37 2.5t37 7.5l-40 147q19 4 36 13t30 23
l107 -108q26 28 45.5 61t29.5 71l-144 40q1 8 2.5 17.5t1.5 17.5zM521 678q23 -1 44.5 -4.5t42.5 -8.5l-12 -48q45 -12 85.5 -36t72.5 -56l34 35q17 -14 30 -31t24 -35l16 10q-11 19 -25.5 37t-30.5 32q-38 38 -85.5 67.5t-102.5 44.5q-23 5 -46.5 8t-46.5 3v-18zM963 399
q8 -29 12 -60t4 -64q0 -32 -4 -63t-12 -60q-17 -60 -48 -113.5t-75 -97.5q-43 -45 -97.5 -75.5t-115.5 -47.5q-29 -8 -59.5 -12t-61.5 -4q-33 0 -63.5 4t-59.5 12q-62 17 -116.5 47.5t-97.5 75.5q-43 44 -74.5 97.5t-48.5 113.5q-8 29 -12 60t-4 63q0 33 4 64t12 60
q17 62 48.5 115.5t74.5 96.5q43 45 97.5 75.5t116.5 47.5q55 16 123 16q31 0 61.5 -4t59.5 -12q61 -17 115.5 -47.5t97.5 -75.5q44 -43 75 -96.5t48 -115.5z" />
    <glyph glyph-name="A" unicode="A" 
d="M132 580q130 158 337 158q182 0 310.5 -128.5t128.5 -310.5t-128.5 -310.5t-310.5 -128.5t-310.5 129t-128.5 310q0 161 102 281zM170 558q-95 -108 -95 -256q0 -62 16 -113h64l1 -58l-1 -17v-52q16 -20 26 -30v154v10q0 75 35 139.5t94 104.5v103h-62q27 33 58 57
q32 24 49 30l18 6v-93h-33v-85q64 33 136 33q122 0 208.5 -86.5t86.5 -208.5v-8v-128h12q4 5 7 8t6 8l8 13v97h45q17 57 17 116q0 164 -116 279.5t-280 115.5q-182 0 -300 -139zM479 468q-43 0 -73.5 -5t-30.5 -13t30 -13.5t74 -5.5q43 0 73 5.5t30 13.5q0 7 -30 12.5
t-73 5.5zM391 393v-189h230v189h-230zM491 346q19 0 33 -14t14 -34t-13.5 -34t-33.5 -14t-34 14t-14 34t14 34t34 14zM198 177v-71h552v71h-552zM296 79v-127q35 -17 68 -28t49 -13l15 -2v170h-132z" />
    <glyph glyph-name="B" unicode="B" 
d="M460 740h8q108 0 201 -48q108 -54 173.5 -160.5t65.5 -227.5q0 -17 -1 -26q-5 -130 -87 -239.5t-206 -151.5q-68 -25 -144 -25q-90 0 -174.5 35.5t-145.5 100.5q-120 123 -120 305q0 91 34 169q48 118 158.5 192.5t237.5 75.5zM462 699q-120 -1 -222.5 -73.5
t-142.5 -185.5q-24 -66 -24 -134q0 -91 40 -175.5t112 -138.5q102 -84 245 -84q129 0 229 73q78 53 122 141t44 184q0 58 -15 106q-33 123 -140.5 205t-235.5 82h-5h-7zM633 593q24 -1 54 -9q31 -6 46 -30.5t15 -56.5q0 -2 -0.5 -6t-0.5 -5q6 -13 6 -31q0 -27 -19 -51
q-1 -6 -3.5 -24.5t-4.5 -30t-9 -26t-18 -22.5q-13 0 -19 -7.5t-7 -16.5t-6.5 -20t-15.5 -17q-3 -15 -13.5 -28t-20 -20.5t-24.5 -16.5t-18 -11q-17 0 -25 -10.5t-15 -27.5t-17 -25q-12 -18 -48.5 -28t-45.5 -18q-24 -31 -59 -31q-10 0 -21 3q-21 -8 -40 -8q-44 0 -78 32.5
t-34 82.5q2 15 2.5 35t2.5 31.5t11 23.5q32 15 32 53v9l8 16l9 18l10 15l13 15l14 8l17 4h6q10 5 15 23.5t14 25.5q34 46 111 75q1 3 6 16t8.5 21t12.5 17t20 12q25 2 66 20t53 21h10zM659 575q-11 -4 -25 -18q4 -2 16.5 -9t18 -11t15.5 -12t18.5 -18.5t17.5 -24.5
q4 3 12 26q-21 49 -73 67zM533 549q-8 -3 -14 -7t-8 -6.5t-5.5 -7.5t-4.5 -6h14q43 0 75 -11.5t53.5 -35.5t33.5 -47t26 -60q4 0 15 24q-22 73 -64 114.5t-121 42.5zM512 466q-15 0 -26 -3l38 -57q11 1 24 -2l23 45q-25 17 -59 17zM471 461q-5 -1 -10 -2.5t-8 -3.5t-6 -5.5
t-5 -5.5t-4 -6.5t-2.5 -6.5t-2.5 -7.5t-2 -6.5l65 -22q4 9 16 10zM583 442l-24 -45q14 -11 20 -21l56 -2q-9 40 -52 68zM385 426q-12 -6 -20 -17.5t-10 -19l-7 -25.5q16 -1 32 -10q-5 25 -5 35q0 8 1.5 14.5t4.5 13t4 9.5zM429 406v-8q0 -23 18 -50l46 17q-2 15 -1 21z
M582 363q1 -7 -1 -21l50 -46q12 26 12 45q0 5 -2 21zM498 355l-44 -19q11 -24 38 -40l25 40q-14 7 -19 19zM306 347q-6 0 -11 -2.5t-11 -7t-9 -6.5q-14 -14 -14 -22v-3q4 0 16 7.5t31 10.5q79 -14 133.5 -85t54.5 -113v-5v-2q0 -7 -2 -12.5t-6.5 -12t-5.5 -9.5q13 2 26 19
q0 2 3.5 13t3.5 17q0 7 -4 18q0 12 -22 52.5t-52 67.5q-46 42 -73.5 58t-54.5 17h-3zM575 334q-3 -5 -18 -7l10 -57q33 0 53 17zM526 332l-25 -45q24 -17 52 -17h3l-8 57q-8 -1 -22 5zM265 266q-7 0 -10 -1q-9 -17 -13 -32q20 -3 32 -6t31 -14.5t38 -31.5q22 20 28 30
q-49 55 -104 55h-2zM596 213q-19 -4 -36 -4q-19 0 -28 4v-15q0 -14 5 -18q48 15 59 33zM389 189q-12 -6 -35 -29q36 -34 47 -99q13 6 31 18v7q0 63 -43 103zM215 181q-4 0 -6 -1q-6 -4 -5 -20l16 1q4 8 4 19q-6 2 -9 1zM241 173q-3 -4 -5 -7.5t-3 -6t-2 -3.5q1 -1 11.5 -7
t15.5 -9.5l14 -10t16.5 -14.5t13.5 -17q10 3 18 13q-39 47 -79 62zM213 114q-7 1 -10 -3q-2 -4 -2 -7q0 -19 27.5 -48t47.5 -29q4 0 6 1q3 6 3 11q0 21 -27 47.5t-45 27.5zM215 102q13 -1 36 -22t23 -33q0 -3 -1 -4q-3 -1 -7 -1q-18 0 -37 22.5t-19 33.5q0 2 2 2q2 2 3 2z
M335 92l-18 -15l2 -1q2 -1 2.5 -2t2 -3.5t2.5 -6t2 -10t1 -14.5q1 0 18 4q0 1 0.5 3.5t0.5 4.5q0 18 -13 40z" />
    <glyph glyph-name="C" unicode="C" 
d="M756 -35q-121 -106 -287 -106q-182 0 -310.5 128.5t-128.5 310.5t129 310.5t310 128.5t310 -128.5t129 -310.5q0 -199 -152 -333zM226 612q-142 -113 -151 -285l37 -17l134 39l20 -71l-93 -23l16 -18l85 21l15 -56l-42 -12q5 -10 10 -11l192 44l14 -51l-256 -102l-19 -47
q116 -118 282 -118q164 0 279.5 116t115.5 280q0 163 -115.5 279t-279.5 116q-139 0 -244 -84zM620 532q2 0 5 -0.5t4 -0.5q6 -8 0 -14q-78 -44 -78 -125q0 -34 16 -64q18 -37 51.5 -58.5t67.5 -21.5q12 0 18 1q9 -7 4 -20q-20 -16 -64 -16q-12 0 -36 2q-17 3 -35 16
q-17 13 -28 18.5t-22 7.5t-13 3l-15 45q12 13 12 27q0 12 -8 22t-20 12l-11 36q23 27 44 69q4 7 12.5 15.5t12.5 13.5q2 1 12.5 8l14.5 9.5t14 6.5t20 6t22 2zM780 423q-65 -39 -183 -103q-29 17 -29 65q0 3 0.5 8.5t0.5 8.5q47 4 211 21zM452 395l9 -34q-16 -3 -17 -23
l-163 -42l-14 47zM457 305q5 -7 21 -7l11 -36l-184 -55l-13 51zM137 283l-61 -16q0 -8 2 -24l82 20q1 6 -2 9q-1 1 -1 2q-6 -1 -9 0t-4 1zM96 193q-1 0 -3.5 -0.5t-3.5 -0.5q5 -17 17 -49l4 2q13 13 13 26q0 10 -7.5 16t-18.5 6h-1zM206 114l-74 -19q7 -14 14 -21
q41 10 46 12q12 21 14 28z" />
    <glyph glyph-name="E" unicode="E" 
d="M600 58l17 -54l-55 16q-3 -5 -17 -10q13 -19 30 -36l-21 2q-9 11 -14 20.5t-10.5 21.5t-7.5 16l-4 -2q21 -59 42 -76h-80h-79q19 15 42 76l-5 2q-2 -5 -7 -16.5t-10 -21t-14 -20.5l-23 -1q24 24 32 35q-16 5 -19 11l-53 -16q19 43 22 47q-6 0 -12 9t-4 14
q-24 -17 -35 -30l1 22q11 9 20.5 14t21 10t16.5 7l-1 5q-58 -21 -77 -42v79v79q19 -21 77 -42l1 5q-5 2 -16.5 7t-21 10t-20.5 14l-1 22q11 -13 35 -30l11 17q-17 53 -17 54l55 -16q2 5 17 10q-16 22 -32 36l23 -2q9 -11 31 -58l5 2q-23 61 -42 76h79h80q-21 -17 -42 -76
l4 -2q21 44 32 58l21 2q-17 -17 -30 -36q14 -5 17 -10l55 16l-17 -54q5 -3 10 -17q27 19 35 30l-1 -22q-11 -9 -58 -31l2 -5q59 22 76 42v-79v-79q-17 20 -76 42l-2 -5q47 -22 58 -31l1 -22q-8 11 -35 30q-5 -14 -10 -17zM469 741q181 0 310 -128.5t129 -310.5t-129 -310.5
t-310 -128.5q-182 0 -310.5 128.5t-128.5 310.5t128.5 310.5t310.5 128.5zM470 700q-164 0 -280 -116t-116 -279q0 -164 116 -280t280 -116t279.5 116t115.5 280q0 163 -116 279t-279 116zM317 622h327v-38h-18v-142l-144 -107l-148 108v142h-18zM435 589v-198l47 -31l42 29
v200h-89zM480 247q-37 0 -67 -23l51 -52q10 5 18 5q9 0 17 -5l49 50q-30 25 -68 25zM398 208q-24 -29 -24 -67q0 -37 25 -69l51 52q-4 7 -4 17q0 9 4 14zM564 206l-49 -50q3 -6 3 -15q0 -11 -4 -18l49 -49q23 30 23 67t-22 65zM466 108l-51 -51q30 -22 65 -22q37 0 66 24
l-49 49q-7 -3 -15 -3t-16 3z" />
    <glyph glyph-name="G" unicode="G" horiz-adv-x="939" 
d="M461 736q4 1 8 0h6q101 0 194 -48q108 -53 174 -160t66 -228q0 -17 -1 -26q-5 -131 -87 -240.5t-206 -151.5q-68 -25 -143 -25q-91 0 -175.5 36t-145.5 101q-58 59 -89.5 139.5t-31.5 165.5q0 91 34 169q48 118 158.5 192.5t238.5 75.5zM462 695q-120 -1 -222 -73.5
t-142 -185.5q-24 -64 -24 -134q0 -92 40 -176t111 -138q105 -85 245 -85q129 0 229 73q78 54 122.5 142t44.5 184q0 55 -15 106q-33 123 -140 205t-235 82h-6h-8zM227 438l75 -42l1 -88q-3 1 -7 1q-12 0 -25 -22l-63 35l-4 104q11 2 23 12zM236 464v10l112 47l62 -34
q-15 -11 -15 -25q0 -9 8 -17l-84 -30zM374 531l94 36h50l79 -42l-70 -29q-34 6 -51 6q-23 0 -39 -5zM424 461q-1 1 -1 4q0 8 17.5 13.5t38.5 5.5q28 0 41 -10q4 -4 4 -11q0 -20 -46 -21q-50 5 -54 19zM543 478l81 31l85 -42l-3 -20l-102 -44l-64 36q11 9 11 20q0 8 -8 19z
M426 432q23 -10 47 -10q14 0 42 6l61 -34l-95 -41q-18 5 -36 5q-3 0 -9 -0.5t-9 -0.5l-83 43zM432 334l38 -3l-20 -26zM325 382l86 -51q14 -30 24 -38l2 -106l-66 39q-17 62 -45 76zM300 286q2 1 7 1q24 0 43 -66q-1 -20 -12 -20q-7 0 -16 6q-32 25 -32 53q0 15 10 26z
M208 298l63 -36v-6q0 -39 39 -68l4 -75l-77 51l-23 39zM332 177q8 -3 13 -3q18 0 28 25l63 -39l5 -110q-12 -4 -18 -8l-85 57zM463 154l86 38q0 -10 7.5 -16.5t13 -8l20.5 -5.5l3 -79l-101 -48q-12 12 -26 14zM465 184l-4 105q26 33 31 40l101 41l-2 -84q-39 -19 -48 -73z
M604 265q14 7 20 7q16 0 16 -23q0 -1 -0.5 -5t-0.5 -5q-18 -48 -50 -48q-10 0 -18 4q-2 12 -2 17q0 33 35 53zM615 296l-2 85l109 41l18 -12l-1 -112l-78 -29q-7 28 -35 28q-2 0 -5.5 -0.5t-5.5 -0.5zM738 273v-99q-21 -32 -27 -40l-95 -39v74l21.5 15.5t16 21t10.5 36.5z
" />
    <glyph glyph-name="H" unicode="H" horiz-adv-x="939" 
d="M461 734q4 1 8 0h6q101 0 194 -48q108 -53 174 -160t66 -228q0 -17 -1 -26q-5 -131 -87 -240.5t-206 -151.5q-68 -25 -143 -25q-91 0 -175.5 36t-145.5 101q-58 59 -89.5 139.5t-31.5 165.5q0 91 34 169q48 118 158.5 192.5t238.5 75.5zM462 693q-120 -1 -222 -73.5
t-142 -185.5q-24 -64 -24 -134q0 -92 40 -176t111 -138q105 -85 245 -85q129 0 229 73q78 54 122.5 142t44.5 184q0 55 -15 106q-33 123 -140 205t-235 82h-6h-8zM458 649q7 0 10 -1h3q3 1 10 1q77 -1 162 -49v-181q-51 -30 -109 -37v85l11 3v80q-30 18 -76 20
q-45 -3 -75 -20v-80l11 -3v-85q-57 7 -110 37v181q87 48 163 49zM201 470v-87q17 -10 38 -18t34.5 -11t42.5 -8.5t37 -7.5v-43v-43q-8 -2 -37 -7.5t-42.5 -8.5t-34.5 -11t-38 -18v-87q-50 12 -93 63v112v112q43 51 93 63zM737 470q50 -12 93 -63v-112v-112q-43 -51 -93 -63
v87q-16 10 -37.5 18t-34 11t-42 8.5t-37.5 7.5v43v43q8 2 37.5 7.5t42 8.5t34 11t37.5 18v87zM405 208v-85l-11 -3v-80q30 -17 75 -20q46 2 76 20v80l-11 3v85q60 -7 109 -38v-180q-85 -48 -162 -49h-10h-3h-10q-76 1 -163 49v180q51 31 110 38z" />
    <glyph glyph-name="I" unicode="I" horiz-adv-x="939" 
d="M174 622q126 114 296 114q182 0 310.5 -129t128.5 -311t-128.5 -311t-310.5 -129t-311 129t-129 311q0 193 144 326zM210 597q-136 -120 -136 -299q0 -164 116 -280t280 -116t280 116t116 280t-116 280t-280 116q-150 0 -260 -97zM341 640h25v-122h68v122h25v-122h241
l-230 -570h-110l176 442h-77v-126h-25v126h-68v-126h-25v126h-32v128h32v122z" />
    <glyph glyph-name="M" unicode="M" 
d="M469 741q181 0 310 -128.5t129 -310.5t-129 -310.5t-310 -128.5q-182 0 -310.5 128.5t-128.5 310.5t128.5 310.5t310.5 128.5zM470 700q-164 0 -280 -116t-116 -279q0 -164 116 -280t280 -116t279.5 116t115.5 280q0 163 -116 279t-279 116zM634 614q8 -21 8 -49
q0 -71 -33 -156l-173 -375l-18 9l-20 -39l-96 47l18 39l-16 9l185 367q16 26 26.5 41.5t30 40t41.5 41.5t47 25zM514 453l-76 -156l20 -8l75 155zM564 430l-76 -158l20 -6l74 154zM344 266l-58 -122l-84 4l46 100zM538 171l46 -87l-45 -95l-57 59z" />
    <glyph glyph-name="P" unicode="P" 
d="M578 173q1 21 1 32v6q0 11 -8 19t-19 8q-25 0 -28 -25l-1 -19l-1 -13v-7q0 -11 8.5 -19t19.5 -8t19 7.5t9 18.5zM469 739q181 0 310 -128.5t129 -310.5t-129 -310.5t-310 -128.5q-182 0 -310.5 128.5t-128.5 310.5t128.5 310.5t310.5 128.5zM470 698q-164 0 -280 -116
t-116 -279q0 -164 116 -280t280 -116t279.5 116t115.5 280q0 163 -116 279t-279 116zM595 546q10 0 13 -10l26 -402q-3 -20 -9.5 -35t-12.5 -24t-18.5 -17t-18.5 -10.5t-22 -8t-21 -7.5q-30 -5 -54 -5q-156 0 -261 163q-22 34 -22 63q0 39 39 80l354 211q1 0 3.5 1t3.5 1z
M343 360q-15 0 -23 -11l-22 -18q-14 -11 -14 -25q0 -11 8 -19.5t20 -8.5q15 0 22 12l21 18q15 8 15 24q0 12 -8 20t-19 8zM452 224l4 7q3 9 3 14q0 28 -27 28q-8 0 -15 -5.5t-10 -11.5l-3 -5l-12 -23q-3 -12 -3 -14q0 -11 8.5 -18.5t19.5 -7.5q14 0 22 11l3 6q2 3 4.5 8
t3.5 8z" />
    <glyph glyph-name="R" unicode="R" horiz-adv-x="854" 
d="M611 624q50 -25 89.5 -62t67 -82.5t42 -98t14.5 -107.5q0 -81 -31.5 -153t-85.5 -126t-126.5 -85.5t-153.5 -31.5t-153.5 31.5t-126.5 85.5t-85.5 126t-31.5 153q0 86 33 159t90 130l-80 80l312 57l-62 -307l-90 85q-39 -39 -62 -91t-23 -113q0 -58 21.5 -109t59.5 -88.5
t88.5 -59t109.5 -21.5q58 0 110 21.5t90.5 59t61 88.5t22.5 109q0 72 -34 132.5t-94 99.5l-5 5l24 122zM531 119h-208l104 297z" />
    <glyph glyph-name="S" unicode="S" 
d="M469 739q119 0 220 -59t160 -160t59 -220t-59 -220t-160 -160t-220 -59q-182 0 -310.5 128.5t-128.5 310.5t128.5 310.5t310.5 128.5zM470 698q-164 0 -280 -116t-116 -279q0 -164 116 -280t280 -116t279.5 116t115.5 280q0 163 -116 279t-279 116zM388 614q12 -8 12 -14
q0 -7 -7 -15q-24 -1 -37 -8q-131 -54 -134 -190q0 -6 0.5 -15.5t0.5 -13.5q-5 -12 -14 -12t-14 9q-3 5 -3 25v8q4 162 157 219q7 3 15.5 4.5t15.5 2t8 0.5zM419 533q12 -5 12 -15q0 -8 -8 -16q-58 -6 -86 -47.5t-28 -105.5v-7q-5 -9 -16 -9t-14 12v14q0 72 36.5 118
t103.5 56zM646 464q10 0 15 -11q1 -3 1 -8q0 -25 -29 -76.5t-72 -104.5q-40 -50 -84 -86t-78 -47l-8 1l-4 6l-2 14q4 25 15.5 48.5t20.5 36t32 41.5q-6 -12 -15 -27.5t-13 -24t-10.5 -27.5t-13.5 -47q3 0 5.5 1.5t7 4.5t8.5 5q46 26 109.5 95.5t98.5 147.5q12 29 12 35v6
q-21 -6 -39.5 -17.5t-41 -29.5t-34.5 -26q48 59 109 88q1 0 4.5 1t5.5 1zM674 440q15 -7 21 -19.5t8.5 -36t3.5 -29.5q-8 -81 -40 -125q-9 3 -20 3q-22 0 -37.5 -15t-15.5 -38q0 -15 7 -29q-56 -40 -82 -45q-30 -2 -44 -2q-44 0 -56 17q92 54 166 151.5t89 167.5zM416 420
q10 0 17.5 -7.5t7.5 -18.5v-5l113 -72q-2 -44 -43 -47l-85 100q-4 -2 -10 -2q-11 0 -18.5 7.5t-7.5 18.5t7.5 18.5t18.5 7.5zM683 225q19 -17 30.5 -37t24.5 -52.5t18 -42.5q-28 -36 -58 -52q-6 18 -14.5 46.5l-11.5 38.5q-13 -5 -22 -5q-12 0 -34 7l-28 -159
q-50 -23 -91 -23l53 155l11 15l13.5 7.5t15.5 9.5t18 11q1 -2 6 -2h1q2 -2 2 -3q16 -10 29 -10q4 0 28 8q22 16 22 42q0 24 -18 37zM647 218q16 0 27 -11t11 -27q0 -15 -11 -26.5t-27 -11.5t-27 11.5t-11 26.5q0 16 11 27t27 11z" />
    <glyph glyph-name="T" unicode="T" horiz-adv-x="939" 
d="M461 740h8q108 0 200 -48q108 -53 174 -160.5t66 -227.5q0 -17 -1 -26q-5 -131 -87 -240.5t-206 -151.5q-68 -25 -144 -25q-91 0 -175.5 35.5t-144.5 100.5q-58 60 -89.5 140.5t-31.5 165.5q0 91 34 169q49 118 159.5 192.5t237.5 75.5zM462 699q-120 -1 -222 -74
t-142 -186q-24 -65 -24 -134q0 -91 40 -175t111 -138q105 -85 245 -85q129 0 229 73q78 54 122.5 142t44.5 184q0 55 -15 106q-33 123 -140 205t-235 82h-6h-8zM641 573q69 0 97 -76q15 -8 47 -47q-5 -9 -19 -23q-26 13 -59 13q-39 0 -77 -14.5t-47 -28.5q16 0 13 -21
q23 -27 69 -27q8 0 28 2v2q0 8 32 23q18 -15 21 -33q-7 -40 -11 -79q-22 -14 -31 -14q5 -18 18 -25q43 -8 66 -13t26 -6l8 -34q-56 -131 -149 -186.5t-221 -59.5l-4 150l-22 -2l5 -148q-76 10 -145 45q2 14 5 54t6 59t10 48.5t20 50t33 35.5l172 40l-39 81q-10 36 -10 53
q0 30 24 45q-9 19 -9 33q0 2 3 20q11 27 54.5 54.5t85.5 28.5zM285 559q57 0 90 -68q24 -19 37 -35q-4 -14 -12 -22q-22 7 -53 13q-53 -9 -110 -37l11 -4q0 -2 2 -7.5t3 -11.5q26 -21 58 -21q2 0 6.5 0.5t6.5 0.5q6 11 34 22q17 -8 20 -22q0 -26 -11 -70q-42 -4 -74.5 -39
t-47.5 -83.5t-22.5 -86.5t-7.5 -63q-5 5 -28.5 31.5t-31.5 38.5t-24 39t-23.5 58.5t-11.5 71.5q61 15 101 23v14q0 48 -27 53h-2q-5 0 -9 14t-4 31q0 39 23 40q-8 27 -8 30q0 7 3 13q14 29 46 52.5t66 24.5z" />
    <glyph glyph-name="U" unicode="U" 
d="M469 739q181 0 310 -128.5t129 -310.5t-129 -310.5t-310 -128.5q-182 0 -310.5 128.5t-128.5 310.5t128.5 310.5t310.5 128.5zM470 698q-164 0 -280 -116t-116 -279q0 -164 116 -280t280 -116t279.5 116t115.5 280q0 163 -116 279t-279 116zM777 484l3 -9l-26 -13
l-93 -22l-6 20l92 23zM641 463l4 -17l-107 -29l-3 19zM787 448l3 -9l-26 -13l-93 -22l-6 19l92 24zM518 442l2 -18l-49 -12l-4 18zM453 438l23 -109l-70 -15l-1 -39l-19 -10l-8 44q-9 21 -25 -5q-17 10 -21 10q-7 0 -11 -15l-1 -3v-4l-1 -4l-3 -2l-4 -2h-5q-3 -1 -61 -11
l-5 -9l-20 -3q-2 12 1 17q-12 2 -19 5.5t-8.5 5.5t-2 7.5t-0.5 6.5q-2 2 -2.5 8t-4 9t-11.5 3q-2 0 -6.5 -0.5t-7.5 -0.5q-1 1 -5.5 7.5t-4.5 10.5q0 7 8 14l47 5l15 21q4 12 11 12t18 -12q12 0 23 6q4 17 11 17q8 0 19 -14l30 10q4 15 16 19q2 0 16 -15q6 7 36 9l-4 10z
M648 430l8 -36l-106 -27l-7 38zM526 412l11 -58l-49 -10l-14 58zM401 402q-5 -1 -10 -13l15 -57q5 -5 17 -7q-1 2 -5 21t-15 44q6 3 1 11q-1 1 -3 1zM343 394q-25 -4 -31 -9q6 -8 22 -14q2 1 9.5 3.5t12.5 5.5q-4 8 -13 14zM280 380q-8 -1 -12.5 -2t-6 -2t-2 -3t-1.5 -3
q2 -1 8.5 -6.5t11.5 -5.5q6 0 18 9q0 9 -16 13zM215 317q-12 0 -12 -13t12 -13t12 13t-12 13zM482 292l88 -60v-23h-216v17q11 12 20 20v-12q7 -1 18 -1q33 0 33 33q0 4 -2 16l8 2q8 1 24 3.5t27 4.5zM478 282q-9 0 -15 -9l12 -40h75zM237 261v-2q0 -74 64 -103l2 7
q24 0 26 -1q3 15 11 34h124h6h129q8 -15 11.5 -32t4.5 -38t3 -32h134l-26.5 -23.5l-30 -26.5t-29 -22t-37.5 -22q-63 -31 -149 -38h-13q-96 8 -157 38q-18 9 -36.5 22t-29.5 22t-29.5 26l-26.5 24h133q2 6 4 38q-18 0 -28 6v8q-68 38 -70 114zM448 172v-114h-4v88h-17v-85
h-82v-9q67 -13 119 -13v113h3h3h6v-113q52 0 119 13v9h-82v85h-17v-88h-5v114h-24h3h-22z" />
    <glyph glyph-name="V" unicode="V" horiz-adv-x="939" 
d="M244 38l2 -34l116 -16l9 10l45 -4l6 -11l135 1l89 7l5 12l53 6l-3 12l-51 -3l-8 12l-104 -6l-115 -1l-6 -13l-46 3l-8 15zM731 84l-3 30q-128 -19 -245 -19h-12q-126 0 -264 20l-3 -30q132 -21 261 -21h6q133 1 260 20zM282 456h375l-187 42zM532 195q-7 0 -11 -4
q-5 -5 -5 -11t5 -12t11 -5q8 1 12 5t4 12q0 6 -5 10.5t-11 4.5zM532 251q-7 0 -11 -4q-5 -5 -5 -11t5 -12t11 -5q8 1 12 5t4 12q0 6 -5 10.5t-11 4.5zM470 294q-7 0 -11 -4q-5 -5 -5 -11t5 -12t11 -5q8 1 12 5t4 12q0 6 -5 10.5t-11 4.5zM461 736h8h6q102 0 195 -48
q107 -53 173 -160t66 -228q0 -17 -1 -26q-4 -130 -86.5 -240t-206.5 -152q-68 -25 -143 -25q-90 0 -175 36t-146 101q-58 59 -89.5 139.5t-31.5 165.5q0 92 35 169q48 118 158.5 192.5t237.5 75.5zM796 75q70 100 70 226q0 55 -15 107q-33 123 -140 205t-235 82h-6h-8
q-120 -1 -221 -73q-100 -72 -143 -186q-24 -64 -24 -133q0 -124 70 -228l36 13l3 30l-16 18l95 342v123h24v-123l184 40l209 -40l94 -342l-22 -18l2 -32zM346 390q-16 0 -27 -11t-11 -27q0 -15 11 -26t27 -11t26.5 11t10.5 26q0 16 -10.5 27t-26.5 11zM433 352q0 -15 11 -26
t26 -11q16 0 27 11t11 26q0 16 -11 27t-26 11q-16 0 -27 -11t-11 -27zM595 390q-16 0 -27 -11t-11 -27q0 -15 11 -26t27 -11t26.5 11t10.5 26q0 16 -10.5 27t-26.5 11zM346 294q-7 0 -11 -4q-5 -5 -5 -11t5 -12t11 -5q8 1 12 5t4 12q0 6 -5 10.5t-11 4.5z" />
    <glyph glyph-name="W" unicode="W" 
d="M469 737q181 0 310 -128.5t129 -310.5t-129 -310.5t-310 -128.5q-182 0 -310.5 128.5t-128.5 310.5t128.5 310.5t310.5 128.5zM470 696q-164 0 -280 -116t-116 -279q0 -164 116 -280t280 -116t279.5 116t115.5 280q0 163 -116 279t-279 116zM462 641h2q27 0 50.5 -9
t33 -16.5t29.5 -25.5q30 -26 30 -60q0 -10 -4 -30q11 -4 20 -23q3 -12 3 -31q0 -17 -12 -60q-9 -12 -15.5 -17t-17 -8t-12.5 -4q-1 0 -4.5 -0.5t-5.5 -0.5q-14 0 -33 8q-20 11 -26 28q-7 13 -7 23q0 9 5 21q14 14 20 19q-70 39 -125 43q-8 1 -23 1q-42 0 -60 -16
q-14 13 -14 27q0 4 2 10q2 2 6 7t7.5 8t12 8t21.5 11q13 72 97 85q14 2 20 2zM357 565q-4 -6 -6 -19q72 -8 120 -31q37 -20 47 -36q10 12 30 21q5 2 16 4t18 4q-4 0 -10.5 0.5t-9.5 0.5q-16 0 -24 -5q-2 -1 -18 -13q-21 27 -50 39q-36 21 -113 35zM364 494h3q22 0 43.5 -4
t34.5 -9l34 -13.5t30 -11.5q-3 -7 -14 -13q-1 -3 -1.5 -7.5t-1.5 -7t-1 -3.5q-10 -7 -19 -10.5t-21.5 -7t-16.5 -4.5h-4q-15 0 -31 10q-19 13 -32 17q-8 -4 -13 -8t-9 -8t-7 -6q-14 -5 -21 5q-13 24 -13 39q0 14 8 25q12 13 44 17h8zM579 467q-9 0 -19 -7q-1 -2 -9 -17
q-3 -7 -3 -16q0 -16 9 -45q7 -7 11 -9q24 3 33 43q0 2 2 11t2 15q0 19 -15 23q-8 2 -11 2zM500 381q7 -17 42 -26l-1 -5q-1 0 -2.5 0.5t-2.5 0.5q-2 0 -27 -5q-7 -8 -23.5 -20t-18.5 -14q-46 -14 -47 -15q-18 -2 -27 -2q-15 0 -26 4q-9 -2 -19 8q-8 15 0 26l10 -8l10 6
l18 -2l8 -11h7q20 0 56 15q37 40 43 48zM564 352q3 -6 9 -21q-3 -15 -5 -17q5 -11 36 -11h27q13 0 20 -1l1 -11q-47 -18 -85.5 -64.5t-38.5 -83.5v-8q-51 8 -102 8q-95 0 -160 -33l6 40l-6 15l14 16q4 19 4 39v7q14 12 25 16q45 17 55 22q6 20 6 29v3l13 -4q-1 -6 1 -12
q4 -4 7 -7.5t4 -5.5q-6 -18 -6 -28q10 -12 25 -46l23 67q6 7 14.5 20.5t17.5 23.5t23 20q26 22 72 27zM688 294q27 0 63 -30q18 -15 39 -51q13 -19 24 -62q-9 -22 -19 -32l-12 5q-4 2 -25 2h-27q-15 -15 -59 -15q-5 2 -27.5 10t-30.5 11.5t-23.5 12t-25 18.5t-16.5 23
q25 40 60 70q21 21 74 37q1 1 5 1zM277 208q2 -9 -5 -19q-4 -5 -8 -21q-3 -7 2 -18q0 -14 -7 -23q-1 -1 -1 -6v-17v-6q-13 -12 -18 -14l-13 -2l1 7q8 13 18 23l-1 13q-5 5 -8 8.5t-4.5 6.5t-3.5 5q10 52 48 63zM394 133q11 0 31.5 -1t30.5 -1h8q113 -12 186 -51l34 -84
q-82 -61 -175 -65q-9 -1 -27 -1q-61 0 -127.5 19.5t-99.5 54.5l-8 75q22 28 60 38q41 16 87 16zM754 117h6q19 0 28 -9q-6 -17 -19.5 -35t-25.5 -29.5t-36 -32.5q-7 -4 -19 -4l-22 89q52 18 88 21z" />
    <glyph glyph-name="X" unicode="X" 
d="M469 735q181 0 310 -128.5t129 -310.5t-129 -310.5t-310 -128.5q-182 0 -310.5 128.5t-128.5 310.5t128.5 310.5t310.5 128.5zM470 694q-164 0 -280 -116t-116 -279q0 -164 116 -280t280 -116t279.5 116t115.5 280q0 163 -116 279t-279 116zM279 154.5q0 -9.5 6.5 -16.5
t16 -7t16.5 7t7 16.5t-7 16t-16.5 6.5t-16 -6.5t-6.5 -16zM548 212v-33h126v33h-126zM397 176v-42h99v42h-99zM398 253v-43h99v43h-99zM271 253v-43h99v43h-99zM441 330h30v-20h20v20h24v-20h21v20h25v-21h49v50h-66v95h22v-74h44v12l30 30v70q-10 1 -18 10q-10 9 -10 22
t9.5 22.5t22.5 9.5t22.5 -9.5t9.5 -22.5q0 -2 -10 -22q-1 -2 -2 -3v-190h17l75 -75v-97l-70 -70h-417l-66 66v38h-15v45h15v26l67 67h25l12 102q-6 1 -11 5q-6 7 -6 16t6.5 15.5t15.5 6.5t15.5 -6.5t6.5 -15.5q0 -11 -6 -16q-5 -4 -11 -5l11 -102h35v21h56v-23h22v23z
M547 250v-12h139v12h-139zM547 147v-12h84l11 12h-95z" />
    <glyph glyph-name="asciicircum" unicode="^" horiz-adv-x="1096" 
d="M621 68v129h-194l194 316v129l445 -279zM537 513l-196 -316h-171l193 316h174zM280 513l-197 -316h-53l201 316h49z" />
    <glyph glyph-name="b" unicode="b" horiz-adv-x="1166" 
d="M583 870l187 -285h-107v-535h-160v535h-105zM288 540v-118q120 -15 154 -90v-219q-61 130 -154 143v-125l-258 223zM878 540l258 -186l-258 -223v125q-90 -13 -154 -143v219q34 74 154 90v118zM503 -4h160v-155h-160v155zM503 -203h160v-62h-160v62z" />
    <glyph glyph-name="c" unicode="c" horiz-adv-x="917" 
d="M463 795l66 -324l253 203l-152 -295l257 -13l-227 -97l208 -197l-281 92l18 -257l-140 205l-212 -297l92 340l-315 -111l244 214l-203 108l231 17l-161 298l260 -212zM467 560l-38 -168l-132 103l79 -149l-133 -6l122 -57l-130 -123l173 69l-54 -183l113 161l75 -118
l-9 145l152 -65l-130 113l122 58l-143 -1l110 171l-139 -121z" />
    <glyph glyph-name="d" unicode="d" horiz-adv-x="916" 
d="M463 793l65 -324l253 203l-151 -295l256 -13l-226 -97l208 -197l-281 92l18 -257l-140 204l-212 -296l92 340l-315 -111l244 214l-203 108l231 17l-161 298l260 -212z" />
    <glyph glyph-name="e" unicode="e" horiz-adv-x="576" 
d="M250 725l294 -97l-73 -65q75 -107 75 -204v-3q0 -91 -65 -177q-24 -25 -37.5 -42t-16.5 -24t-6 -16t-5 -13q3 -26 11 -42.5t21.5 -24.5t26 -10t31.5 -2l-45 -136q-38 12 -68 27t-57 39.5t-41 61.5t-14 84v2v7q0 75 78 153l28 37t19 35t9 42q0 54 -59 116l-106 -91v343z
M231 282q0 -42 -30 -71.5t-71 -29.5t-70.5 30t-29.5 71t29.5 70.5t70.5 29.5t71 -29.5t30 -70.5z" />
    <glyph glyph-name="f" unicode="f" horiz-adv-x="1081" 
d="M535 550h12q86 0 162 -22q28 -9 53 -19.5t45 -20t41.5 -23.5l35.5 -23.5t33 -26.5l29 -26t28 -29.5l25 -28.5l26.5 -30.5t25.5 -30.5q-103 -164 -349 -210q-87 -22 -178 -22q-72 0 -149 16q-255 44 -345 214q55 106 135.5 164t207.5 98q9 2 34.5 7t38 6.5t37 4t52.5 2.5z
M710 451q58 -66 58 -154q0 -64 -32 -117.5t-86 -84.5q5 1 14.5 2t15.5 2q49 12 77 20t70 23.5t69 31t55 40.5t46 56q-68 79 -133.5 122t-153.5 59zM359 444q-88 -22 -155.5 -70t-88.5 -104q19 -38 46 -66t61.5 -47t65 -30t72.5 -22q42 -6 62 -8q-52 30 -83.5 83.5
t-31.5 116.5q0 83 52 147zM531 338q0 -35 25.5 -60.5t61.5 -25.5t61 25.5t25 60.5q0 36 -25 61t-61 25t-61.5 -25t-25.5 -61z" />
    <glyph glyph-name="i" unicode="i" horiz-adv-x="934" 
d="M480 723q41 0 84 -8l-16 -60q-40 7 -71 7q-18 0 -54 -4l-11 59q33 6 68 6zM368 708l11 -60q-36 -9 -80 -32l-28 51q42 25 97 41zM610 703q130 -42 212 -153t82 -251q0 -142 -85.5 -254.5t-218.5 -151.5l-16 56q113 35 185.5 131t72.5 218q0 118 -69.5 213t-178.5 132z
M478 571q17 0 47 -4l-11 -39q-22 2 -35 2q-20 0 -30 -2l-8 40q18 3 37 3zM397 558l8 -40q-24 -8 -40 -18l-21 36q30 16 53 22zM571 555q80 -29 130 -99t50 -157q0 -91 -53.5 -162.5t-137.5 -97.5l-11 41q71 22 116 82.5t45 137.5q0 73 -41.5 132t-108.5 84zM30 452l563 -152
l-562 -152l109 151zM367 98q19 -11 45 -19l-8 -42q-26 6 -58 24zM505 70l12 -41q-20 -3 -39 -3q-10 0 -30 2l9 42q7 -1 22 -1q18 0 26 1zM300 -21q38 -21 86 -34l-11 -56q-54 14 -103 41zM540 -61l15 -56q-34 -7 -75 -7q-34 0 -61 4l11 56q24 -3 47 -3q33 0 63 6z" />
    <glyph glyph-name="j" unicode="j" horiz-adv-x="979" 
d="M490 620l85 -377l83 339l86 -322l24 88h181v-49h-144l-62 -230l-83 315l-87 -353l-83 367l-84 -367l-87 353l-82 -315l-62 230h-145v49h182l24 -88l86 322l82 -339z" />
    <glyph glyph-name="k" unicode="k" horiz-adv-x="1018" 
d="M573 721h-7h-5q-117 0 -200 -81t-108 -222l-78 -48q8 198 117 312t271 114h6q99 0 205 -41l-75 -52q-64 18 -126 18zM944 762l-52 -109l-48 45zM733 624l94 -95l-38 -72l-123 124zM580 527l158 -165l-53 -93l-192 202zM899 491l46 87q43 -108 43 -218.5t-43 -206.5
t-136.5 -164.5t-221.5 -83.5v4l1 4l12 29l22 57q121 10 207 122t86 255q0 61 -16 115zM424 427l218 -237l-60 -122l-267 289zM261 326l291 -317l-124 -243l-60 366l-338 57z" />
    <glyph glyph-name="l" unicode="l" horiz-adv-x="985" 
d="M200 691h569l-196 -216q87 -44 103 -141l279 87v-226l-278 89q-5 -48 -34 -88t-72 -61l199 -220h-568l204 220q-43 21 -71.5 60t-34.5 87l-270 -87v226l271 -85q16 94 99 138zM544 444l-58 -63l-56 61q-36 -15 -60.5 -46.5t-29.5 -71.5l47 -14l-49 -16q3 -44 28.5 -78.5
t65.5 -51.5l57 62l56 -63q41 17 67 53t27 80l-41 14l40 12q-4 41 -30 74t-64 48z" />
    <glyph glyph-name="m" unicode="m" 
d="M469 741q181 0 310 -128.5t129 -310.5t-129 -310.5t-310 -128.5q-182 0 -310.5 128.5t-128.5 310.5t128.5 310.5t310.5 128.5zM219 432q-9 9 -15 21q-4 9 -9 25q-2 7 -2 15q0 7 2 16l6 9l52 -52zM633 515l-33 34q10 9 21 15q10 5 24 8.5t31 0.5l9 -6zM443 220l-31 -32
v-12l-12 -12l-24 2l-106 -106l-41 41l113 114l8 -8l20 20l-12 12l12 12l12 -12l8 8l-12 12l12 12l12 -12l1 1zM301 515l-52 52l9 6q17 3 31 -0.5t25 -8.5q11 -6 21 -15zM493 351l13 12l-1 11l1 1l-8 9l25 25l8 -8l25 25l-8 8l13 13l8 -8l7 7l14 14q1 1 2 1.5t2 1.5l-3 6
q0 2 -0.5 2.5t-0.5 2.5q-3 9 -3 18q1 12 4 21q3 11 7 14q2 3 5 5l31 -31l17 -17l22 -23l26 -25q-2 -2 -5 -4q-2 -2 -5.5 -4t-8.5 -4q-10 -4 -21 -4q-10 0 -19 3q-1 0 -2 0.5t-2 0.5l-6 3q-1 -1 -1.5 -2t-1.5 -2l-1 -28l-62 -62l-4 4l-6 -6l-20 -21zM217 97l49 -49l-17 -16
l-48 49zM468 -86q80 0 150.5 30.5t123 83.5t83 123.5t30.5 151.5t-30.5 152t-83 124t-123 83.5t-150.5 30.5t-151 -30.5t-123.5 -83.5t-83 -124t-30.5 -152t30.5 -151.5t83 -123.5t123.5 -83.5t151 -30.5zM706 101l-42 -41l-105 106l-25 -2l-12 12l1 12l-143 143l-6 6l-4 -4
l-62 62l-1 28q-1 1 -1.5 2t-1.5 2l-6 -3q-1 0 -1.5 -0.5t-2.5 -0.5q-10 -3 -20 -3q-10 -1 -20 4q-5 2 -8.5 4t-5.5 4q-3 2 -5 4l26 25l22 23l17 17l32 31q2 -2 4 -5q4 -6 8 -14q3 -10 3 -20q0 -9 -3 -19q0 -3 -1 -5l-3 -6q2 -1 4 -3l14 -14l7 -7l8 8l14 -13l-9 -8l25 -25
l8 8l25 -25l-8 -9l2 -1l-1 -11l63 -64l12 12l13 -13l-12 -11l7 -8l12 12l13 -12l-12 -12l7 -8l12 12l13 -12l-12 -12l7 -8l12 12l12 -12l-11 -12l19 -20l8 8zM740 509q1 -7 1 -14q1 -8 -2 -17q-6 -18 -9 -25q-4 -11 -15 -21l-33 34l51 52zM717 97l17 -16l-49 -49l-17 16z
" />
    <glyph glyph-name="o" unicode="o" horiz-adv-x="941" 
d="M911 718l-377 -656l-38 240l-239 40zM363 574l-228 -275l3 115l-108 40zM768 171l-123 -337l-37 110l-115 -1z" />
    <glyph glyph-name="r" unicode="r" horiz-adv-x="1287" 
d="M475 63l-202 6l-10 -90l-233 207l281 97l-10 -84q107 -8 137 -8q224 0 315 102q31 56 31 100v1q-1 44 -31 92q-50 53 -99 53q-44 -7 -54.5 -13t-19.5 -13t-15 -10q-19 -24 -24.5 -37.5l-8 -19.5t-4.5 -15l-2 -12v-13v-11q-1 -1 -1 -4q0 -20 25 -64q26 -45 63 -65
q-2 0 -5.5 -2.5t-12.5 -6.5t-23 -8q-38 -11 -109 -14q-62 94 -62 178.5t76 180.5q98 76 180 77h3q83 -2 171 -72q76 -104 77 -201v-1q0 -96 -81 -209q-79 -71 -164 -96t-188 -25zM1019 264l238 -197l-298 -110l14 110l-204 15q32 11 60 34.5t69 71.5l109 -7z" />
    <glyph glyph-name="s" unicode="s" horiz-adv-x="741" 
d="M325 501l-140 -207h-155l340 501l341 -501h-153l-142 207l-46 69zM370 469l135 -195l206 -305h-206v-165h-263v165h-212l212 310z" />
    <glyph glyph-name="t" unicode="t" 
d="M469 -138h-9q-172 0 -301 128t-129 310q0 183 128.5 311.5t310.5 128.5q180 0 310 -129q129 -128 129 -310q0 -183 -129 -311t-310 -128zM304 -19q-23 6 -35 12t-18 12.5t-5.5 14t4.5 15.5q-11 -12 -11 -24q0 -9 7 -18q15 -20 47 -29q27 -8 54 -13t48 -7q25 -4 46 -4v21
q-20 1 -35 2t-29.5 3t-31 6t-41.5 9zM350 37q-11 5 -15 11.5t-5 11.5q-1 6 2 14q-7 -3 -18.5 -7t-23 -9.5t-18.5 -12.5t-4 -16q4 -11 11 -17.5t15 -8.5q9 -3 19 -3zM458 -98q3 0 5.5 -0.5t5.5 -0.5q2 0 4 0.5t4 0.5v74q10 0 26.5 1t32.5 3.5t27.5 5t11.5 5.5q-5 16 -12 26
q-4 6 -9 12q-10 -2 -24 -3q-24 -3 -63 -3t-61 3q-13 1 -25 3q-5 -5 -9 -12q-8 -11 -11 -26q0 -3 11.5 -5.5t27 -5t32 -3.5t26.5 -1v-74zM604 74q3 -7 2 -14q-1 -5 -4.5 -11.5t-15.5 -11.5l37 -37q9 0 19 3q8 2 14.5 8t10.5 18q3 9 -4 16t-18 12.5t-22.5 9.5t-18.5 7z
M632 -19q-25 -5 -41.5 -9t-31 -6t-29 -3t-35.5 -2v-21q22 0 46 4q20 2 47 7q26 5 55 13q35 10 48 29q6 9 6 18q1 11 -11 24q4 -8 4.5 -15.5t-5 -14t-18 -12.5t-35.5 -12zM733 0q63 55 99.5 133t36.5 168q0 83 -31.5 155.5t-86 127.5t-127.5 86t-155 31q-83 0 -156 -31
t-127 -86t-85.5 -127.5t-31.5 -155.5q0 -90 36 -167t98 -132l12 12q5 6 13 14l18 18q35 20 72 31t69 16q-9 -5 -10 -9q0 -8 26.5 -14.5t61.5 -6.5q36 0 61.5 6.5t25.5 14.5q0 5 -12 10q33 -5 73 -16t77 -32l18 -18l13 -14q6 -7 12 -12v-2zM744 482q2 -1 4 -3q1 -4 0 -6
l-2 -4q-1 -2 -5 -2h-3l-22 7l1 -3q0 -4 -4 -5l-3 -1q0 -1 -2 -1t-3 1q-1 0 -4.5 2.5t-6.5 8.5q-5 1 -8 4l-89 25l-15 -3l-81 -41h50h3l31 -16q4 -2 4 -5v-3v-1l9 -4q5 -2 6 -9l78 -34h1q5 0 7 -1q4 2 9 2q6 0 9 -3q1 -1 3 -4l1 -2q0 -4 -2 -5l20 -9q5 -2 3 -9l-1 -3
q-1 -4 -6 -4l-3 1l-20 8q0 -2 -2 -4l-2 -2q-1 -1 -4 -1h-3q-1 1 -4 3.5t-6 9.5q-8 2 -10 6l-79 35q-2 -1 -5 -1q-6 0 -8 2q-5 2 -19 9t-19 9l-31 -2l-5 -3l150 -106h8h3q1 0 8.5 -4.5t18 -12.5t22.5 -20.5t21 -28.5q1 -5 -1 -7q-11 -14 -25 -14q-5 0 -11 2l-14 3l-8 3
q-10 3 -23 8.5l-25 11t-20.5 10t-9.5 4.5q-3 1 -3 5v4l-167 94l-18 3q-2 -6 -5.5 -14t-11.5 -12q-8 -2 -12 -2q-20 0 -33 18l-24 -1l-41 -20l13 -14q2 -2 2 -5q0 -2 -2 -4l-5 -4q-1 -1 -4 -1q-2 0 -4 2l-4 5l-3 -3q-1 -1 -3 -2q-2 0 -3 2l-7 4q-4 0 -4 4v3l-21 -9l8 -11
q2 -3 2 -4l1 -13l44 -67l7 -2q4 0 4 -3l2 -4v-4l-1 -3l19 -30q4 -6 -1 -8l-5 -4q-1 -1 -4 -1t-5 2q-5 8 -11.5 16.5t-8.5 11.5h-4h-1q-5 0 -6 3l-2 5l-1 3v7l-44 63l-7 2q-3 1 -4 2l-35 50q-1 2 -1 5l1 8q1 1 1 1.5t2 1.5l40 30l-20 22h-29q-4 0 -5 4l-13 18q-1 1 -1 4
q0 2 3 4l3 2l-5 9q-1 2 -1 3v6l4 10q8 8 12 5t10 -3q1 0 2 -1l16 -17l74 11l2 4q0 3 4 4l26 5l-19 12q-2 2 -4.5 4t-2.5 10q0 6 5 12q7 7 14 7q5 0 7.5 -2t3.5 -2l35 -24l10 -1l20 8h3h2l-1 1l-8 3q-1 1 -2 1q0 1 -2.5 3.5t-2.5 7.5q-1 9 6 16q5 5 14 5q5 0 10 -2l6 -3
l38 -19l23 -3l59 19q-5 4 -5 14q0 4 3.5 7.5t11.5 3.5q3 0 6 -1l56 -17q1 0 3 -2l2 -2l86 -27q2 1 6 1h4q4 3 7.5 3.5t5.5 0.5q4 0 6 -4q2 -5 -2 -7l-1 -1zM273 408l-37 -4l11 -13zM355 337q5 -7 10.5 -10t10.5 -5t12 -3l58 -208l-104 224zM435 344l7 -5q7 -4 14 -9
q5 -3 22 -14l-13 -192zM534 283l29 -17l-75 -149z" />
    <glyph glyph-name="u" unicode="u" horiz-adv-x="330" 
d="M165 336q37 0 69 -19q28 -16 48 -48q18 -30 18 -68q0 -37 -18 -69q-16 -27 -48 -49q-36 -18 -69 -18q-37 0 -68 18q-31 19 -49 49q-18 32 -18 69q0 38 18 68q21 33 49 48q28 19 68 19z" />
    <glyph glyph-name="v" unicode="v" horiz-adv-x="909" 
d="M146 486l2 49q17 30 48 51l43 17q0 -7 -0.5 -15.5t-1 -12.5t-0.5 -6l-39 -55q-50 -26 -52 -28zM58 358l12 -35v-32q0 -28 2 -64q-10 -15 -19 -51q-13 11 -21 39q-2 20 -2 32q0 33 9 75q7 17 19 36zM194 362q20 -48 29 -62q-8 -13 -37 -76q-17 6 -42 21q-4 16 -4 32
q0 5 11 66q21 11 43 19zM351 612q42 30 57 35q18 5 34 5h5q4 -17 9 -23q-23 -30 -37 -50q-43 -6 -77 -14v7q0 23 9 40zM420 531l34 -76l-61 -84h-95q-11 33 -18 86l59 72zM482 546l14.5 22l20.5 31q10 0 30 0.5t30 0.5q56 -48 59 -50l-13 -71l-95 2zM568 640q25 1 30 2
q28 -13 74 -38q11 -10 32 -40h-51q-13 12 -34.5 27.5t-26.5 19.5q-9 17 -24 29zM706 588q3 -1 14.5 -6t21.5 -8l42 -35.5t14 -13.5l2 -5l9 -10q12 -17 17 -27.5t8 -20.5t6 -16q-1 1 -10.5 6l-23.5 12q-27 39 -68 78q-6 13 -32 46zM667 531h60l67 -76l3 -85l-81 -1l-60 88z
M870 347q2 -8 7 -59q-4 -10 -24 -36q-11 49 -31 82q4 41 4 82q1 -1 9 -4t14 -7t12 -11zM879 231l-3 -55q-15 -52 -43 -100q-8 -10 -37 -27q11 44 11 57q2 4 11 18t12.5 21t9 22.5t8.5 32.5q16 9 31 31zM800 305q16 -37 27 -88q-7 -22 -14 -37.5t-19.5 -37t-14.5 -24.5
l-73 -5l-30 84l48 107zM770 75q-7 -42 -11 -53q-20 -24 -67 -58q-30 -7 -55 -8q5 8 5 21q0 7 -2 21q29 25 63 67q1 0 26.5 4t40.5 6zM632 162q10 -20 32 -74l-57 -70l-84 -2l-49 68l50 79zM528 231l-60 101l62 94l103 -3l60 -102l-55 -89zM365 245l42 -80l-31 -68l-79 -1
l-46 73l30 78zM376 32q24 -33 34 -43q-11 -22 -15 -34l-43 4l-41 34l-2 46q21 -6 67 -7zM482 -6l70 1l19 -31q-22 -22 -50 -36l-42 -1l-22 25zM144 103l35 -14l43 -65l-7 -37l-35 10q-32 44 -38 57q-1 4 -1 15t3 34z" />
    <glyph glyph-name="NULL" horiz-adv-x="0" 
 />
    <glyph glyph-name="hyphen" unicode="-" horiz-adv-x="1109" 
d="M556 -230q-54 0 -105 10.5t-99 32.5q-191 87 -271 287q-36 90 -36 189v16q2 63 19 122.5t47 115.5q62 110 178 187l9 6l8 -6q2 -2 4 -2l1 -1l13 -10l-11 -13q-2 -3 -5 -7q-2 -3 -5.5 -7l-7.5 -9q-41 -54 -65 -117q-23 -64 -23 -107v-36q0 -7 3 -22.5t14 -44.5
q16 -47 61 -92q38 -35 80 -41q3 0 6 -0.5t5 -0.5q38 2 67 35q32 49 32 114q0 7 -0.5 13.5t-0.5 13.5q-3 43 -33 101q-12 25 -35 43q-25 20 -49 30l-20 8l80 92l11 -5q27 -12 54 -35q-11 30 -30 57l-7 10l111 128l113 -128l-7 -10q-19 -26 -30 -56q27 23 54 35l11 4l80 -92
l-21 -8q-37 -16 -58 -38q-13 -14 -19 -22.5t-8 -12.5q-29 -63 -32 -101q-1 -8 -1 -14v-11v-25q0 -2 1 -9.5t5 -26.5q6 -29 24 -55q32 -35 68 -35q9 1 18 2.5t19 5.5q28 9 56 35q78 80 78 182v12q-3 26 -7.5 49t-12.5 43q-32 84 -59 117q-8 8 -13.5 15.5t-9.5 12.5
q-4 6 -8 10l-14 17l31 14l7 -5q116 -76 181 -191t65 -234v-58q0 -58 -37 -151q-34 -90 -106 -166q-67 -73 -163 -117q-93 -43 -205 -43zM233 646q-56 -52 -93 -119q-58 -103 -63 -223v-15q0 -94 34 -177q76 -189 254 -270q87 -40 191 -40q51 0 99 10t93 30q88 40 153 110
q67 71 100 156q17 44 25.5 78.5t8.5 60.5v58q0 110 -61 218q-38 68 -94 120q9 -17 18 -37.5l19 -45.5q8 -22 13.5 -47t8.5 -54v-2v-12q0 -115 -88 -205q-32 -30 -68 -43q-24 -8 -46 -9q-53 0 -94 47l-1 2q-21 32 -29 66q-5 21 -6 30t-1 13v25v12t1 16q3 44 36 112
q8 18 31 42q17 20 50 37l-36 41q-39 -20 -71 -68l-33 -49l3 59q5 64 42 122l-73 81l-71 -81q18 -29 28 -59t12 -63l4 -59l-33 49q-32 47 -71 68l-36 -41q10 -5 19 -11.5t18 -14.5q29 -23 44 -53q31 -64 36 -112q0 -8 0.5 -15.5t0.5 -14.5q0 -76 -38 -132l-1 -2
q-39 -45 -92 -47q-4 0 -7.5 0.5t-8.5 1.5q-53 8 -97 49q-50 49 -69 105q-19 51 -19 77v36q0 25 6.5 54t18.5 64q13 35 33 71z" />
    <glyph glyph-name="Adieresis" unicode="&#xc4;" horiz-adv-x="942" 
d="M550 323q0 -16 -12 -28t-29 -12t-29 12t-12 28q0 17 12 29q11 11 29 11t29 -11q12 -12 12 -29zM378 249q15 -26 39 -39q-10 0 -29 3l-18.5 5.5t-15.5 5.5q-8 2 -15.5 5.5t-15.5 8.5q-15 8 -29 22q-6 7 -11.5 14.5t-10.5 16.5q10 26 42 49q31 22 73 33q-24 -30 -24 -69
q0 -30 15 -55zM625 348q30 -20 63 -57q-10 -17 -22 -26l-13 -11t-13 -8q-11 -7 -32 -15q-10 -4 -18 -6.5l-15 -4.5l-16 -4.5t-21 -5.5h-7q-3 -1 -7 -1q25 13 41 39q15 25 15 56q0 40 -27 72q42 -8 72 -28zM468 738q90 0 170 -34.5t139 -93.5t93.5 -139t34.5 -170
t-34.5 -169.5t-93.5 -139t-139 -93.5t-170 -34t-169.5 34t-138.5 93.5t-93.5 139t-34.5 169.5t34.5 170t93.5 139t138.5 93.5t169.5 34.5zM549 192q116 23 164 99q-2 2 -4.5 5.5t-7.5 8.5q-9 10 -12 15q-2 2 -4.5 5t-7.5 8t-8 8.5t-5 5.5t-5.5 5l-8.5 7q-7 7 -15 13
q-4 2 -8 4.5t-9 6.5l-10 6t-10 5l-21 9q-12 6 -25 9q-38 11 -76 11h-6q-7 0 -13 -0.5t-12 -0.5q-5 -1 -9.5 -1.5t-7.5 -0.5q-6 -2 -18 -3q-6 -2 -10 -2.5t-6 -1.5q-58 -18 -98 -46q-36 -26 -64 -77q44 -80 163 -101q34 -7 70 -7q45 0 84 10z" />
    <glyph glyph-name="Aring" unicode="&#xc5;" horiz-adv-x="936" 
d="M466 739q90 0 169.5 -34.5t138.5 -93.5t94 -138.5t35 -170.5q0 -90 -35 -170t-94 -139t-138.5 -93.5t-169.5 -34.5q-91 0 -170.5 35t-139 94t-93.5 138.5t-34 169.5t34 170t93.5 139t139 93.5t170.5 34.5zM323 232q24 0 44 18q18 18 18 44q0 25 -18 43q-20 18 -44 18
q-25 0 -43 -18q-19 -18 -19 -43q0 -26 19 -44q18 -18 43 -18zM485 56q10 -5 20 -9t22 -8l28 84q-6 0 -10.5 0.5t-9.5 0.5q-8 2 -16 7q-9 5 -13 15q-4 7 -7 26q1 1 3 8q2 4 4 10q1 2 3.5 5.5l6.5 9.5l10.5 11l12.5 14q40 53 40 109v2q0 61 -46 126l45 40l-181 60v-212l65 57
q37 -38 37 -72q0 -13 -6 -26q-3 -7 -5.5 -12t-6.5 -9q-3 -5 -7 -10l-10 -13q-48 -48 -48 -94v-5v-1q0 -30 9 -52q10 -24 25 -38q16 -14 35 -24z" />
    <glyph glyph-name="Ccedilla" unicode="&#xc7;" horiz-adv-x="914" 
d="M591 308l-88 -19l62 -72l-88 57l1 -74l-30 63l-58 -67l33 78l-75 -4l61 38l-83 58l95 -27l-36 89l63 -67l30 63l3 -69l77 41l-53 -68zM457 828l214 -129l214 -129v-257.5t-1 -257.5l-214 -128l-214 -128l-214.5 129l-213.5 128v515l214.5 128.5zM545 276l167 34l-168 32
l109 134l-153 -83l-9 119l-55 -104l-111 125l57 -162l-175 47l153 -109l-105 -72l132 9l-47 -144l101 107l50 -117l7 132l152 -78z" />
    <glyph glyph-name="Eacute" unicode="&#xc9;" horiz-adv-x="1040" 
d="M975 557l6 -10l6 -10l-174 -302.5l-174 -302.5h-21h-5l-2 -4q-11 -18 -20.5 -35.5t-20.5 -35.5h-99l-21 35.5l-21 35.5l-2 4h-5h-19l-175 301.5l-175 301.5l12 21l2 4l-2 4q-11 18 -20.5 35.5t-20.5 35.5l24.5 43.5l25.5 42.5h82h5l2 4l9 15q175 0 348 0.5t348 0.5l9 -15
l2 -4h5h82l24.5 -43.5l25.5 -42.5q-11 -18 -20.5 -36t-20.5 -35l-2 -4zM578 229h-117v-99h117v99zM608 570h-177l26 -277h126z" />
    <glyph glyph-name="Ntilde" unicode="&#xd1;" horiz-adv-x="1072" 
d="M736 314l3 16q1 -5 1.5 -10.5t0.5 -13.5q0 -6 -0.5 -12.5t-1.5 -12.5l-3 14l-20 2l-13 -24l12 -29l18 5q-1 -2 -1.5 -4t-1.5 -4q-2 -6 -4 -8l-16 -4l-16 -28l5 -16q-4 -5 -7 -8t-6 -7q-5 -6 -15 -13l14 22l-6 15l-29 -5l-13 -25l9 -16l24 6l-11.5 -8l-11.5 -8t-12 -7.5
t-13 -6.5l12 17l-10 14l-31 -3l-18 -23l13 -15l7 1q-6 -3 -13 -3q-3 -1 -6.5 -1.5t-6.5 -1.5l-11 13h-33l-11 -13q-15 3 -27 6l7 -1l12 15l-18 23l-30 3l-10 -14l13 -17q-12 6 -26 14l-12 8t-11 8l24 -6l10 16l-13 25l-30 5l-7 -15l15 -22q-5 3 -8 6l-7 7l-6.5 6.5t-6.5 8.5
l6 16l-16 28l-17 4q-2 2 -4 8t-2 8l17 -5l13 29l-14 24l-20 -2l-4 -14q0 9 -1 13v12v13q1 4 1 11l4 -16l20 -2l14 24l-13 29l-19 -6l2 6l2 6q1 6 4 11l17 4l16 28l-6 16q3 4 6.5 7.5t6.5 7.5q4 3 7 6.5t8 6.5l-15 -22l7 -15l30 5l13 25l-10 16l-24 -6q5 4 11 8l12 8t12.5 7
t13.5 7l-13 -17l10 -15l30 4l18 23l-12 15l-7 -1q3 1 6.5 1.5t6.5 1.5q4 1 7 1.5t7 0.5l11 -12h33l11 12q5 0 13 -2q3 -1 6.5 -1.5t6.5 -1.5l-7 1l-13 -15l18 -23l31 -4l10 15l-12 17q7 -4 13 -7t12 -7l11.5 -8l11.5 -8l-24 6l-9 -16l13 -25l29 -5l6 15l-14 22
q5 -3 8.5 -6.5l6.5 -6.5q3 -4 6 -7.5t7 -7.5l-5 -16l16 -28l16 -4q2 -5 4 -11l2 -6l2 -6l-19 6l-12 -29l13 -24zM642 382l17 -30l27 -5l9 26l-17 31l-27 4zM506 451l18 -21h35l16 21l-16 22h-35zM559 274l16 30l-16 30h-36l-17 -30l17 -30h36zM559 257h-35l-18 -26l18 -28
h35l16 28zM559 353l16 27l-16 28h-35l-18 -28l18 -27h35zM446 417l10 -26h35l18 30l-15 22l-30 -2zM444 341l15 -28l32 1l18 30l-15 28l-32 -1zM386 373l10 -26l27 5l18 30l-10 26l-27 -4zM386 305l13 -27l28 -4l17 30l-17 30l-28 -1zM441 226l-18 31l-27 3l-10 -25l18 -30
l27 -5zM462 240l32 -2l15 29l-18 29l-32 2l-15 -29zM512 188l-18 30h-34l-12 -25l17 -25l29 -2zM575 157l-16 22h-35l-18 -22l18 -21h35zM637 192l-11 26h-35l-17 -29l15 -23l30 2zM639 270l-16 28l-32 -2l-17 -29l15 -29l31 2zM639 341l-19 30l-31 1l-15 -28l17 -30l32 -1z
M639 415l-19 25l-29 3l-17 -21l17 -31h35zM695 235l-9 25l-27 -3l-17 -31l9 -26l27 5zM699 305l-13 27l-28 4l-16 -31l16 -30l27 1zM1020 209l5 -3l-1 -6q-20 -90 -69 -166l-3 -5l-6 2l-13 3q-16 5 -28 8q-46 -64 -108 -107q2 -8 4 -14.5t4 -14.5l3 -13l2 -6l-5 -3
q-76 -49 -165 -69l-6 -1l-3 5l-7 12l-7.5 13l-7.5 13q-19 -4 -38 -5.5t-38 -1.5t-37.5 1.5t-38.5 5.5l-7.5 -13t-6.5 -13l-7 -12l-3 -5l-6 1q-91 20 -165 69l-5 3l1 6l4 13l3.5 14.5l3.5 14.5q-63 44 -107 107q-8 -2 -14.5 -4t-14.5 -4l-13 -3l-6 -2l-3 5q-50 77 -68 166
l-2 6l6 3l11 6l13 7.5l13 7.5q-3 20 -5 38.5t-2 37.5t2 38t5 38l-13 7.5l-13 7.5l-11 7l-6 3l2 6q18 88 68 165l3 5l6 -2l13 -3q8 -2 14.5 -4t14.5 -4q22 32 49 58.5t58 49.5q-2 7 -3.5 14t-3.5 14l-4 13l-1 6l5 3q74 49 165 69l6 1l3 -5l7 -12q6 -13 14 -25q39 6 76 6
q38 0 76 -6q4 6 7.5 12.5t7.5 12.5l7 12l3 5l6 -1q88 -20 165 -69l5 -3l-2 -6l-3 -13l-4 -14l-4 -14q63 -45 108 -108l14 4l14 4l13 3l6 2l3 -5q49 -76 69 -165l1 -6l-5 -3l-12 -7q-6 -4 -12.5 -7.5t-12.5 -7.5q6 -38 6 -76q0 -37 -6 -76q6 -4 12.5 -7.5t12.5 -7.5zM739 224
q16 36 16 82t-16 84q-8 20 -20 37t-26 32q-32 30 -69 46q-37 17 -84 17q-46 0 -83 -17q-38 -16 -68 -46t-46 -69q-17 -40 -17 -84q0 -43 17 -82q17 -41 46 -68q27 -29 68 -46q40 -17 83 -17q44 0 84 17t69 46q30 30 46 68z" />
    <glyph glyph-name="Odieresis" unicode="&#xd6;" horiz-adv-x="944" 
d="M646 450q23 -29 36.5 -65.5t13.5 -77.5q0 -47 -18 -88.5t-48.5 -72t-72 -48.5t-88.5 -18q-41 0 -77.5 13.5t-65.5 37.5zM481 259q3 -3 6 -5.5t6 -4.5q10 -10 19 -16q5 -3 8.5 -5.5l6.5 -4.5q4 -2 10 -4q10 -4 13 1q3 3 0 12q-3 3 -6 9l-4.5 6.5t-6.5 7.5q-3 5 -7 9.5
t-9 9.5l-10 10zM609 189q3 15 2 31q0 19 -6 40q-3 11 -7.5 22.5l-9.5 23.5q-1 -5 -1 -10t-1 -10q-2 -8 -4 -13q-1 -7 -4 -7q-1 0 -4 4l-6 9q-2 3 -3.5 6l-3.5 7l-9 15q-2 4 -4 7.5t-4 7.5l-27 -27q5 -8 10.5 -15.5t10.5 -15.5q6 -8 10.5 -15.5l9.5 -15.5l7.5 -13t5.5 -11
q4 -9 2 -13q-8 -11 -31 1q-24 12 -67 49l-3 3l-40 -40q8 -4 13 -6l12 -6t12 -5l11.5 -5.5t10.5 -4.5t8.5 -4t6.5 -4q2 -1 5 -1q1 0 2 -1q17 -7 36 -10q10 -2 15 -2q3 -1 6.5 -1h6.5q4 0 6.5 0.5t5.5 1.5q4 2 8 6q8 9 12 22zM469 534q42 0 79.5 -14t67.5 -40l-320 -320
q-26 30 -40 67.5t-14 79.5q0 47 18 88.5t48.5 72t72 48.5t88.5 18zM391 292q-7 3 -13 6t-11 5q-9 4 -15 9q-3 2 -5.5 3.5t-4.5 3.5q6 -7 12 -13l13 -13q3 -3 6.5 -6t6.5 -7zM411 310q-1 1 -12.5 10l-26.5 21l-29.5 24.5l-21.5 18.5l80 -83zM443 344q-4 3 -7.5 6.5t-7.5 6.5
q-16 14 -29.5 24.5l-25.5 20.5l-27 20.5l-25 18.5q9 -12 19.5 -24.5l21.5 -26.5q10 -11 21 -25t25 -29q3 -4 6.5 -7.5l6.5 -6.5zM469 369q-5 5 -10 8.5t-10 8.5q2 -3 3.5 -7l3.5 -9l4 -10zM469 740q90 0 170 -34.5t139 -93.5t93.5 -139t34.5 -170t-34.5 -169.5t-93.5 -139
t-139 -93.5t-170 -34t-170 34t-139 93.5t-93.5 139t-34.5 169.5t34.5 170t93.5 139t139 93.5t170 34.5zM469 38q56 0 105 21t86 57.5t58 85.5t21 105t-21 105t-58 86t-86 58t-105 21t-105 -21t-86 -58t-58 -86t-21 -105t21 -105t58 -85.5t86 -57.5t105 -21z" />
    <glyph glyph-name="Udieresis" unicode="&#xdc;" horiz-adv-x="939" 
d="M465 739q90 0 170 -34.5t139 -93.5t93.5 -139t34.5 -170t-34.5 -169.5t-93.5 -139t-139 -93.5t-170 -34t-169.5 34t-138.5 93.5t-93.5 139t-34.5 169.5t34.5 170t93.5 139t138.5 93.5t169.5 34.5zM466 535q-19 0 -37 -3l6 -33q10 2 17.5 2h12.5q16 0 39 -3l8 33
q-11 2 -23 3t-23 1zM491 449q-8 2 -14.5 2h-11.5h-10t-10 -1l4 -22q3 0 7 0.5t10 0.5q3 0 8 -0.5t11 -0.5zM421 444q-14 -3 -30 -12l12 -20q8 5 22 10zM405 527q-16 -5 -29 -10.5t-25 -12.5l16 -28q12 7 22.5 11t21.5 7zM279 302l-60 -83l309 83l-309 84zM480 176
q-3 -1 -14 -1q-10 0 -12 1l-5 -23q5 -1 9 -1.5t7 -0.5q5 0 10.5 0.5t11.5 1.5zM415 107q-29 8 -48 19l-15 -27q28 -16 56 -23zM429 181q-16 5 -25 10l-12 -20q9 -5 17 -8.5t15 -5.5zM466 69q25 0 42 4l-9 31q-15 -4 -34 -4q-7 0 -13 0.5t-13 1.5l-6 -31q8 -1 16 -1.5
t17 -0.5zM510 159q45 13 76 53q29 38 29 90q0 47 -27 86q-27 38 -72 55l-6 -22q38 -14 60 -46q23 -34 23 -73q0 -43 -25 -75q-23 -33 -64 -46zM653 162q47 62 47 140q0 77 -46 138q-45 61 -116 84l-9 -33q61 -21 98 -73q38 -50 38 -117q0 -68 -39 -120q-41 -53 -103 -72
l9 -31q74 23 121 84z" />
    <glyph glyph-name="aacute" unicode="&#xe1;" horiz-adv-x="1035" 
d="M960 573q41 -72 47.5 -136t-2.5 -112q-11 -56 -38 -105l-88 3l-90 -157l48 -74q-31 -48 -78 -86q-20 -16 -45 -31.5t-55 -27.5t-66 -19t-77 -7q-42 0 -77 7t-64.5 19t-53 27.5t-42.5 31.5q-44 38 -72 86l46 74l-90 157q-25 -2 -44 -3q-8 -1 -16.5 -1h-14.5q-8 0 -14 -1
l-1 2q-25 51 -35 110q-8 51 -1 116.5t49 137.5q21 36 45 62.5t49 46t50.5 32.5t48.5 21q55 19 110 20l41 -79h181l20 39l14 27t7 13q58 -4 113 -25q24 -9 49.5 -23t51 -34.5t49.5 -47.5t45 -63zM517 522q-30 -9 -56 -27q-24 -19 -43 -45q22 12 47 18q24 7 51 7q14 0 27 -2
t26 -5q28 -8 48 -19q-9 13 -19.5 24.5t-23.5 20.5q-24 19 -57 28zM640 395q-24 23 -55 37q-34 14 -69 14t-66 -14q-31 -12 -55 -36q-6 -20 -6 -43q0 -31 10 -57q8 -26 26 -50q17 -22 41 -38q24 -17 51 -24q27 7 51 24q24 16 41 38q18 24 26 50q10 26 10 57v10.5t-1 10.5
t-1.5 10.5t-2.5 10.5zM312 277q2 41 16 74q15 34 40 60q13 40 34 67q24 30 56 50q-33 -3 -62 -16q-30 -14 -51 -35q-19 -25 -33 -56q-14 -32 -18 -66v-2q0 -11 1.5 -20.5t3.5 -19.5q5 -20 13 -36zM342 249q1 -5 1.5 -10.5t2.5 -10.5q24 -22 51 -35q28 -13 61 -15
q-11 7 -21 15t-19 17q-8 9 -16 19t-14 21q-7 11 -11.5 22.5t-8.5 24.5q-8 27 -8 52q-10 -19 -14 -38q-3 -10 -4 -20t-1 -21v-10.5t1 -10.5zM635 140q15 14 28 33q-11 -6 -23 -10.5t-24 -8.5q-24 -6 -51 -6h-12.5t-12.5 2q-5 1 -11 1.5t-12 1.5q-6 -1 -11.5 -1.5t-11.5 -1.5
q-6 -2 -12 -2h-13q-28 0 -52 7q-28 8 -48 19q25 -37 62 -58q38 -22 85 -22q22 0 45 6q22 6 40 16q9 5 17.5 11t16.5 13zM686 227q6 19 6 43q0 11 -1.5 20.5t-3.5 19.5q-5 20 -13 36q0 -25 -8 -51q-8 -27 -20 -46q-14 -23 -31 -40q-8 -9 -18 -16.5t-21 -14.5q33 1 60 15
q28 12 50 34zM734 308q5 18 6 37q-5 43 -19 76q-14 34 -41 64q-20 17 -47 30q-25 10 -57 13q34 -20 56 -51q25 -31 35 -68q25 -27 39 -62q15 -33 15 -73q8 15 13 34z" />
    <glyph glyph-name="agrave" unicode="&#xe0;" horiz-adv-x="970" 
d="M933 347q2 -2 4 -4.5t4 -4.5v-82l-8 -8l-391 -438q-6 -7 -12 -13t-11 -13h-65l-11.5 13l-11.5 13l-391 438l-4 4l-4 4v82q2 2 4 4.5t4 4.5l391 438q6 6 11.5 12.5t11.5 12.5h65q5 -6 11 -12.5l12 -12.5zM551 100q-15 0 -30 0.5t-31 0.5q-18 0 -35 -0.5t-34 -0.5l27 -82
h76zM590 216q-48 6 -100 6q-56 0 -108 -6l28 -83h152zM626 326q-23 5 -46 8.5t-47 5.5h-86q-26 -2 -51.5 -6t-49.5 -10l24 -71h232zM661 431q-82 34 -171 34q-48 0 -92.5 -10t-85.5 -27l19 -59h309z" />
    <glyph glyph-name="acircumflex" unicode="&#xe2;" horiz-adv-x="953" 
d="M912 604v-609l-66 -66l-66 -67h-606l-135 135v609l66 66l67 66h606zM458 139q19 0 36.5 3.5t31 8.5t21.5 10t8 9t-8.5 9t-22 9.5t-31 8t-35.5 3.5h-131l-23 35h-50l16 -35h-16v-7h-25v-47h25v-7h16l-16 -33h50l23 33h131zM547 272q19 0 36 3.5t30.5 8.5t21.5 10t8 9
t-8.5 9t-22 10t-30.5 8.5t-35 3.5h-131l-24 35h-49l16 -35h-16v-7h-26v-48h26v-7h15l-15 -33h49l23 33h132zM642 402q19 0 36.5 3.5t31 8.5t21.5 10t8 9t-8.5 9t-22 9.5t-31 8t-35.5 3.5h-131l-24 35h-49l16 -35h-16v-7h-25v-47h25v-7h16l-16 -33h49l23 33h132z" />
    <glyph glyph-name="adieresis" unicode="&#xe4;" horiz-adv-x="950" 
d="M295 303l-26 9q1 40 16.5 75.5t41.5 62.5t60.5 43.5t73.5 19.5l-16 -28q-32 -6 -59.5 -22t-47.5 -39.5t-31.5 -53.5t-11.5 -64v-3zM655 338q-6 32 -22 59.5t-39.5 47.5t-53.5 31.5t-64 11.5h-3l9 26q40 -1 75.5 -16.5t62.5 -41.5t43.5 -60.5t19.5 -74.5zM298 275
q6 -32 22 -60t39.5 -48t53.5 -31.5t63 -11.5q1 0 1.5 0.5t1.5 0.5l-9 -26q-40 1 -75.5 16.5t-62.5 41t-43.5 60t-19.5 74.5zM924 333q6 -87 -21 -170q-18 -55 -47 -101l-1 -2v-2q-1 -36 -1.5 -72t-0.5 -71q-36 0 -72 0.5t-71 1.5h-3l-2 -1q-6 -4 -12 -7.5t-13 -6.5
q-81 -42 -172 -48q-87 -6 -170 21q-27 8 -53 20.5t-50 27.5l-2 1h-2q-35 1 -70.5 1.5t-70.5 0.5q1 35 1 70.5t1 70.5v3l-1 2q-8 14 -14 26q-42 79 -48 171q-6 88 21 171q17 52 45 98l1 2v2q1 36 1.5 72.5t0.5 72.5q36 -1 72 -1t72 -1h2l2 1l27 15q41 20 83.5 32.5t87.5 15.5
q88 6 171 -21q26 -8 49.5 -19t45.5 -25l2 -1h3q36 -1 72 -1.5t73 -0.5q-1 -35 -1 -70.5t-1 -70.5v-3l1 -2l9 -15t8 -15q42 -81 48 -172zM772 269l-58 34q0 1 0.5 1.5t0.5 1.5q0 37 -10.5 70t-29.5 62v67h-67q-52 34 -115 39l21 58l-34 -58h-4q-36 0 -69.5 -10t-61.5 -29h-67
v-67q-34 -52 -39 -115l-59 21l58 -34v-4q0 -37 10.5 -70t29.5 -62v-66h67q49 -34 115 -39l-21 -59l34 58h3q37 0 70 10.5t62 29.5h67v66q35 53 39 115zM499 179l-12 -34h-11q-55 0 -97 32.5t-57 82.5l60 -35v87l39 -23l2 -1q-3 9 -3 18q0 18 12 35l-81 30l-2 -87l-33 12
q-1 3 -1 10q0 55 32.5 97.5t82.5 57.5l-35 -61h87l-23 -39l-1 -2q9 3 18 3q20 0 35 -12l30 82l-87 1l12 34h10q55 0 97.5 -32t57.5 -83l-61 36v-87l-39 22l-2 1q4 -10 4 -18q0 -19 -12 -34l81 -31l1 88l34 -12q0 -3 0.5 -5.5t0.5 -5.5q0 -55 -32.5 -97.5t-83.5 -56.5l36 60
h-87l22 39l1 2q-8 -3 -18 -3q-21 0 -34 12l-30 -81zM476 344q-15 0 -26 -11t-11 -27t11 -26.5t26 -10.5q16 0 27 10.5t11 26.5t-11 27t-27 11zM658 309l26 -9q-1 -40 -16.5 -75.5t-41.5 -62.5t-60.5 -43.5t-74.5 -19.5l17 28q32 6 59.5 22t47.5 40t31.5 54t11.5 63v3z" />
    <glyph glyph-name="atilde" unicode="&#xe3;" horiz-adv-x="1427" 
d="M825 295l64 -51q-14 -48 -48 -82t-82 -48l-51 65l-52 -65q-47 14 -81 48t-48 82l64 51l-64 52q14 47 48 81t81 48l52 -64l51 64q48 -14 82 -48t48 -81zM1273 574q22 0 41.5 -8.5t33.5 -22.5t22.5 -33t8.5 -41v-353q0 -22 -8 -41t-22.5 -33.5t-33.5 -23t-40 -8.5l-173 43
l-15 4l5 -14l68 -223q0 -22 -8.5 -41t-22.5 -33.5t-33.5 -22.5t-41.5 -8h-688q-22 0 -41 8t-33.5 22.5t-23 33t-8.5 39.5l69 225l4 14l-14 -3l-88.5 -22l-88.5 -22q-22 0 -41 8.5t-33.5 23t-22.5 33.5t-8 41v353q0 22 8 41t22.5 33.5t33.5 23t40 8.5l178 -44l14 -3l-4 13
l-68 229q0 22 8 41t22.5 33t33.5 22.5t41 8.5h688q22 0 41.5 -8t33.5 -22.5t22.5 -33t8.5 -39.5l-68 -231l-4 -13l14 3zM1096 295l-168 83l-16 -13q-17 48 -51.5 83t-82.5 51l13 17l-83 167l-83 -167l13 -17q-48 -16 -82.5 -51t-51.5 -83l-16 13l-168 -83l168 -83l16 13
q17 -47 51.5 -82t82.5 -52l-13 -16l83 -168l83 168l-13 16q48 17 82.5 52t51.5 82l16 -13z" />
    <glyph glyph-name="aring" unicode="&#xe5;" horiz-adv-x="1231" 
d="M1190 443q13 -61 12.5 -122.5t-15 -121t-42 -114.5t-67.5 -103q-11 -27 -21 -54.5l-20 -54.5l-293.5 -93.5l-292.5 -93.5l-71 141l-71 141l-1 2l-3 1l-141 71.5l-141 70.5l94 293.5l94 292.5l53 20l53 20q48 40 104 68t115.5 42.5t121.5 15t123 -12.5l29 -29l2 -2h3
l150 -22l150 -22l21.5 -150l21.5 -150l1 -2l2 -2zM864 548l31 -32l38 73zM745 260l39 62l-103 116l-61 -36zM572 374l-75 -45l174 -203l43 81zM821 386l27 48l-61 67l-47 -28zM489 551q-77 -75 -87 -210l54 31q21 95 79 149q59 53 137 50h4h5q43 -2 85 -16l52 34
q-70 30 -138 33h-4q-110 4 -187 -71zM649 86l-190 223l-160 -87l228 -47l32 -251zM919 175q31 62 34 139q3 75 -24 150l-33 -58q9 -39 8 -79q-3 -97 -65 -171q-60 -75 -143 -78l-16 -39l-9 -19l-1 -3v-2q88 6 152 51q65 43 97 109z" />
    <glyph glyph-name="ccedilla" unicode="&#xe7;" horiz-adv-x="942" 
d="M472 738q90 0 170 -34.5t139 -93.5t93.5 -138.5t34.5 -169.5t-34.5 -170t-93.5 -139t-139 -93.5t-170 -34.5t-169.5 34.5t-138.5 93.5t-93.5 139t-34.5 170t34.5 169.5t93.5 138.5t138.5 93.5t169.5 34.5zM472 -86q80 0 151 30.5t123.5 83t83 123.5t30.5 151t-30.5 150.5
t-83 123t-123.5 83t-151 30.5t-150.5 -30.5t-123 -83t-83 -123t-30.5 -150.5t30.5 -151t83 -123.5t123 -83t150.5 -30.5zM705 306q9 -11 12 -15q-48 -77 -164 -98q-42 -11 -84 -11q-32 0 -70 8q-120 21 -163 100q26 49 64 78q36 26 98 46q2 0 6 1t10 2q12 3 18 3q3 1 7.5 1
t9.5 1q6 1 12 1h13h6q42 0 76 -10q7 -2 13 -4.5t12 -4.5l11 -5.5t10 -4.5q11 -5 20 -11q5 -3 9 -6t8 -5l15 -12q5 -5 8.5 -8t5.5 -5l5 -5l8 -8t7.5 -8.5t4.5 -5.5t4.5 -5.5t7.5 -8.5zM392 214q10 -2 17 -2.5t12 -1.5q-24 13 -39 39q-15 25 -15 55q0 39 24 69
q-42 -11 -73 -33q-32 -23 -42 -49q5 -9 10.5 -16.5t11.5 -14.5l14 -11.5t15 -10.5t15.5 -8l15.5 -6q7 -2 15.5 -5t18.5 -5zM484 295q12 -12 29 -12t29 12t12 28q0 17 -12 29t-29 12t-29 -12t-12 -29q0 -16 12 -28zM670 265q7 6 12 12.5l10 13.5q-32 36 -63 58q-16 10 -34 17
t-38 11q27 -32 27 -73q0 -30 -15 -55q-14 -24 -41 -40q2 0 3.5 0.5t3.5 0.5t4 0.5t3 0.5q12 3 21 5t16 4t15 5t18 6q21 8 32 15q12 7 26 19z" />
    <glyph glyph-name="eacute" unicode="&#xe9;" horiz-adv-x="939" 
d="M776 610q64 -64 95.5 -144.5t31.5 -164t-31.5 -164t-95.5 -144.5q-65 -64 -144.5 -96t-164.5 -32t-165 32t-144 96t-96 144.5t-32 164t32 164t96 144.5t144 96t165 32t164.5 -32t144.5 -96zM741 28q55 55 84 125.5t29 148.5t-29 148t-84 125t-125.5 84t-148.5 29
t-148.5 -29t-125.5 -84q-57 -57 -85 -128t-28 -145.5t28 -145.5t85 -128q55 -55 125.5 -84t148.5 -29t148.5 29t125.5 84zM319 231q-25 0 -43 19q-19 18 -19 43q0 26 19 44q18 18 43 18q24 0 44 -18q18 -18 18 -44t-18 -44q-20 -18 -44 -18zM481 55q-9 5 -18 11t-17 14
q-16 15 -25 38q-9 22 -9 51v2v4q0 46 48 94l10 13.5l7 9.5q4 4 6.5 9.5l5.5 12.5q6 13 6 26q0 34 -37 71l-65 -56v211l181 -59l-45 -40q46 -65 46 -126v-2q0 -57 -40 -109l-23 -26q-4 -5 -6.5 -9t-3.5 -6q-2 -6 -4 -10q-2 -6 -3 -8l3.5 -14.5t3.5 -11.5q4 -10 13 -15t16 -6
q5 -1 9.5 -1h10.5l-28 -84q-23 7 -42 16z" />
    <glyph glyph-name="egrave" unicode="&#xe8;" horiz-adv-x="920" 
d="M458 829l214 -129l214 -129v-257t-1 -257l-214 -128.5l-214 -128.5l-214.5 129l-213.5 129v515l214.5 127.5zM837 543l-379 228l-379 -227q-1 -115 -1 -229v-229l379 -228l189 113l190 114v36zM546 278l105 -131l-152 79l-7 -133l-50 117l-101 -107l47 145l-132 -9
l105 72l-153 109l175 -48l-57 163l111 -126l55 105l9 -119l153 82l-109 -133l168 -32zM504 290l88 20l-86 19l53 68l-77 -41l-3 69l-30 -63l-63 67l36 -89l-95 28l83 -58l-61 -39l75 5l-33 -79l58 67l30 -63l-1 74l88 -57z" />
    <glyph glyph-name="ecircumflex" unicode="&#xea;" horiz-adv-x="1041" 
d="M976 555l6 -10l6 -10l-174 -302l-174 -302h-21h-5l-2 -5q-11 -17 -20.5 -35t-20.5 -35h-99q-11 17 -21 35l-21 36l-2 4h-5h-19l-175 301.5l-175 301.5l12 20l2 4l-2 5q-11 17 -20.5 35t-20.5 36l24.5 42.5l25.5 43.5h82h5l2 4q2 4 4.5 7t4.5 7q175 1 348 1t348 1
q2 -5 4.5 -8.5t4.5 -7.5l2 -4h5h82l24.5 -43l25.5 -43q-11 -18 -20.5 -35.5t-20.5 -35.5l-2 -4zM960 634l-9 15l-13 22h-53h-5h-28l-11 19q-161 0 -320 -0.5t-320 -0.5l-10 -19h-29h-5h-54l-21 -36l6 -11l21 -36l2 -4l15 -25l-15 -24l26 -45l295 -509h25l14 -25l2 -4l27 -46
h42l7 11l20 35l2 4l15 25h26l318 555l-13 24l14 25l2 4l20 35zM579 128h-117v99h117v-99zM584 292h-126l-26 277h177z" />
    <glyph glyph-name="edieresis" unicode="&#xeb;" horiz-adv-x="1070" 
d="M1020 208l5 -3l-1 -6q-20 -89 -69 -165l-3 -5l-6 1l-13 4q-7 2 -14 3.5t-14 3.5q-46 -63 -108 -107l4 -14l4 -14l3 -13l2 -6l-5 -4q-77 -48 -165 -68l-6 -1l-3 5l-7 12q-4 6 -7.5 12.5t-7.5 12.5q-38 -6 -76 -6q-37 0 -76 6q-8 -12 -14 -25l-7 -12l-3 -5l-6 1
q-90 20 -165 68l-5 4l1 6l4 13q2 7 3.5 14t3.5 14q-63 45 -107 107l-14.5 -3.5l-14.5 -3.5l-13 -4l-6 -1l-3 5q-50 78 -68 165l-2 6l6 3l11 7l13 7.5l13 7.5q-3 19 -5 38t-2 38t2 37.5t5 38.5q-7 3 -13 6.5l-13 7.5l-11 7l-6 3l2 6q18 87 68 165l3 5l6 -1l13 -4l14.5 -3.5
l14.5 -3.5q22 31 49 57.5t58 49.5l-3.5 14.5l-3.5 14.5l-4 13l-1 5l5 4q75 50 165 68l6 2l3 -6l7 -11q3 -7 6.5 -13l7.5 -13q39 6 76 6q38 0 76 -6l7.5 13l7.5 13l7 11l3 6l6 -2q87 -18 165 -68l5 -4l-2 -5l-3 -13q-2 -8 -4 -14.5t-4 -14.5q62 -44 108 -107q7 2 14 3.5
t14 3.5l13 4l6 1l3 -5q49 -77 69 -165l1 -6l-5 -3l-12 -7q-12 -8 -25 -14q6 -39 6 -76q0 -39 -6 -76q6 -4 12.5 -7.5t12.5 -7.5zM928 407l30 17l6 4l4 2q-14 50 -39 95l-2 -1l-9 -2l-34 -9l-19 28q-41 55 -96 96l-28 20l9 33l3 11q-43 24 -95 40q-2 -3 -3 -5.5t-3 -5.5
l-17 -29l-34 5q-35 6 -68 6q-34 0 -67 -6l-34 -5l-18 29q-2 3 -3 5.5t-2 5.5q-52 -16 -95 -40l3 -11l9 -33l-28 -20q-28 -20 -52 -44t-44 -52l-20 -28l-33 9l-11 3h-1q-24 -44 -39 -95l11 -6l29 -17l-5 -34q-6 -33 -6 -67q0 -35 6 -68l5 -34l-29 -17l-9 -5l-2 -1
q15 -51 39 -95l5 1l7 2l33 9l20 -28q20 -28 44 -52t52 -44l28 -20l-9 -33l-3 -11q43 -24 95 -40v1l6 10l17 30l34 -6q33 -6 67 -6q33 0 68 6l34 6l17 -30l6 -11q52 16 95 40q-2 8 -3 11l-9 33l28 20q55 40 96 96l19 28l34 -9l11 -3q25 45 39 95q-2 2 -5 3t-5 3l-30 17l6 34
q6 33 6 68q0 34 -6 67zM459 312l-15 29l18 30h32l15 -27l-18 -30zM396 347l-10 26l18 30l27 4l10 -25l-18 -30zM399 277l-13 27l13 28l28 2l17 -31l-17 -29zM456 391l-10 25l18 25l30 1l15 -22l-18 -29h-35zM524 257h35l16 -27l-16 -27h-35l-18 27zM659 352l-17 29l9 26
l27 -4l17 -30l-9 -26zM575 380l-16 -27h-35l-18 27l18 27h35zM524 430l-18 21l18 21h35l16 -21l-16 -21h-35zM423 256l18 -30l-10 -26l-27 4l-18 30l10 26zM575 303l-16 -29h-36l-17 29l17 31h36zM623 297l16 -28l-19 -30l-31 -2l-15 29l17 29zM686 260l9 -26l-17 -30
l-27 -4l-9 26l17 30zM686 331l13 -27l-14 -28l-27 -2l-16 30l16 32zM739 390q16 -39 16 -84t-16 -83t-46 -68q-32 -30 -69 -46q-40 -17 -84 -17q-43 0 -83 17q-38 16 -68 46q-29 27 -46 68q-17 40 -17 83q0 42 17 84q17 41 46 68q14 15 31 26.5t37 20.5q40 17 83 17
q44 0 84 -17q41 -19 69 -47q30 -30 46 -68zM739 281q1 6 1.5 12t0.5 13t-0.5 12.5t-1.5 10.5l-3 -16l-20 -2l-13 25l12 28l19 -5q-1 2 -2 5l-2 6q-2 8 -4 12l-16 4l-16 27l5 16q-4 4 -7 7.5t-6 7.5q-5 6 -15 13l14 -22l-6 -15l-29 6l-13 25l9 15l24 -6q-13 10 -23 16
q-6 4 -12 7.5t-13 6.5l12 -17l-10 -14l-31 3l-18 23l13 15l7 -1q-3 1 -6.5 2t-6.5 2t-6.5 1t-6.5 1l-11 -13h-33l-11 13q-4 -1 -7 -1t-7 -1q-3 -1 -6.5 -2t-6.5 -2l7 1l12 -15l-18 -23l-30 -3l-10 14l13 17q-12 -6 -26 -14q-6 -4 -12 -7.5t-11 -8.5l24 6l10 -15l-13 -25
l-30 -6l-7 15l15 22q-5 -3 -8 -6l-7 -7l-6.5 -6.5t-6.5 -7.5l6 -17l-16 -27l-17 -4q-2 -4 -4 -12l-2 -6t-2 -5l19 5l13 -28l-14 -25l-20 2l-4 16q0 -7 -1 -11v-12v-13q1 -4 1 -12l4 14l20 1l14 -23l-13 -29l-17 5q0 -3 2 -9q1 -4 4 -8l17 -4l16 -28l-6 -16q3 -4 6.5 -7.5
t6.5 -7.5l7 -7t8 -5l-15 21l7 15l30 -5l13 -25l-10 -15l-24 6q5 -5 11 -8.5t12 -7.5q6 -5 12.5 -8l13.5 -6l-13 16l10 14l30 -2l18 -23l-12 -16l-7 1q12 -3 27 -6l11 14h33l11 -13q3 1 6.5 1t6.5 1t6.5 1.5t6.5 1.5l-7 -1l-13 16l18 23l31 2l10 -14l-12 -16q7 3 13 6t12 8
q10 6 23 16l-24 -6l-9 15l13 25l29 5l6 -15l-14 -21q9 6 15 12q3 4 6 7.5t7 7.5l-5 16l16 28l16 4q3 4 4 8l3 9l-18 -5l-12 29l13 23l20 -1zM620 440l19 -25l-13 -24h-35l-17 30l17 21zM626 217l11 -25l-18 -24l-30 -3l-15 23l17 29h35zM620 371l19 -30l-16 -29l-32 2
l-17 30l15 27h31zM559 178l16 -21l-16 -22h-35l-18 22l18 21h35zM462 239l-18 29l15 29l32 -2l18 -29l-15 -29zM512 187l-18 -22l-29 3l-17 25l12 24h34z" />
    <glyph glyph-name="iacute" unicode="&#xed;" horiz-adv-x="937" 
d="M465 739q90 0 170 -34.5t139 -93.5t93.5 -138.5t34.5 -169.5t-34.5 -170t-93.5 -139t-139 -93.5t-170 -34.5t-170 34.5t-139 93.5t-93.5 139t-34.5 170t34.5 169.5t93.5 138.5t139 93.5t170 34.5zM465 -85q80 0 150.5 30.5t123 83t83 123.5t30.5 151t-30.5 150.5t-83 123
t-123 83t-150.5 30.5t-150.5 -30.5t-123 -83t-83 -123t-30.5 -150.5t30.5 -151t83 -123.5t123 -83t150.5 -30.5zM601 260q6 -23 6 -40q1 -17 -2 -32q-4 -13 -12 -22q-4 -4 -8 -5q-3 -1 -5.5 -1.5t-6.5 -0.5q-7 -2 -13 0q-4 1 -7.5 1t-7.5 1q-8 2 -17 4.5l-19 5.5q-1 0 -2 1
q-1 0 -5 2q-3 2 -6.5 3.5l-8.5 3.5t-10.5 4.5l-11.5 5.5t-12 5.5t-12 5.5q-5 2 -13 6l40 41l3 -3q22 -19 38.5 -31.5t28.5 -18.5q24 -11 31 0q2 4 -2 13q-2 5 -5.5 11l-7.5 13q-5 7 -9.5 14.5t-10.5 16.5l-21 30l27 27q2 -4 4 -7.5t4 -6.5q2 -4 4.5 -8l4.5 -7q2 -4 3.5 -7.5
t3.5 -5.5q5 -6 6 -10q3 -3 4 -3q2 0 4 6q2 4 4 14q1 5 1 9.5t1 10.5l9.5 -24t7.5 -22zM508 232q-5 3 -9.5 7t-9.5 9q-3 2 -6 4.5t-6 5.5l26 26q2 -3 5 -5.5t5 -4.5l9 -10.5t7 -8.5l6.5 -8t4.5 -6q4 -8 6 -10q3 -9 0 -12q-3 -4 -13 -1q-2 1 -4.5 2t-5.5 3q-6 3 -15 9z
M465 576q56 0 105 -21t86 -57.5t58 -85.5t21 -105t-21 -105t-58 -86t-86 -58t-105 -21t-105 21t-86 58t-58 86t-21 105t21 105t58 85.5t86 57.5t105 21zM238 307q0 -42 14 -80t40 -67l320 320q-30 25 -67.5 39.5t-79.5 14.5q-47 0 -88.5 -18t-72 -48.5t-48.5 -72t-18 -88.5z
M465 80q47 0 88.5 17.5t72 48.5t48.5 72.5t18 88.5q0 41 -13.5 77t-36.5 65l-320 -319q29 -23 65.5 -36.5t77.5 -13.5zM363 302q5 -2 11 -5t13 -6l-11 -11q-3 3 -6.5 6t-6.5 7q-7 6 -13 12.5l-12 13.5q2 -2 10 -8q6 -3 15 -9zM317 383l22 -18l30 -24l26.5 -21l11.5 -9
l-10 -10zM369 401l25.5 -20l29.5 -25q4 -3 7.5 -6t7.5 -7l-22 -22q-3 4 -6.5 7.5l-6.5 6.5l-25 29.5l-21 25.5l-21.5 26.5t-19.5 24.5l25 -19zM457 360l-4 10t-4 9t-4 7q5 -5 10 -9l10 -8z" />
    <glyph glyph-name="igrave" unicode="&#xec;" horiz-adv-x="933" 
d="M466 741q90 0 170 -34.5t139 -93.5t93.5 -138.5t34.5 -169.5t-34.5 -170t-93.5 -139t-139 -93.5t-170 -34.5t-169.5 34.5t-138.5 93.5t-93.5 139t-34.5 170t34.5 169.5t93.5 138.5t138.5 93.5t169.5 34.5zM466 -83q80 0 151 30.5t123.5 83t83 123.5t30.5 151t-30.5 150.5
t-83 123t-123.5 83t-151 30.5t-150.5 -30.5t-123 -83t-83 -123t-30.5 -150.5t30.5 -151t83 -123.5t123 -83t150.5 -30.5zM467 537q11 0 23 -1t23 -3l-8 -33q-20 4 -39 4q-5 0 -12.5 -0.5t-17.5 -1.5l-6 32q18 3 37 3zM492 452l-6 -22q-6 1 -11 1h-8q-13 0 -17 -1l-4 22
q5 1 10 1.5t10 0.5t11.5 -0.5t14.5 -1.5zM426 425q-7 -2 -12 -5t-10 -5l-12 20q16 7 30 12zM406 529l6 -33q-11 -2 -21.5 -6.5t-22.5 -10.5l-16 28q24 13 54 22zM220 388l309 -83l-309 -84l60 83zM488 156q-6 -2 -11.5 -2h-10.5h-7t-9 1l5 23h12h14zM409 78l-28 10t-28 13
l15 27q19 -11 48 -19zM425 160q-7 2 -15 5t-17 8l12 20q9 -5 25 -10zM467 71q-18 0 -33 3l6 30q7 -1 13 -1h13q17 0 34 3l9 -31q-10 -2 -20.5 -3t-21.5 -1zM505 184q40 12 64 45q25 32 25 76q0 40 -23 72q-22 32 -60 47l6 21q45 -17 72 -54q27 -39 27 -87q0 -51 -29 -89
q-29 -39 -76 -54zM654 164q-49 -62 -121 -83l-9 30q63 19 103 73q39 52 39 120q0 66 -38 117q-37 52 -98 72l9 33q71 -23 116 -84q46 -59 46 -138q0 -78 -47 -140z" />
    <glyph glyph-name="icircumflex" unicode="&#xee;" horiz-adv-x="1025" 
d="M304 278q-8 17 -13 37t-5 39v2q4 34 18 66q13 29 33 56q22 22 51 36q30 14 62 15q-33 -21 -56 -49q-21 -28 -34 -68q-25 -25 -40 -60q-14 -33 -16 -74zM334 251q-1 5 -1 10v11q0 11 1 21t4 20q2 10 5.5 19t8.5 19q0 -26 8 -53q4 -13 8.5 -24.5t11.5 -22.5q6 -11 14 -21
t16 -19q17 -18 40 -31q-33 2 -61 15q-28 12 -51 35q-2 5 -2.5 10.5t-1.5 10.5zM952 574q41 -72 47.5 -136t-2.5 -112q-11 -56 -38 -105l-88 4l-90 -157l24 -37l24 -38q-32 -48 -78 -86q-20 -16 -45 -31.5t-55 -27.5t-65.5 -19t-76.5 -7h-1q-42 0 -77 7.5t-64.5 19.5
t-53 27.5t-42.5 31.5q-44 38 -72 85l46 74l-90 157l-44 -2q-8 -1 -16.5 -1h-14.5q-8 0 -14 -1l-1 1q-25 51 -35 110q-8 51 -1 116.5t49 137.5q38 66 86 102.5t92 54t77.5 21.5t43.5 4h4l41 -79h181l20 39q8 15 14 27.5t7 12.5q58 -4 113 -25q48 -18 100.5 -57t94.5 -111z
M929 272q7 17 15 45.5t9 64.5t-8 78.5t-36 89.5q-26 46 -59 76.5t-66 49t-62.5 27.5t-49.5 12l-25 -50l-14 -26h-30h-181h-30l-14 26l-27 51q-19 -2 -47.5 -9.5t-60.5 -25t-64 -46.5t-59 -75q-27 -47 -36.5 -91t-9 -82t8 -68t14.5 -48q9 0 19 0.5t18 0.5q10 0 19 1l30 2
l15 -26l90 -157l15 -26l-16 -25l-30 -48q11 -15 32 -36t51.5 -40t72.5 -32.5t95 -13.5h1q53 0 95.5 13.5t75 33t54.5 40.5t35 37l-12 19l-18 27l-16 26l15 26l91 156l14 26l30 -1zM509 523q31 -9 57 -27q25 -19 43 -46q-11 6 -23 11t-25 8q-24 7 -53 7q-26 0 -51 -6
q-12 -4 -24 -8.5t-23 -10.5q18 28 43 45q26 18 56 27zM632 396q2 -5 2.5 -10.5t1.5 -10.5t1 -10.5v-10.5q0 -31 -10 -57q-9 -28 -26 -49q-19 -24 -41 -39q-24 -15 -51 -24q-27 9 -51 24q-22 15 -41 39q-17 21 -26 49q-10 26 -10 57q0 23 6 44q24 23 55 36q29 13 66 13
t69 -13q30 -13 55 -38zM627 142q-8 -8 -16.5 -14t-17.5 -11q-18 -10 -40 -16q-11 -3 -22 -4t-23 -1q-46 0 -85 21q-39 23 -62 58q20 -11 48 -19q13 -3 25.5 -5t26.5 -2q7 0 13 0.5t12 1.5t11.5 1.5t11.5 2.5q6 -2 12 -2.5t11 -1.5q6 -1 12.5 -1.5t12.5 -0.5q29 0 51 7
q25 6 47 18q-13 -20 -28 -32zM678 228q-20 -20 -50 -34q-28 -13 -60 -14q22 13 39 31q17 17 31 39q7 11 11.5 22.5t8.5 23.5q8 27 8 52q8 -17 13 -37q5 -22 5 -39q0 -23 -6 -44zM726 309q-2 -8 -5 -17t-8 -17q0 39 -15 74q-13 34 -39 61q-5 20 -14 36.5t-21 32.5
q-23 30 -56 50q15 -1 29 -4.5t28 -8.5q26 -11 47 -30q26 -30 41 -63q14 -35 19 -77q-2 -20 -6 -37z" />
    <glyph glyph-name="idieresis" unicode="&#xef;" horiz-adv-x="951" 
d="M929 340v-83l-8 -8l-391 -438q-13 -13 -23 -26h-65l-11.5 13.5t-11.5 12.5l-391 438l-4 4l-4 4v83l8 8l391 438l11.5 13l11.5 13h65q5 -7 11 -13t12 -13l391 -438zM879 321l-386 432l-9 9h-20l-8 -9l-386 -432v-45l386 -432q2 -2 4 -4.5t4 -4.5h20l9 9l386 432v45z
M512 19h-76l-27 82q17 1 34 1h35h31t30 -1zM550 134h-152l-28 83q52 6 108 6q26 0 51 -1.5t49 -3.5zM590 255h-232l-24 70q24 6 49.5 10t51.5 6h86q24 -2 47 -5.5t46 -8.5zM628 370h-309l-19 59q83 37 178 37q89 0 171 -34z" />
    <glyph glyph-name="ntilde" unicode="&#xf1;" horiz-adv-x="951" 
d="M779 739l134 -134v-609l-132 -132h-606l-67.5 67l-67.5 67v609l66 66l67 66h606zM864 585l-75 75l-30 30h-566l-52 -52l-51 -51v-568l105 -106h566l51 52l52 52v568zM459 141h-131l-23 -34h-50l16 34h-16v7h-25v47h25v7h16l-16 35h50l23 -35h131q18 0 35.5 -3.5t31 -8.5
t22 -10t8.5 -9t-8 -9t-21.5 -9.5t-31 -8t-36.5 -3.5zM548 274h-132l-23 -34h-49l15 34h-15v7h-26v47h26v7h16l-16 35h49l24 -35h131q18 0 35 -3.5t30.5 -8.5t22 -10t8.5 -9t-8 -9t-21.5 -9.5t-30.5 -8t-36 -3.5zM643 404h-132l-23 -34h-49l16 34h-16v6h-25v48h25v7h16
l-16 35h49l24 -35h131q18 0 35.5 -3.5t31 -8.5t22 -10t8.5 -9t-8 -9t-21.5 -9.5t-31 -8t-36.5 -3.5z" />
    <glyph glyph-name="oacute" unicode="&#xf3;" horiz-adv-x="970" 
d="M935 333q6 -88 -21 -171q-9 -26 -20.5 -51.5t-26.5 -48.5l-1 -2v-3q-1 -35 -1.5 -71t-0.5 -72q-36 1 -72 1t-71 1h-3l-2 -1q-6 -4 -12 -7.5t-13 -6.5q-81 -42 -172 -48q-8 -1 -16 -1h-16q-72 0 -138 22q-27 9 -53 21t-50 28l-2 1h-2q-35 0 -70.5 0.5t-70.5 1.5
q1 35 1 70.5t1 70.5v2l-1 2l-7.5 13t-6.5 13q-42 81 -48 172q-6 87 21 170q17 53 45 98l1 2v2q1 37 1.5 73t0.5 73q36 -1 72 -1.5t72 -0.5l2 -1l2 2l13.5 7.5t13.5 6.5q81 42 171 48q8 1 16 1h16q73 0 139 -22q52 -16 95 -43l2 -2h3q36 0 72 -0.5t73 -1.5q-1 -35 -1 -70.5
t-1 -70.5v-2l1 -2q5 -8 9 -15.5l8 -15.5q42 -81 48 -171zM867 177q24 74 19 152q-6 79 -43 153l-15 27l-2 2l-7 12v14v3l1 70l1 21l-23 1l-73 1h-2h-14l-12 7l-2 1q-20 13 -40.5 22t-43.5 17q-62 20 -124 20h-14t-14 -1q-82 -6 -153 -43l-12 -6t-11 -7l-3 -1l-12 -7h-14h-2
l-94 1v-23l-1 -72v-3l-1 -13l-7 -12l-1 -2q-24 -39 -40 -87q-25 -76 -19 -152q6 -82 43 -153q3 -5 6 -11l6 -12l2 -2l7 -12l-1 -14v-2l-1 -70v-21l21 -1l70 -1h3h14l12 -8l2 -1q44 -28 91 -43q62 -20 123 -20q8 0 14.5 0.5t14.5 0.5q79 6 153 43q5 3 11 6t11 7l2 1l12 7h14
h2q24 -1 47.5 -1t46.5 -1l1 94v2v14l8 12l1 2q27 41 42 89zM487 343q16 0 27 -11t11 -26q0 -16 -11 -27t-27 -11q-15 0 -26 11t-11 27q0 15 11 26t26 11zM783 268l-58 21q-2 -32 -12 -61t-27 -54v-67h-67q-29 -19 -62 -29.5t-70 -10.5h-3l-34 -57l21 58q-32 2 -61 12t-54 27
h-67v67q-19 29 -29.5 62t-10.5 70v3l-58 34l59 -21q2 32 12 61t27 54v67h67q28 19 61.5 29.5t69.5 10.5h4l34 57l-21 -58q63 -5 115 -39h67v-67q19 -28 29.5 -61.5t10.5 -69.5q0 -2 -0.5 -2.5t-0.5 -1.5zM484 487h3q34 0 64 -11.5t53.5 -31.5t39.5 -47.5t22 -59.5l28 -17
q-3 40 -19.5 74.5t-43.5 60.5t-62.5 41.5t-75.5 16.5zM472 513q-39 -3 -73.5 -19.5t-60.5 -43.5t-41.5 -62.5t-16.5 -75.5l26 -10v4q0 33 11.5 63t31.5 53.5t47.5 39.5t59.5 22zM490 124h-3q-33 0 -63 11.5t-53.5 31.5t-39.5 47.5t-22 59.5l-29 17q3 -40 19.5 -74.5
t43.5 -60.5t62.5 -41.5t75.5 -16.5zM487 144q3 0 5.5 0.5t5.5 0.5l12 34l-87 1l30 81q15 -12 34 -12q5 0 9.5 1t8.5 2l-1 -1l-22 -39h87l-36 -61q51 15 83.5 57t32.5 98q0 2 -0.5 5t-0.5 5l-34 12l-1 -87l-81 30q5 8 8.5 16t3.5 19q0 5 -1 9t-3 9l2 -1l39 -23v87l61 -36
q-15 51 -57.5 83.5t-97.5 32.5q-7 0 -10 -1l-12 -33l87 -2l-30 -81q-17 12 -35 12q-9 0 -18 -3l1 1l23 40h-87l35 60q-50 -15 -82.5 -57t-32.5 -97q0 -7 1 -11l33 -12l2 87l81 -30q-12 -15 -12 -34q0 -10 3 -19l-2 2l-39 22v-87l-60 36q15 -51 57 -83.5t97 -32.5zM502 99
q40 3 74.5 19.5t60.5 43.5t41.5 62t16.5 75l-26 10v-3q0 -34 -11.5 -64t-31.5 -53.5t-47.5 -39.5t-59.5 -22z" />
    <glyph glyph-name="ograve" unicode="&#xf2;" horiz-adv-x="1427" 
d="M1272 571q22 0 41.5 -8.5t33.5 -23t22.5 -33.5t8.5 -41v-353q0 -22 -8 -41t-22.5 -33.5t-33.5 -23t-40 -8.5l-173 44l-15 3l5 -13l68 -223q0 -22 -8.5 -41t-22.5 -33.5t-33.5 -23t-41.5 -8.5h-688q-22 0 -41 8.5t-33.5 22.5t-23 32.5t-8.5 39.5l69 226l4 13l-14 -3
l-88.5 -21.5l-88.5 -21.5q-22 0 -41 8t-33.5 22.5t-22.5 33.5t-8 41v353q0 22 8 41t22.5 33.5t33.5 23t40 8.5l178 -44l14 -3l-4 14l-68 228q0 22 8 41.5t22.5 33.5t33.5 22.5t41 8.5h688q22 0 41.5 -8t33.5 -22.5t22.5 -33t8.5 -39.5l-68 -231l-4 -14l14 3zM1329 465
q0 22 -15 38t-36 18l-165 -41l-14 -4l-84 -21l24 83l4 14l66 223q-2 20 -18 33.5t-38 13.5h-688q-22 0 -37.5 -14t-17.5 -35l65 -221l5 -14l24 -82l-83 20l-14 3l-172 42q-20 -2 -35 -18t-15 -38v-353q0 -22 15 -38t36 -18l70 18l101 24l14 3l84 21l-25 -83l-5 -14l-66 -216
q3 -20 19 -34t37 -14h688q22 0 38 14.5t18 35.5l-66 214l-4 14l-25 84l84 -22l15 -3l166 -42q21 2 35.5 18.5t14.5 37.5v353zM1095 292l-168 -83l-16 13q-17 -48 -51.5 -83t-82.5 -51l13 -17l-83 -167l-83 167l13 17q-48 16 -82.5 51t-51.5 83l-16 -13l-168 83l168 83
l16 -14q17 48 51.5 83t82.5 52l-13 16l83 168l83 -168l-13 -16q48 -17 82.5 -52t51.5 -83l16 14zM824 292l64 51q-14 48 -48 82t-82 48l-51 -65l-52 65q-47 -14 -81 -48t-48 -82l64 -51l-64 -52q14 -47 48 -81.5t81 -47.5l52 64l51 -64q48 13 82 47.5t48 81.5z" />
    <glyph glyph-name="ocircumflex" unicode="&#xf4;" horiz-adv-x="1230" 
d="M1192 443q13 -61 12.5 -123t-15 -121.5t-42 -114.5t-67.5 -103l-21 -54l-20 -54l-293.5 -94l-292.5 -94l-71 141l-71 141l-1 2l-3 2l-141 70.5l-141 71.5l94 292.5l94 292.5q26 11 53 20.5l53 19.5q75 62 164.5 94t184.5 32q58 0 115 -12l29 -30l2 -2h3l150 -21.5
l150 -21.5l21.5 -150l21.5 -150l1 -3l2 -2zM1042 13q70 85 97.5 191t6.5 214l-18 19l-2 2l-12 12l-2 16l-1 3l-19 136l-19 127l-263 38h-3l-16 3l-12 12l-2 2l-18 18q-45 9 -91 9q-88 0 -169 -29.5t-148 -85.5l-7 -5l-8 -3l-52 -20l-31 -11l-84 -262l-84 -261l122.5 -61.5
l121.5 -61.5l3 -2l14 -7l8 -14l1 -3l57 -112l66 -132l523 167l33 87l3 8zM935 589l-38 -73l-31 32zM622 402l61 36l103 -117l-39 -62zM716 207l-43 -82l-174 204l75 45zM742 472l47 28l61 -67l-27 -48zM491 550q77 75 187 71h4q68 -2 138 -33l-52 -33q-44 14 -85 15h-5h-4
q-80 3 -137 -50q-58 -52 -79 -148l-54 -31q11 136 87 209zM561 -77l-32 251l-228 47l160 88l190 -223zM921 174q-31 -64 -97 -109q-64 -43 -152 -51v3l1 2l9 20l16 38q83 5 143 78q62 76 65 172q1 40 -8 78l33 58q27 -74 24 -149q-3 -77 -34 -140z" />
    <glyph glyph-name="zero" unicode="0" horiz-adv-x="705" 
d="M358 452q24 0 46 -9.5t38.5 -26t26.5 -38.5t10 -47t-10 -47t-26.5 -38.5t-38.5 -26t-46 -9.5q-26 0 -48 9.5t-39 26t-26.5 38.5t-9.5 47t9.5 47t26.5 38.5t39 26t48 9.5zM358 534q41 0 78 -16t64.5 -43.5t43.5 -64.5t16 -79t-16 -79t-43.5 -64.5t-64.5 -43.5t-78 -16
q-42 0 -79.5 16t-65 43.5t-43.5 64.5t-16 79t16 79t43.5 64.5t65 43.5t79.5 16zM358 192q28 0 53 11t43.5 29.5t29.5 44t11 54.5q0 28 -11 53.5t-29.5 44.5t-43.5 30t-53 11q-29 0 -54.5 -11t-45 -30t-30.5 -44.5t-11 -53.5q0 -29 11 -54.5t30.5 -44t45 -29.5t54.5 -11z
M358 597q54 0 102.5 -21t85 -57t57.5 -84.5t21 -103.5t-21 -103.5t-57.5 -85t-85 -57.5t-102.5 -21q-56 0 -104.5 21t-85 57.5t-57.5 85t-21 103.5t21 103.5t57.5 84.5t85 57t104.5 21zM358 86q50 0 94.5 19.5t77.5 52.5t52.5 77.5t19.5 95.5t-19.5 95.5t-52.5 77.5
t-77.5 52t-94.5 19q-51 0 -96 -19t-78.5 -52t-52.5 -77.5t-19 -95.5t19 -95.5t52.5 -77.5t78.5 -52.5t96 -19.5zM681 331q0 -35 -7 -66.5t-19 -60.5l12 -17.5t12.5 -21t7.5 -19.5t-2 -13q-5 -6 -24 -24.5l-40.5 -40l-40.5 -41l-25 -25.5q-5 -5 -14.5 -2.5t-20 8t-20.5 13
t-16 12.5q-59 -25 -126 -25q-68 0 -129 25l-17 -12t-20.5 -12.5t-19.5 -8t-13 1.5l-24.5 24.5l-40 40l-40.5 41t-26 25.5q-5 5 -2.5 14.5t8.5 19.5t13 20l12 17q-26 58 -26 127q0 67 26 128q-5 6 -12 16t-13 20.5t-8.5 19t2.5 13.5l26 26l40.5 41l40 40.5t24.5 23.5
q4 4 13 2t19.5 -7.5t20.5 -13l17 -12.5q60 26 129 26q68 0 126 -26q6 5 16 12.5t20.5 13t20 8t14.5 -2.5l25 -25l40.5 -40.5l40.5 -40.5t24 -25q4 -4 2 -13t-7.5 -19.5t-12.5 -20.5t-12 -16q12 -30 19 -62t7 -66zM76 331q0 -59 22 -110t60.5 -89t89.5 -60t110 -22
q58 0 109 22t89 60t60 89t22 110q0 58 -22 109t-60 89t-89 60t-109 22q-59 0 -110 -22t-89.5 -60t-60.5 -89t-22 -109z" />
    <glyph glyph-name="quotesingle" unicode="'" horiz-adv-x="917" 
d="M170 6h-127v734h692v-132h-565v-602zM737 321h159v-126h-159v-189l-446 254l446 248v-187z" />
    <glyph glyph-name="quotedbl" unicode="&#x22;" horiz-adv-x="911" 
d="M744 608h-565v132h692v-734h-127v602zM177 508l446 -248l-446 -254v189h-159v126h159v187z" />
    <glyph glyph-name="comma" unicode="," horiz-adv-x="712" 
d="M581 682v-77l-223 121l-222 -121v77l222 121zM457 632v-61l-99 54l-99 -54v61l99 54zM358 -267l-222 122v77l222 -122l223 122v-77zM358 -150l-99 54v62l99 -54l99 54v-62z" />
    <glyph glyph-name="period" unicode="." horiz-adv-x="971" 
d="M102 731l246 72l55 -55l-246 -73l-72 -246l-56 55zM186 647l110 32l44 -44l-110 -33l-32 -109l-44 44zM947 484l-54 -55l-73 246l-246 73l54 55l246 -72zM824 537l-45 -44l-32 109l-110 33l44 44l110 -32z" />
    <glyph glyph-name="slash" unicode="/" horiz-adv-x="1027" 
d="M988 406q12 -51 12 -106q0 -100 -38 -188.5t-104 -154.5t-154.5 -104t-189.5 -38t-189 38t-154 104t-104 154.5t-38 188.5q0 101 38 189.5t104 154.5t154 104t189 38q91 0 172 -31t145 -87l95 81l51 -299l-301 86l95 81q-53 43 -118 67t-139 24q-84 0 -158.5 -32
t-129.5 -87.5t-87 -129.5t-32 -159q0 -84 32 -158.5t87 -129.5t129.5 -87t158.5 -32t158.5 32t130 87t87.5 129.5t32 158.5q0 58 -17 114l83 -8v0z" />
    <glyph glyph-name="x" unicode="x" horiz-adv-x="907" 
d="M298 -64q2 -2 4 -3.5t4 -2.5q-6 -2 -9 -6.5t-6 -9.5l-6.5 4.5t-6.5 5.5q-45 36 -64 62.5t-24 36.5q-2 25 -5.5 44t-5.5 31q8 -27 22.5 -51t31 -44.5t34 -37.5t31.5 -29zM575 -86q14 -6 19 -16q2 -8 -2.5 -16t-9.5 -15q0 -1 -0.5 -1t-0.5 -2l-2 -2v-1q-3 -1 -5 -5l-4 22
q-1 1 -2 2.5t-4 2.5t-8 -1q-13 -15 -29.5 -24t-32 -14t-27.5 -6.5t-16 -1.5q-3 0 -15 1.5t-28 6.5t-33 14t-30 24q-5 2 -7 1q-5 -2 -5 -5l-4 -22q-2 3 -5 5l-1 1q0 1 -1 2q-1 2 -3 3q-5 7 -8.5 15t-1.5 16q3 10 19 16h4q1 0 2 0.5t3 0.5q3 0 3 2h3h5q9 0 18.5 -2.5
t19.5 -6.5q25 -11 39.5 -13t22.5 -2h3h4q6 0 21 2t39 13q11 4 21 6.5t19 2.5h5h1q2 -2 4 -2h1q2 0 2.5 -0.5t1.5 -0.5h5zM112 372q6 4 23.5 8.5t43 10t55 10.5l59.5 10v-7l45 -16l46 8h67h68l46 -8l44 16v7l60 -10t55 -10.5t42.5 -10t23.5 -8.5q2 -5 0 -23t-13 -60
q-6 -26 -15 -53t-17 -44q-4 -4 -8 -7.5t-9 -8.5q-20 -18 -41.5 -35.5t-40.5 -25.5q-11 -5 -27 -5t-31.5 1.5t-27.5 4.5t-16 5q-4 3 -15.5 18l-21.5 28l-24 32t-15 18t-9.5 8t-7.5 2q-3 0 -6.5 -2t-9.5 -8t-15.5 -18l-24.5 -32q-9 -13 -21 -28t-16 -18q-4 -2 -16 -5t-27 -4.5
t-31 -1.5t-27 5q-19 8 -41 25.5t-42 35.5q-4 5 -8.5 8.5t-8.5 7.5q-8 17 -16.5 44t-15.5 53q-11 41 -12.5 59.5t-0.5 23.5zM609 512l-10 16v234q61 -26 104 -55.5t72.5 -60.5t46.5 -62t27 -59q-6 -21 -14.5 -65t-8.5 -114q0 -86 4 -128t6 -53q-11 -11 -18.5 -21t-11.5 -14
l-57 -7h-19q4 9 14 19l11 17t11 21q6 13 15.5 41t17.5 59t12.5 59.5t0.5 42.5v1q-1 3 -3.5 6.5t-13.5 8t-33.5 10t-62.5 12.5l-52.5 9l-37.5 6v77zM864 469q6 -32 7.5 -63.5t1.5 -57.5q-1 -30 -3 -58q0 -19 -1 -36q-1 -15 -2.5 -30t-3.5 -26l-7.5 -9l-7.5 -9q-2 17 -4.5 57
t-2.5 109q0 54 5 92t12 61q2 -8 3.5 -15t2.5 -15zM338 414l-21 8v2v15v66l46 63h88h88l47 -63v-66v-15v-2l-22 -8l-36 59h-77h-77zM723 98l-5 -31t-5 -44q-6 -10 -24.5 -35.5t-61.5 -60.5q-2 -3 -6 -5q-1 0 -1 -3q-5 -2 -8 -5q-4 5 -7 9.5t-9 6.5h1q2 1 3.5 2.5t3.5 2.5v1h1
q14 12 31.5 29t34 37.5t30.5 44.5t22 51zM66 165q2 11 6 53t4 128q0 70 -8 114t-14 65q9 28 26.5 59t46.5 62t72.5 60.5t104.5 55.5v-234l-11 -16v-77l-37 -6t-52 -9q-40 -7 -62.5 -12.5t-33.5 -10t-13.5 -8t-3.5 -6.5v-1q-5 -14 -0.5 -42.5t12.5 -59.5t18 -59t16 -41
q5 -12 11 -21l11 -17l7.5 -9.5t6.5 -9.5h-20l-57 7l-11 14t-19 21zM815 118q1 1 7.5 8.5l15.5 18.5q0 -2 -0.5 -4t-0.5 -4q0 -60 -13 -105.5t-31 -78t-37.5 -52.5t-32.5 -30q0 35 4 74.5t8.5 74t9 59t4.5 29.5l64 8zM153 108q1 -5 5.5 -29.5t9 -59t8.5 -74t4 -74.5
q-14 10 -33.5 30t-37.5 52.5t-30.5 78t-12.5 105.5q0 2 -2 8q9 -11 16 -18.5t9 -8.5l1 -2zM451 593h-76v263h76h77v-263h-77zM451 420h-68l-26 -3l26 39h68h69l25 -39l-25 3h-69zM574 559l-23 33v248l14 -65q3 -2 5 -2.5t4 -2.5v-211zM38 469q2 8 3 15t4 15q7 -23 11.5 -61
t4.5 -92q0 -69 -2.5 -109t-4.5 -57l-7.5 9l-7.5 9q-2 11 -3.5 26t-2.5 30q-1 17 -2 36q-3 28 -3 58q0 26 2 57.5t8 63.5zM352 592l-24 -33v211q2 2 4.5 2.5t4.5 2.5l15 65v-248zM451 -179q16 0 32 4t30 10t26 13t19 13l2 -18q-2 -1 -11.5 -8t-24 -14.5t-33.5 -13.5t-40 -6
t-40 6t-33.5 13.5t-24 14.5t-11.5 8l3 18q7 -6 18.5 -13t26 -13t30 -10t31.5 -4z" />
    </font>
</defs>
</svg>
