<?xml version="1.0" encoding="utf-8"?>
<!DOCTYPE svg PUBLIC "-//W3C//DTD SVG 1.1//EN" "http://www.w3.org/Graphics/SVG/1.1/DTD/svg11.dtd">
<svg version="1.1" id="Layer_2" xmlns="http://www.w3.org/2000/svg" xmlns:xlink="http://www.w3.org/1999/xlink" x="0px" y="0px"
	 width="300.825px" height="308.265px" viewBox="0 0 300.825 308.265" enable-background="new 0 0 300.825 308.265"
	 xml:space="preserve" fill="#fff">
<path d="M77.241,295.75c0,0-15,10.833-20,12.5S13.908,167.417,13.908,167.417s-19.167-117.5-12.5-120.833
	c0,0,22.5,10.833,27.5,13.333c0,0,30,97.5,30.833,100s12.5-2.5,12.5-2.5L73.075,152l20.75-11l2,2.75l2.5-1.25l-0.5-4.5
	c0,0,16.25-5.25,26.75-22.5l10-1.75l0.5-4.75l9.75-2l1.75,2.75c0,0,8.25,1.25,11.25-1.75c0,0,15.75,13,34.25,11l1.75,3.75l2.5-0.25
	l1-3.5c0,0,15.25,2.75,22,2.5l0.25,3.25l5-0.5l-0.5-2.25l11.25-1l-16.75-102.75L237.325,0c0,0,2.5,0,3.75,2l40.25,119l19.5,137.5
	c0,0-14.75-1.75-31.75-8c0,0-29-103.75-28.5-105.75c0,0-4-2.5-11.75-0.25c0,0-3.25,1-4,4.75l-33.75,16.5c0,0-7,5-6,13
	c0,0-9.75,9.5-22.5,16.25c0,0-8.25,1.5-32.75-4.5c0,0-0.75-7.5-7.5-8c0,0-13.75-2.75-20.5,0.25l-20.5-1l-4.25-4.25
	c0,0-11.75,2.75-13.5,5.75C63.575,183.25,76.408,285.5,77.241,295.75z"/>
</svg>
